<?xml version="1.0" standalone="no"?><!DOCTYPE svg PUBLIC "-//W3C//DTD SVG 1.1//EN" "http://www.w3.org/Graphics/SVG/1.1/DTD/svg11.dtd"><svg t="1723393401313" class="icon" viewBox="0 0 1024 1024" version="1.1" xmlns="http://www.w3.org/2000/svg" p-id="2040" xmlns:xlink="http://www.w3.org/1999/xlink" width="256" height="256"><path d="M0 0m157.538462 0l708.923076 0q157.538462 0 157.538462 157.538462l0 708.923076q0 157.538462-157.538462 157.538462l-708.923076 0q-157.538462 0-157.538462-157.538462l0-708.923076q0-157.538462 157.538462-157.538462Z" fill="#2AD999" p-id="2041"></path><path d="M227.24597981 758.41338126v-198.82748275h186.37357303v198.82748275h95.60686957V294.46446047h-95.60686957v188.00509034H227.24597981V294.46446047H131.31280652v463.94892079h95.93317329z m507.29287628 0c63.30284139 0 114.64122867-20.33957268 154.06954625-61.01871803 39.37393318-40.67914534 59.11528279-94.13850414 59.11528144-160.43246079v-20.66587503c0-66.34833968-19.74134962-119.86208151-59.11528144-160.64999568C849.18008475 314.85841756 798.27676864 294.46446047 735.78968521 294.46446047h-143.02961619v463.94892079h141.77878707z m0-77.11634769h-45.89999819v-309.44430471h50.03317373c37.36172913 0.7069905 65.36942986 13.05213276 83.9687178 36.98104235 18.59928794 24.03767705 27.89893329 59.60473701 27.89893329 106.75556572v24.25521194c-0.43507118 45.464927-10.49609007 80.37938226-30.12867223 104.79774608-19.63258218 24.47274823-48.29288899 36.65473862-85.92653744 36.65473862z" fill="#ffffff" p-id="2042"></path></svg>