<?xml version="1.0" encoding="UTF-8"?><svg id="_图层_1" xmlns="http://www.w3.org/2000/svg" viewBox="0 0 256 256"><defs><style>.cls-1{fill:#d5b200;fill-rule:evenodd;}.cls-1,.cls-2{stroke-width:0px;}.cls-2{fill:#fff;}</style></defs><path class="cls-1" d="M52.36,0h151.27c28.92,0,52.36,22.82,52.36,50.97v154.07c0,28.15-23.44,50.97-52.36,50.97H52.36c-28.92,0-52.36-22.82-52.36-50.97V50.97C0,22.82,23.44,0,52.36,0Z"/><path class="cls-2" d="M18.85,161.32c5-3.48,9.75-7.29,14.24-11.46,4.49-4.16,8.69-8.58,12.6-13.27l2.34-2.81c.66-.82,1.11-1.22,1.35-1.2.23.02.42.22.56.59.14.37.13.83-.03,1.38l-1.76,5.16c-1.33,3.87-2.24,6.41-2.72,7.62-.49,1.21-4.56,10.31-12.22,27.3l-14.36-13.3ZM18.96,120.31c-.12-.62.39-1.05,1.52-1.29,1.13-.23,2.61-.6,4.42-1.11,1.82-.51,4.19-.92,7.12-1.23,2.93-.31,4.75-.47,5.45-.47,1.13.04,1.88.24,2.26.62.37.37.62.86.76,1.46.14.61.43,2.41.88,5.42.45,3.01.6,5.11.44,6.3-.16,1.19-.45,1.9-.88,2.14-.43.23-1.13.08-2.11-.47-.35-.16-.93-.5-1.73-1.03-.8-.53-2.58-1.59-5.33-3.19-2.75-1.6-5.57-3.12-8.44-4.57-2.87-1.44-4.33-2.3-4.37-2.58ZM24.65,93.65c-.35-.35-.46-.76-.32-1.23.14-.47,3.25-1.03,9.35-1.7,6.09-.66,9.67-.66,10.72,0,.74.51,1.39,1.46,1.93,2.84.55,1.39.98,3.68,1.29,6.88.31,3.2.05,5.11-.79,5.71-.84.61-2.33.11-4.48-1.49-5.27-3.79-9.54-6.56-12.8-8.32-3.26-1.76-4.89-2.66-4.89-2.7ZM94.84,121.42c-10.47,4.3-20.24,8.36-29.3,12.19,2.62.66,4.86,1.42,6.74,2.26,1.88.84,2.85,1.45,2.93,1.82.08.37-.16,1.06-.7,2.08-.7,1.21-1.38,3.23-2.02,6.06-.64,2.83-1.74,6.55-3.28,11.16-1.54,4.61-4.02,9.11-7.44,13.51-3.42,4.39-8.39,7.69-14.91,9.87l-5.74,1.93c-.74.27-1.24.35-1.49.23-.25-.12-.42-.31-.5-.59-.08-.27.33-.8,1.23-1.58l4.92-4.28c1.8-1.56,4.15-4.15,7.06-7.76,2.91-3.61,5.06-6.78,6.45-9.49,1.38-2.71,2.37-5.2,2.96-7.47.59-2.26,1.02-4.5,1.29-6.71.27-2.21.33-3.9.18-5.07l-.41-3.57-3.05,1.64-6.56-12.95c1.95-.7,3.69-1.44,5.21-2.2s3.26-2.12,5.21-4.07c1.95-1.95,3.28-3.53,3.98-4.75l3.4-5.57c-4.73,1.56-9.02,3.61-12.89,6.15l-6.09-16.82c3.63.63,6.88,1.02,9.73,1.17,2.85.16,8.75-.41,17.7-1.7-.43-.35-.8-.68-1.11-1-.31-.31-1.05-1.28-2.23-2.9-1.17-1.62-2.64-3.43-4.39-5.42s-3.05-3.34-3.87-4.04l-1.41-1.11c-.39-.31-.6-.6-.62-.85-.02-.25.15-.56.5-.91s1.31-.41,2.87-.18l5.8.41c1.37.16,3.44.57,6.21,1.23,2.77.66,4.36,1.42,4.75,2.26.39.84.55,1.63.47,2.37-.16,1.13-.67,2.68-1.55,4.63-.88,1.95-1.96,3.67-3.25,5.16,7.42-1.05,12.84-2.09,16.26-3.11,3.42-1.02,5.65-1.93,6.71-2.75l3.57-2.58,4.39,16.64c-5.31-1.05-9.47-1.52-12.48-1.41-3.01.12-7.44.51-13.3,1.17-4.02,5.55-6.91,9.18-8.67,10.9l-4.51,4.57,17.87-3.69c-1.45-1.91-2.47-3.31-3.08-4.19-.61-.88-1.08-1.53-1.41-1.96-.33-.43-.49-.9-.47-1.41.02-.51.56-.64,1.61-.41.66.2,2.58.81,5.74,1.85,3.16,1.04,5.6,1.92,7.32,2.67l4.75,2.23c2.26,1.05,3.49,1.92,3.66,2.61.18.68,0,1.71-.5,3.08-.67,1.68-1.61,3.77-2.84,6.27-1.23,2.5-2.15,3.93-2.75,4.28-.61.35-1.14.47-1.61.35-.55-.08-1.28-.8-2.2-2.17-.92-1.37-2.53-4.06-4.83-8.09ZM86.23,174.63c-.08,1.72-.37,2.81-.88,3.28-.51.47-1.37.53-2.58.18-.82-.2-2.07-1.05-3.75-2.58l-3.57-2.99c-.86-.82-1.33-1.47-1.41-1.96-.08-.49.12-1.38.59-2.67.43-1.33.82-3.93,1.17-7.82.35-3.89.59-7.08.7-9.58.12-2.5.1-4.94-.06-7.32-.2-2.46-.53-4.51-1-6.15s-.91-2.78-1.32-3.43-.68-1.29-.82-1.93c-.14-.64.58-.77,2.14-.38l4.34,1c1.05.27,2.33.67,3.84,1.2,1.5.53,2.6.89,3.28,1.08.68.2,1.08.44,1.2.73s-.02.95-.41,1.96c-.86,2.07-1.39,6.15-1.58,12.25-.12,2.93-.1,6.17.06,9.73l.29,8.26-.23,7.15ZM101.81,164.02c1.41,2.23,4.12,3.3,8.14,3.22,3.48-.04,5.5-.86,6.06-2.46.56-1.6.89-4.26.97-7.97,0-1.88-.09-3.29-.26-4.25-.18-.96-.17-1.76.03-2.4.2-.64.7-.5,1.52.44.86,1.02,1.73,2.31,2.61,3.9s1.96,3.43,3.25,5.54,2.17,3.59,2.64,4.45l2.75,5.33c.59,1.05.84,1.76.76,2.11-.12.35-.99,1.04-2.61,2.05-1.62,1.02-3.38,1.98-5.27,2.9-1.9.92-5.27,1.46-10.11,1.61-7.42.27-12.9-1.08-16.44-4.07-3.54-2.99-5.3-9.05-5.3-18.19-.04-1.95.05-4.31.26-7.06.21-2.75.32-4.42.32-5.01l-.12-2.81v-2.52c-.08-1.09-.24-2.18-.5-3.25-.26-1.07-.52-1.85-.79-2.31l-1.17-1.41c-.35-.39-.48-.89-.38-1.49.1-.6,1.03-.63,2.78-.09.35.16,1.62.51,3.81,1.05,2.19.55,4.17,1.16,5.95,1.85,1.78.68,2.73,1.21,2.87,1.58.14.37-.09,1.26-.67,2.67-.23.47-.49,1.31-.76,2.52l-.53,2.05c-.31,1.21-.57,3.05-.76,5.51l-.64,6.74c-.35,4.3.18,7.56,1.58,9.79Z"/><path class="cls-2" d="M185.72,164.49c.43-10.47.7-17.5.82-21.09l.18-6.45c-9.22,1.02-15.12,1.95-17.7,2.81l-7.62,2.34-10.31-11.19c2.97-2.93,5.12-5.67,6.45-8.23,1.33-2.56,2.17-5.2,2.52-7.94.2-1.99.06-4.03-.41-6.12-.47-2.09-.55-3.3-.23-3.63.31-.33,1.37-.19,3.16.44,1.52.59,3.48,1.45,5.86,2.58,2.38,1.13,4.17,1.96,5.36,2.49,1.19.53,1.85,1.07,1.96,1.64.12.57-.12,1.44-.7,2.61l-2.81,5.98-3.98,7.44c2.5-.19,5.5-.44,8.99-.73,3.5-.29,6.73-.56,9.7-.79-.04-.74-.04-1.31,0-1.7l.18-19.1c-.04-1.48-.16-4.23-.35-8.23-.2-4-.47-6.63-.82-7.88-.35-1.25-1-2.93-1.93-5.04s-1.78-3.66-2.52-4.66c-.74-1-1.06-1.63-.97-1.9.1-.27,1.06-.29,2.9-.06,3.44.51,7.29,1.52,11.54,3.05l6.56,2.7c1.48.63,2.3,1.15,2.46,1.58.16.43-.12,1.43-.82,2.99-.59,1.25-1,3.07-1.23,5.45l-1.76,14.06-1.58,17.75c2.7-.19,4.73-.35,6.09-.47l10.37-.59,1.58-.12c.16-.74.28-1.43.38-2.05.1-.62.22-2.39.38-5.3.16-2.91.23-4.58.23-5.01-.04-1.91-.26-3.71-.67-5.39-.41-1.68-.49-2.7-.23-3.05.25-.35,1.2-.25,2.84.29,1.17.43,2.93,1.34,5.27,2.72,2.34,1.39,4.49,2.72,6.45,3.98,1.95,1.27,2.97,2.14,3.05,2.61.08.47-.02,1.07-.29,1.82-.31.74-.62,1.52-.94,2.34l-2.99,6.91c-1.95,4.65-3.41,8.01-4.37,10.08-.96,2.07-2.38,3.82-4.28,5.24-1.9,1.43-3.39,1.73-4.48.91-.9-.62-1.29-1.48-1.17-2.58v-2.99c-9.02.43-14.96.72-17.81.88-.43,7.77-.67,12.42-.7,13.94l-.64,13.77c6.72-.47,10.74-.82,12.07-1.05l10.66-1.64c.12-1.44.17-2.42.15-2.93-.02-.51-.2-2.29-.53-5.36-.33-3.07-.81-5.29-1.44-6.68-.62-1.39-.85-2.26-.67-2.61s1.4-.21,3.66.41c1.41.43,4.06,1.51,7.97,3.25,3.91,1.74,6.29,2.9,7.15,3.49.86.59,1.36,1.05,1.49,1.38.14.33,0,1.01-.38,2.02-.31.78-.77,2.45-1.38,5.01-.61,2.56-1.74,6.25-3.4,11.07-1.66,4.82-3.29,7.95-4.89,9.38-1.6,1.43-3.13,1.85-4.57,1.26-.78-.27-1.45-.9-1.99-1.88-.55-.98-.88-2.17-1-3.57l-.41-3.69c-.82.04-2.19.07-4.1.09-1.91.02-5.62.29-11.1.82-5.49.53-12.43,1.36-20.83,2.49-8.4,1.13-17.03,3.4-25.9,6.8l-8.85-12.95c1.09-1.13,2.4-2.63,3.93-4.48,1.52-1.85,2.76-4.58,3.72-8.17.96-3.59,1.17-6.41.64-8.44-.53-2.03-.65-3.19-.38-3.49.27-.29,1.37-.05,3.28.73,1.91.78,3.67,1.67,5.27,2.67,1.6,1,4.24,2.8,7.91,5.42-2.38,4.1-4.86,8.5-7.44,13.18,11.41-.98,18.2-1.52,20.39-1.64Z"/></svg>