<?xml version="1.0" encoding="UTF-8"?><svg id="_图层_1" xmlns="http://www.w3.org/2000/svg" viewBox="0 0 256 256"><defs><style>.cls-1{fill:#da1414;fill-rule:evenodd;}.cls-1,.cls-2{stroke-width:0px;}.cls-2{fill:#fff;}</style></defs><path class="cls-1" d="M52.36,0h151.27c28.92,0,52.36,22.82,52.36,50.97v154.07c0,28.15-23.44,50.97-52.36,50.97H52.36c-28.92,0-52.36-22.82-52.36-50.97V50.97C0,22.82,23.44,0,52.36,0Z"/><path class="cls-2" d="M31.81,116.08c-2.5.74-3.93,1.23-4.28,1.46l-5.16,2.93-4.57-16.93c2.15.55,3.96.91,5.42,1.08s3.93.14,7.38-.12c3.46-.25,6.37-.65,8.73-1.2,2.36-.55,5.01-1.38,7.94-2.49s4.77-2,5.51-2.67l2.64-2.11,3.93,17.58c-7.38-.59-11.25-.86-11.6-.82l-3.16.53c-.98,2.03-1.7,3.56-2.17,4.57l-3.93,8.55-2.99,5.98,11.02-3.75.76-4.57,13.42,8.55c-.98,2.46-1.66,4.3-2.05,5.51l-3.16,10.61-2.99,9.43c-1.02,2.58-2.03,3.82-3.05,3.72-1.02-.1-2.05-.67-3.11-1.73l-1.88-1.82-6.33,1.29c-.74.7-1.36,1.42-1.85,2.14-.49.72-1.12,1.24-1.9,1.55-.78.31-1.76-.77-2.93-3.25-1.17-2.48-2.19-5.63-3.05-9.46l-1.46-6.04c-4.88,4.26-9.08,7.11-12.6,8.55l-2.4,1c-.43.2-.75.07-.97-.38-.22-.45-.23-.83-.03-1.14l2.17-3.05c4.45-6.29,7.87-11.36,10.25-15.21,2.38-3.85,5.19-9.95,8.44-18.31ZM37.9,151.64l7.03-1.29,1.29-13.3-9.49,2.93,1.17,11.66ZM78.8,105.53l-.64-9.32c-.27-3.75-.95-6.78-2.02-9.08-1.08-2.3-2.15-4-3.22-5.1-1.08-1.09-1.52-1.8-1.35-2.11.18-.31.59-.55,1.26-.7.51-.08,1.52,0,3.05.23l5.1.41c.78.12,2.7.45,5.77,1,3.07.55,4.67,1,4.8,1.35.14.35-.03,1.19-.5,2.52-.27.66-.49,1.62-.64,2.87l-.59,3.93-.7,5.1-.41,6.27,8.14-2.52,1.35-3.81,14.41,11.13-15.76,14.24c-1.6,1.45-2.62,2.18-3.05,2.2-.43.02-.72-.12-.88-.41-.16-.29-.18-.75-.06-1.38l.82-4.39.94-3.69,1-4.8-6.74,2.17-.64,16.58,8.32-1.76,2.46-4.69,13.01,10.25c-6.17,8.98-11.64,17.01-16.41,24.08,3.44,2.77,6.65,5.08,9.64,6.91,2.99,1.84,5.44,3.19,7.35,4.07,1.91.88,3.83,1.71,5.74,2.49,1.91.78,3.37,1.41,4.37,1.88s1.48.96,1.46,1.46c-.02.51-.34.88-.97,1.11l-3.69,1.35c-1.41.51-4.52,1.21-9.35,2.11-4.83.9-7.67,1.11-8.52.64-.7-.31-1.64-1.46-2.81-3.43s-4.16-5.62-8.96-10.93c-4.42,4.45-9.34,8.09-14.77,10.9-5.43,2.81-11.13,4.71-17.11,5.68l-3.46.59c-.78.16-1.26-.03-1.44-.56s.07-.95.73-1.26l2.64-1.17c1.05-.47,3.08-1.59,6.09-3.37,3.01-1.78,6.16-3.95,9.46-6.5,3.3-2.56,5.98-5.26,8.06-8.12l2.87-3.81c-1.21-1.37-2.45-2.65-3.72-3.84-1.27-1.19-3.92-2.68-7.94-4.48-.55,1.64-1.17,3.42-1.88,5.33-.7,1.92-2.12,4.74-4.25,8.47-2.13,3.73-4.29,6.72-6.47,8.96-2.19,2.25-4.55,4.31-7.09,6.18-2.54,1.88-4.32,3.07-5.33,3.57l-2.17,1.11c-.7.39-1.23.41-1.58.06s-.29-.78.18-1.29l1.82-1.93,3.05-3.22c2.5-2.77,4.9-6.18,7.21-10.22,2.3-4.04,4.19-9.24,5.65-15.59,1.46-6.35,2.39-12.24,2.78-17.67.39-5.43.55-11,.47-16.7-.08-2.46-.21-4.41-.41-5.86l-.35-1.99c-.2-.94-.53-1.84-1-2.7-.47-.86-.62-1.4-.47-1.61.15-.21.59-.32,1.29-.32.62.04,1.78.49,3.46,1.35l3.57,1.46,4.28,1.88,4.75-1.58ZM76.37,144.32c1.27-.39,2.16-.57,2.67-.53.31.08,1.5.84,3.57,2.29l4.57,3.57c3.16-5.86,4.96-9.34,5.39-10.43l1.64-4.16c-7.07,2.27-11.07,3.77-12.01,4.51l-3.05,2.23-5.92-7.56c-.43,3.32-.7,5.33-.82,6.04l-.94,5.1c1.99-.31,3.62-.66,4.89-1.05ZM79.91,129.61l-.53-14.77-4.92,2.11c-.31,3.28-.47,5.2-.47,5.74l-.47,7.32c2.23-.08,4.36-.21,6.39-.41Z"/><path class="cls-2" d="M142.58,114.03c-1.43.94-2.9,1.65-4.42,2.14-1.52.49-2.36.53-2.52.12-.16-.41.33-1.24,1.46-2.49l1.76-1.93c.55-.59,1.56-1.88,3.05-3.87l5.8-7.68c2.93-4.22,4.89-7.66,5.89-10.31,1-2.66,1.7-4.81,2.11-6.47.41-1.66.68-3.11.82-4.37.14-1.25.35-1.97.64-2.17.29-.19,1.16.1,2.61.88l4.28,2.11c.78.43,1.91,1.14,3.4,2.14,1.48,1,2.56,1.78,3.22,2.34.66.57,1.03,1.09,1.11,1.58.08.49-.39,1.24-1.41,2.26l-1.99,1.99-1.58,1.58c2.81-.39,5.53-.78,8.14-1.17l2.34-3.81,11.37,8.2c-1.56,1.29-2.72,2.25-3.46,2.87l-7.5,7.56-6.97,6.68,9.08-1.58.41-4.69,13.01,6.33c-1.76,4.84-2.87,8.58-3.34,11.22s-.72,6.34-.76,11.1l-.12,10.02c1.48-2.62,2.5-4.61,3.05-5.98.55-1.37,1.05-3.03,1.52-4.98.47-1.95.7-3.5.7-4.63l-.53-4.34c-.04-.47,0-.82.15-1.05.14-.23.77-.27,1.9-.12l5.04.59c2.97.39,4.73,1.05,5.27,1.99.2.39-.23,1.58-1.29,3.57l-1.7,2.99c2.5-.08,4.82-.23,6.97-.47-.12-1.72-.27-3.11-.47-4.19-.2-1.07-.73-2.46-1.61-4.16s-1.24-2.67-1.08-2.9c.16-.23.78-.29,1.88-.18,2.07.27,4.08.78,6.04,1.52,1.95.74,3.75,1.29,5.39,1.64s2.47.69,2.49,1.03c.02.33-.11.91-.38,1.73l-.41,2.34-.35,1.99c3.52-.94,6.89-2.05,10.14-3.34l.59,12.07c-3.16-.55-5.04-.82-5.62-.82h-6.33l-.18,6.68c6.99-.82,11.09-1.52,12.3-2.11l4.98-2.11,1.05,13.59c-7.77-.7-11.95-1.03-12.54-1l-6.09.47c-.23,3.98-.46,7.64-.67,10.96-.21,3.32-.54,6.32-.97,8.99-.43,2.68-1.13,5.17-2.11,7.47-.98,2.3-1.84,3.47-2.58,3.49-.74.02-1.55-1.01-2.43-3.08s-1.47-5.42-1.79-10.05c-.31-4.63-.39-7.63-.23-8.99l.64-8.5c-7.23,1.56-11.92,2.87-14.06,3.93l-3.4,1.64-.88-13.12c2.11.35,4.18.62,6.21.79,2.03.18,6.27-.13,12.71-.91l.12-7.15c-5.08,1.02-7.85,1.68-8.32,1.99l-2.75,1.58-.41-2.58c-1.56,1.02-2.73,1.74-3.52,2.17l-4.34,2.29-1.99,1.29c-.2,1.09-.39,2.52-.59,4.28-.2,1.76-.06,4.94.41,9.55.31,3.2.54,5.86.67,7.97.14,2.11.38,4.16.73,6.15s.52,3.5.5,4.51c-.02,1.02-.25,1.63-.7,1.85-.45.21-1.32.03-2.61-.56-2.93-1.29-4.52-2-4.78-2.14-.25-.14-1.78-1.05-4.57-2.75-2.79-1.7-4.29-2.65-4.48-2.84l-2.99-2.58c-2.27,6.41-3.73,9.65-4.39,9.73-.67.08-1.39-.39-2.17-1.41-.86-1.05-1.47-2.78-1.85-5.19-.37-2.4-.6-4.27-.67-5.6-.23-2.7-.23-5.33,0-7.91l.53-7.21-4.63.64c-.7,1.88-1.38,3.57-2.02,5.07-.64,1.5-2.42,4.79-5.33,9.84-2.91,5.06-6.69,8.51-11.34,10.34l-3.57,1.41c-.78.31-1.38.31-1.79,0s-.28-.92.38-1.82l1.99-2.58c.78-1.02,2.08-2.88,3.9-5.6,1.82-2.71,3.31-5.36,4.48-7.94s2.23-5.72,3.16-9.43c.94-3.71,1.66-7.83,2.17-12.36.51-4.53.7-9.14.59-13.83-.16-4.65-.51-8.05-1.05-10.2l-1.29-5.27c-2.07,1.21-3.82,2.29-5.24,3.22ZM150.52,109.1c2.81,1.99,5.59,3.83,8.32,5.51l3.75-.82,8.79-13.59-11.66,1.35-9.2,7.56ZM158.72,145.08c1.25-.08,2.54-.27,3.87-.59l.23-6.56-3.87.41-.23,6.74ZM159.25,130.61l3.93-.35.41-8.73-4.16.82-.18,8.26ZM172.55,119.94l-.23,9.32c1.72-.62,3.42-1.48,5.1-2.58l.41,11.48c-1.45-.55-2.31-.82-2.58-.82h-2.93l-.18,5.74c1.8-.51,3.55-1.03,5.27-1.58l.23,10.66c-1.84-.31-3.71-.47-5.62-.47-.04,4.14-.08,6.62-.12,7.44l-.41,6.91c1.52,0,2.97.03,4.34.09,1.37.06,2.3-.17,2.81-.67.31-.31.45-1.06.41-2.26-.04-1.19.09-3.07.38-5.62.29-2.56.42-6.4.38-11.51l-.41-18.63-.18-8.85-6.68,1.35ZM193.47,101.95l-1.23-15.64c5.82.9,10.68,1.31,14.59,1.23l10.25-.47c2.81-.04,4.59-.42,5.33-1.14.74-.72,1.21-1.59,1.41-2.61l.53-2.52,13.59,10.84c-1.29,2.03-2.49,4.04-3.6,6.04s-2.13,4.2-3.05,6.62c-.92,2.42-1.95,5.35-3.11,8.79-1.15,3.44-1.86,5.89-2.11,7.35-.25,1.46-.69,2.36-1.32,2.7-.62.33-2.54-.6-5.74-2.78l-5.39-3.57-4.1-3.16-3.16-2.34c-2.07,1.72-4.05,3.49-5.95,5.3-1.9,1.82-3.29,3.02-4.19,3.6l-2.93,1.93c-.55.39-.95.48-1.2.26-.25-.21-.24-.62.03-1.2l1.17-2.4c.35-.74,1.59-2.91,3.72-6.5,2.13-3.59,3.74-6.95,4.83-10.08l1.7-4.69c-3.4,1.29-6.76,2.77-10.08,4.45ZM214.09,95.86c.9.23,1.5.53,1.82.88.31.35.46.82.44,1.41-.02.59-.93,1.72-2.72,3.4l-3.16,4.39-2.58,3.4c4.18.16,6.74.2,7.68.12.94-.08,1.78-.33,2.52-.76.74-.43,1.39-1.82,1.93-4.16l1-4.92,1-4.57-7.91.82Z"/></svg>