<?xml version="1.0" encoding="UTF-8"?><svg id="_图层_1" xmlns="http://www.w3.org/2000/svg" viewBox="0 0 256 256"><defs><style>.cls-1{fill:#6f59df;fill-rule:evenodd;}.cls-1,.cls-2{stroke-width:0px;}.cls-2{fill:#fff;}</style></defs><path class="cls-1" d="M52.36,0h151.27c28.92,0,52.36,22.82,52.36,50.97v154.07c0,28.15-23.44,50.97-52.36,50.97H52.36c-28.92,0-52.36-22.82-52.36-50.97V50.97C0,22.82,23.44,0,52.36,0Z"/><path class="cls-2" d="M69.85,114.21c8.4-1.44,15.06-2.8,19.98-4.07,4.92-1.27,8.07-2.24,9.43-2.9l4.98-2.17,2.58,18.52c-4.73-.47-8.7-.77-11.92-.91-3.22-.14-8.72.03-16.49.5,3.71,1.48,6.47,2.67,8.29,3.54s2.73,1.53,2.75,1.96c.02.43-.34,1.11-1.08,2.05-.82,1.05-1.63,2.54-2.43,4.45-.8,1.91-1.48,3.85-2.05,5.8-.57,1.95-1.04,4.3-1.41,7.03-.37,2.73-.54,5.29-.5,7.68,0,2.66.44,4.8,1.32,6.45s2.08,2.75,3.6,3.34,4.12.72,7.79.41c4.22-.31,6.94-.86,8.17-1.64s2.2-1.88,2.9-3.28,1.22-3.78,1.55-7.12.46-5.93.38-7.76l-.18-3.05c-.08-.82.1-1.3.53-1.44.43-.14.9.24,1.41,1.14l.82,1.52c.66,1.29,1.68,3.37,3.05,6.24s2.92,6.07,4.66,9.61,2.86,5.93,3.37,7.18l1.05,2.87c-1.45,1.01-3.06,2.05-4.83,3.11s-4.9,1.94-9.38,2.67c-4.47.72-8.7,1.08-12.69,1.08-9.1.04-15.08-1.3-17.93-4.01-2.85-2.72-4.52-5.49-5.01-8.32-.49-2.83-.71-6.01-.67-9.52.04-5.35.18-10.65.41-15.91.23-5.25.35-8.17.35-8.76-.04-1.84-.1-3.26-.18-4.28l-.23-2.4c-1.21.23-2.52.39-3.93.47-.98,4.34-1.82,7.68-2.52,10.02s-2.22,6.33-4.54,11.95-5.75,10.66-10.28,15.12-8.83,7.82-12.89,10.11c-4.06,2.29-7.74,4.23-11.04,5.83-3.3,1.6-5.58,2.6-6.83,2.99l-2.99,1c-.59.19-.97.04-1.14-.47-.18-.51,0-1,.56-1.46l1.52-1.23c.35-.27,1.41-.98,3.16-2.11,1.76-1.13,4.43-3.19,8.03-6.18,3.59-2.99,6.85-6.02,9.76-9.08,2.91-3.07,5.85-7,8.82-11.81,2.97-4.8,4.77-8.77,5.39-11.89l2.46-10.49c-6.41,1.72-10.74,3.05-13.01,3.98l-9.49,3.75-3.4-17.99c9.02.66,18.14.53,27.36-.41.2-3.32.31-5.31.35-5.98l.23-6.5c-4.88,1.41-10.06,3.2-15.53,5.39l-2.99-19.22c8.94,1.13,15.05,1.63,18.31,1.49,3.26-.14,6.78-.5,10.55-1.08s7.44-1.44,11.02-2.55,7.86-3.23,12.86-6.36l4.22,17.4c-10.98.47-17.7,1-20.16,1.58l-5.21,1.17c-.35,3.79-.7,8.11-1.05,12.95Z"/><path class="cls-2" d="M186.8,127.34c-1.72,4.26-3.03,7.7-3.93,10.31l-2.34,6.68-2.64,7.32c-1.05,3.12-1.88,4.77-2.46,4.92s-1.21.04-1.88-.35c-.04,0-1.25-.9-3.63-2.7l-6.56,1.76c-.51.82-1.03,1.66-1.55,2.52s-1.06,1.34-1.61,1.44c-.55.1-1.25-.24-2.11-1.03-.86-.78-1.52-1.84-1.99-3.16s-1.04-3.39-1.7-6.18c-.67-2.79-1.46-5.81-2.4-9.05-1.45,1.64-2.8,3.1-4.07,4.37-1.27,1.27-3.03,2.7-5.27,4.28-2.25,1.58-4.07,2.72-5.48,3.43l-3.81,1.99c-.62.35-1.09.36-1.41.03-.31-.33-.29-.73.06-1.2l3.28-3.81c2.7-3.12,5.41-6.92,8.14-11.4,2.73-4.47,5.08-8.55,7.03-12.25,1.95-3.69,4.14-8.56,6.56-14.62-2.07.59-3.22.94-3.46,1.05l-5.74,2.81-3.93-15.76c4.26.43,8.59.42,13.01-.03,4.41-.45,8.27-1.09,11.57-1.93,3.3-.84,7.41-2.51,12.33-5.01l3.05,15.41c-4.22-.16-7.15-.21-8.79-.15s-4,.3-7.09.73c-.74,1.88-1.52,3.92-2.34,6.12-.82,2.21-1.42,3.77-1.79,4.69-.37.92-1.61,3.64-3.72,8.17l10.02-2.75c1.29-.35,2.11-1.07,2.46-2.17l.82-2.58,13.36,8.09ZM161.2,135.84l1.64,10.49,6.97-1.35,1.58-12.13-10.2,2.99ZM182.35,143.39c1.6-.12,3.66-.26,6.18-.44s5.26-.43,8.23-.76c2.97-.33,6.2-1.1,9.7-2.31,3.5-1.21,7.29-2.87,11.4-4.98l3.34,13.83c-8.55.59-15.26,1.72-20.13,3.4s-9.42,3.65-13.68,5.92l-5.04-14.65ZM183.58,85.56c6.13.7,10.98,1,14.53.88,2.5-.04,5.85-.31,10.05-.82,4.2-.51,6.62-1.05,7.27-1.64s1.06-1.29,1.26-2.11l.59-2.81,15.53,11.13c-1.88,3.56-3.16,6.19-3.87,7.91-.7,1.72-1.9,4.84-3.6,9.38-1.7,4.53-2.61,6.99-2.72,7.38l-1.58,4.8c1.37-.35,2.72-.67,4.07-.97s2.28-.63,2.78-1.03c.51-.39.94-1.44,1.29-3.16l14.82,10.25c-1.33,3.4-2.29,5.94-2.87,7.62l-3.98,11.54c-1.52,4.34-3.43,9.46-5.71,15.38s-3.86,10.09-4.72,12.51c-.86,2.42-1.84,4.61-2.93,6.56-1.09,1.95-1.78,3.23-2.05,3.84-.27.6-.57.97-.88,1.08-.31.12-.94.03-1.88-.26s-3.1-1.22-6.47-2.78c-3.38-1.56-6.93-3.54-10.66-5.95-3.73-2.4-6.55-4.53-8.47-6.39-1.91-1.86-2.81-2.91-2.7-3.16s.88-.32,2.29-.21c5.86.55,9.88.82,12.07.82h6.27c1.64.08,2.95-.15,3.93-.67.98-.53,2.24-3,3.78-7.41,1.54-4.41,2.9-8.76,4.07-13.04s1.95-7.53,2.34-9.76l1.11-6.15c-15.67,2.97-25.61,5.33-29.82,7.09l-5.62,2.23-3.98-11.48c1.99-1.84,3.69-4.11,5.1-6.83,1.41-2.71,2.13-5.98,2.17-9.79.04-3.81-.14-6.32-.53-7.53l-.88-2.75-5.39,2.75-3.98-16.46ZM195.3,98.69c4.14.74,7.27,1.51,9.38,2.31,2.11.8,3.2,1.33,3.28,1.58.08.25.02.67-.18,1.26-.12.31-.35,1.05-.7,2.23l-1.82,5.45-2.23,7.03-1.99,5.04,8.73-1.99c.51-2.93,1.05-5.9,1.64-8.91.59-3.01,1.03-5.31,1.32-6.91.29-1.6.89-5.55,1.79-11.84-2.31.59-4.02.98-5.16,1.17l-4.51.82c-2.15.47-5.33,1.39-9.55,2.75Z"/></svg>