<?xml version="1.0" encoding="UTF-8"?><svg id="_图层_1" xmlns="http://www.w3.org/2000/svg" viewBox="0 0 256 256"><defs><style>.cls-1{fill:#3dbf52;fill-rule:evenodd;}.cls-1,.cls-2{stroke-width:0px;}.cls-2{fill:#fff;}</style></defs><path class="cls-1" d="M52.36,0h151.27c28.92,0,52.36,22.82,52.36,50.97v154.07c0,28.15-23.44,50.97-52.36,50.97H52.36c-28.92,0-52.36-22.82-52.36-50.97V50.97C0,22.82,23.44,0,52.36,0Z"/><path class="cls-2" d="M55.31,126.93l-4.16-12.66c4.18-.08,9.04-.57,14.59-1.46,5.54-.9,8.84-1.72,9.87-2.46,1.03-.74,1.59-1.21,1.67-1.41l1.11-2.4,10.31,11.89c-2.54,1.52-4.42,2.68-5.62,3.46l-7.79,5.33-4.04,2.46,5.57.23c1.48.08,2.26.31,2.31.7.06.39-.58,1.6-1.9,3.63,17.03-3.36,27.73-6,32.11-7.91l5.74-2.4,4.04,17.23c-10.51-.04-18.55.12-24.14.47l-12.66,1-5.57.41c.23,2.5.44,4.95.62,7.35.18,2.4.21,6.05.09,10.93-.12,2.89-.27,5.79-.47,8.7-.2,2.91-.43,5-.7,6.27-.27,1.27-.77,3.07-1.49,5.39-.72,2.32-1.29,3.58-1.7,3.78s-1.26-.02-2.55-.64c-5.9-2.7-10.17-4.97-12.8-6.83s-4.95-3.68-6.94-5.48c-1.99-1.8-3.5-3.1-4.51-3.9-1.02-.8-1.04-1.42-.06-1.85.19-.08.6-.04,1.23.12.62.16,3.47.27,8.53.35,5.06.08,8-.19,8.82-.82.82-.62,1.41-3.18,1.76-7.68.35-4.49.43-7.91.23-10.25l-.29-3.98c-8.36,1.68-16,3.54-22.91,5.6-6.91,2.05-13.57,4.54-19.98,7.47l-5.92-17.81c8.67.27,16.41.1,23.2-.53,6.8-.62,14.77-1.76,23.91-3.4-1.05-1.88-2.19-3.73-3.4-5.57,1.6-1.37,2.48-2.15,2.64-2.34l5.74-6.91c-5.71,1.45-10.53,3.42-14.47,5.92ZM48.51,100.21c-.23,5.82-.82,10.23-1.76,13.24-.94,3.01-1.84,5.37-2.7,7.09-.86,1.72-1.7,2.94-2.52,3.66-.82.72-1.46,1.05-1.93.97-.39,0-1.19-.6-2.4-1.82-1.21-1.21-2.26-2.41-3.13-3.6-.88-1.19-1.96-2.86-3.25-5.01-1.29-2.15-2.09-3.73-2.4-4.75-.31-1.02-.38-1.63-.21-1.85.18-.21.91-.15,2.2.21,2.15.66,3.93.88,5.33.64.98-.12,2.52-.98,4.63-2.58,2.11-1.6,3.76-3.57,4.95-5.92,1.19-2.34,2.03-3.27,2.52-2.78.49.49.71,1.32.67,2.49ZM70.13,96.7c-1.91-3.71-4.06-7.52-6.45-11.43l-3.34-5.27c-.43-.62-.6-1.13-.5-1.52.1-.39,1-.39,2.72,0l4.1,1c.47.16,1.84.7,4.1,1.64l4.8,1.93c2.97,1.37,4.59,2.34,4.86,2.93.27.59.31,1.25.12,1.99-.16.43-.42,1.05-.79,1.85-.37.8-1.2,2.82-2.49,6.06,9.14-1.41,14.6-2.37,16.38-2.9,1.78-.53,2.84-.97,3.19-1.32s.78-1.05,1.29-2.11l1.23-2.58,15.06,14c-2.7,1.41-5.42,2.85-8.17,4.34-2.75,1.48-6.91,3.61-12.45,6.39l-4.34,2.17c-.94.47-1.52.56-1.73.26-.21-.29-.11-.85.32-1.67l1.58-2.99,2.4-4.51,1.88-4.16c-9.46,1.56-16.88,3.13-22.29,4.69-5.41,1.56-11.42,3.5-18.02,5.8l-3.22-14.24c3.12.43,5.46.65,7,.67,1.54.02,5.79-.32,12.74-1.03Z"/><path class="cls-2" d="M150.64,148.26l-5.92-16.35c11.05.78,17.92,1.18,20.6,1.2,2.67.02,5.52-.17,8.53-.56l1.99-4.34c-.98.2-1.93.5-2.87.91s-1.5.58-1.7.5c-.55-.12-1.43-2.51-2.64-7.18-1.21-4.67-2.36-8.37-3.46-11.1-1.09-2.73-2.1-4.75-3.02-6.04-.92-1.29-1.3-2.07-1.14-2.34.16-.27.94-.41,2.34-.41,1.02.04,2.54.14,4.57.29,2.03.16,4.34.14,6.91-.06-.31-1.33-.51-2.13-.59-2.4l-1-2.7c-1.52.35-3.39.77-5.6,1.26-2.21.49-3.51.79-3.9.91l-4.75,1.7-4.63-13.77c5.78,1.05,11.48,1.58,17.11,1.58-.82-1.64-1.51-3.11-2.08-4.42-.57-1.31-1.22-2.49-1.96-3.54-.74-1.05-1-1.82-.76-2.29s1.02-.68,2.34-.64l4.16.18c.74.04,2.19.25,4.34.64l4.34.76c1.48.31,2.31.67,2.49,1.08s.07,1.16-.32,2.26c-.51,1.29-.8,2.27-.88,2.93l-.53,2.81c4.1-.35,8.16-.84,12.19-1.46.08-.9.11-1.73.09-2.49-.02-.76-.18-1.65-.47-2.67-.29-1.02-.76-2-1.41-2.96-.64-.96-.88-1.69-.7-2.2.18-.51,1.1-.66,2.78-.47l4.75.59c.39.08,1.46.29,3.22.64s3.15.68,4.19,1c1.03.31,1.67.74,1.9,1.29.16.51-.18,1.45-1,2.81l-1.76,2.93c2.11-.27,3.96-.58,5.57-.91,1.6-.33,4.55-1.34,8.85-3.02l3.4,13.59c-3.09-.86-6.17-1.44-9.26-1.76-3.09-.31-6.74-.37-10.96-.18-1.09,1.52-1.7,2.44-1.82,2.75l-1.46,2.99,4.28-.59,1.41-3.75,14.41,9.49c-1.45,1.64-2.55,2.95-3.31,3.93-.76.98-1.94,2.66-3.54,5.04-1.6,2.38-3.16,4.7-4.69,6.94-1.52,2.25-3.24,4.14-5.16,5.68-1.91,1.54-3.2,1.87-3.87.97l-2.17-1.99-9.9,1.17-2.4,4.34c10.35-1.41,18.17-2.56,23.47-3.46,5.29-.9,10.83-2.85,16.61-5.86l4.8,16.46c-2.15-.23-4.07-.42-5.77-.56-1.7-.14-7.14-.32-16.32-.56,5.43,3.05,9.47,5.13,12.13,6.24,2.66,1.11,6.51,2.43,11.57,3.96,5.06,1.52,8.69,2.46,10.9,2.81,2.21.35,3.34.77,3.4,1.26.06.49-.6,1.24-1.96,2.26-1.17.86-4.23,2.55-9.17,5.07-4.94,2.52-7.76,3.74-8.47,3.66-.78-.04-1.72-.47-2.81-1.29-1.09-.82-2.71-2.18-4.83-4.07-2.13-1.89-4.39-3.8-6.77-5.71-.47,1.45-.78,2.58-.94,3.4-.16.82-.32,2.54-.5,5.16-.18,2.62-.34,5.01-.5,7.18-.16,2.17-.27,4.03-.35,5.6-.08,1.56-.41,2.65-1,3.25s-2.83-.3-6.74-2.72c-3.91-2.42-7.5-4.71-10.78-6.86.23,1.91.38,3.49.44,4.72s-.03,3-.26,5.3c-.31,2.66-.67,4.59-1.08,5.8s-.99,2.53-1.73,3.96c-.74,1.43-1.33,2.15-1.76,2.17-.43.02-.94-.38-1.52-1.2-.74-.9-1.37-2.39-1.88-4.48-.51-2.09-.87-3.78-1.08-5.07-.21-1.29-.26-2.91-.15-4.86l.41-5.16c.04-.86.1-2.73.18-5.62l.12-6.62c-2.19.59-4.67,1.02-7.44,1.29,0,1.84.05,3.79.15,5.86.1,2.07.16,3.22.18,3.46.02.23-.08,1.87-.29,4.89-.21,3.03-.59,4.68-1.11,4.95s-1.65-.43-3.37-2.11l-3.93-3.75c-1.56-1.41-2.37-2.38-2.43-2.93-.06-.55.22-1.52.85-2.93.31-.74.64-1.8,1-3.16.35-1.37.45-2.4.29-3.11l-.59-2.99c-3.79,2.42-7.15,4.23-10.08,5.42-2.93,1.19-6,2.28-9.2,3.25-3.2.98-5.62,1.5-7.27,1.58l-3.16.18c-1.21.08-1.86-.1-1.93-.53-.08-.43.43-.92,1.52-1.46l2.4-1.11c3.59-1.64,7.25-3.59,10.96-5.86,3.71-2.26,6.66-4.2,8.85-5.8,2.19-1.6,5.21-4.2,9.08-7.79-2.89.7-4.9,1.24-6.04,1.61-1.13.37-4.88,1.81-11.25,4.31ZM174.96,146.91l1.41,1.76,7.09-.76c0-2.81-.14-4.61-.41-5.39l-.88-2.7-1.7.59c-1.76,2.34-3.59,4.51-5.51,6.5ZM202.85,108.94l1.05-3.46-28.77,3.46.82,3.16,26.89-3.16ZM177.3,121.42l22.21-2.81,1.76-3.93-24.49,2.75.53,3.98ZM181.4,101.79l11.66-1.58c.39-1.56.61-2.54.64-2.93l.29-2.34c-3.87.39-7.75.92-11.66,1.58-.27,1.76-.59,3.52-.94,5.27ZM199.27,146.09l.82-3.57,6.5,2.81c-3.83-3.4-6.04-5.29-6.62-5.68l-3.4-2.17c-3.59.27-7.21.59-10.84.94,1.95.43,3.89.9,5.8,1.41,1.91.51,2.87,1.17,2.87,1.99l-.64,1.64-1.11,3.46,6.62-.82ZM191.77,162.73c4.61.27,7.25.08,7.91-.59.74-.74,1.02-2.07.82-3.98l-.41-4.75c-2.46.16-5.08.33-7.85.53l-.47,8.79Z"/></svg>