<?xml version="1.0" encoding="UTF-8"?><svg id="_图层_1" xmlns="http://www.w3.org/2000/svg" viewBox="0 0 256 256"><defs><style>.cls-1{fill:#0092ff;}.cls-1,.cls-2{stroke-width:0px;}.cls-2{fill:none;fill-rule:evenodd;}</style></defs><path class="cls-2" d="M52.36,0h151.27c28.92,0,52.36,22.82,52.36,50.97v154.07c0,28.15-23.44,50.97-52.36,50.97H52.36c-28.92,0-52.36-22.82-52.36-50.97V50.97C0,22.82,23.44,0,52.36,0Z"/><path class="cls-1" d="M25.16,229.68c-.96,0-1.93-.18-2.84-.53l-14.6-5.64c-.36-.14-.7-.3-1.03-.49-5.06-2.85-6.06-9.1-6.22-20.39-.01-.94.14-1.88.46-2.76L60.95,31.57c.81-2.26,2.6-4.03,4.86-4.81.84-.29,1.71-.43,2.57-.43,1.48,0,2.94.41,4.22,1.22,13.45,8.51,16.16,18.87,15.89,26.42.4,2.47.36,4.4-.12,6.16-.07.27-.16.54-.26.8l-37.53,96.52-17.81,66.37c-.58,2.16-2.05,3.98-4.05,5-1.12.57-2.35.86-3.58.86Z"/><path class="cls-1" d="M122.63,225.44c-1.38,0-2.77-.03-4.17-.08-.09,0-.17,0-.26-.01-19.52-1.42-33.31-7.19-41-17.14-6.42-8.31-8.45-19.15-6.03-32.22.04-.22.09-.44.15-.66,4.37-15.89,18.01-33.43,41.7-53.61.1-.08.2-.16.3-.24,1.86-1.44,3.39-2.67,4.65-3.72l-2.48-3.8c-.16-.24-.3-.5-.44-.76-3.33-6.58-3.43-15.22-.32-26.42.02-.07.04-.15.07-.22,7.85-25.31,24.24-42.5,48.7-51.1.13-.05.27-.09.41-.13,5.93-1.73,11.48-2.61,16.49-2.61,1.09,0,2.18.04,3.24.12,14.05,1.1,24.48,8.89,30.18,22.55.43.9.81,1.64,1.15,2.24.29-.21.61-.45.95-.71,5.79-5.06,15.63-9.03,30.08-12.12.55-.12,1.1-.18,1.65-.18,2.38,0,4.67,1.08,6.19,2.99,1.87,2.35,2.23,5.56.95,8.28-6.12,12.95-16.8,23.61-31.75,31.68-1.81,1.3-5.89,3.84-17.85,10.38-16.74,9.63-27.03,16.03-33.34,20.28,8.98,7.19,15.89,13.79,21,20.02,9.89,9.49,13.04,21.56,9.1,34.94-3.88,13.21-13.65,25.3-29.86,36.97-14.19,10.15-30.82,15.28-49.45,15.28ZM100.86,187.64c.6.52,1.59,1.27,3.18,2.22.28.17.55.36.81.56,3.23,2.54,8.21,3.87,14.81,3.96,18.25-1.21,33.55-7.08,46.75-17.96,2.21-2.08,3.35-3.25,3.93-3.87,1.7-7.18-.84-11.9-8.54-16.09-.27-.15-.54-.31-.79-.49l-20.26-14.37c-8.96,6.11-17.8,12.55-26.36,19.19-5.93,4.6-10.03,11.98-12.17,21.93-.03.15-.07.3-.11.45l-1.24,4.47ZM179.69,64c-2.2.92-6.86,3.29-15.96,9.4-9.11,5.98-14.61,12.22-16.41,18.62-.56,1.98-.74,3.32-.79,4.17l39.04-23.74c-1.36-2-2.76-3.94-4.18-5.79-.18-.23-.34-.47-.49-.72-.47-.78-.87-1.42-1.21-1.93Z"/></svg>