<?xml version="1.0" encoding="UTF-8"?><svg id="_图层_1" xmlns="http://www.w3.org/2000/svg" viewBox="0 0 256 256"><defs><style>.cls-1{fill:#222426;fill-rule:evenodd;}.cls-1,.cls-2,.cls-3{stroke-width:0px;}.cls-2{fill:#ff5398;}.cls-3{fill:#fff;}</style></defs><path class="cls-1" d="M52.36,0h151.27c28.92,0,52.36,22.82,52.36,50.97v154.07c0,28.15-23.44,50.97-52.36,50.97H52.36c-28.92,0-52.36-22.82-52.36-50.97V50.97C0,22.82,23.44,0,52.36,0Z"/><path class="cls-2" d="M52.69,169.02l-1.53-12.31h-22.29l-5.39,12.31H7.3l33.53-73.35h18.43l9.62,73.35h-16.18ZM34.89,143.22h14.74l-3.15-26.07-11.6,26.07Z"/><path class="cls-2" d="M76.33,169.02l-10.16-73.17h16.09l6.29,55.73,24.54-55.73h16.09l-33.98,73.17h-18.88Z"/><path class="cls-3" d="M155.52,170.11c-8.66,0-15.4-3.43-20.21-10.3-4.81-6.87-7.22-15.54-7.22-26.03s2.35-18.93,7.04-25.96c4.69-7.02,11.52-10.53,20.5-10.53s15.73,3.51,20.5,10.53c4.76,7.02,7.14,15.6,7.14,25.75s-2.39,19.07-7.17,26.06c-4.78,6.99-11.64,10.48-20.57,10.48ZM155.73,109.14c-3.9,0-6.62,1.8-8.15,5.41-1.54,3.61-2.3,9.93-2.3,18.97s.8,15.44,2.41,19c1.6,3.55,4.27,5.33,8,5.33s6.37-1.74,8.02-5.23c1.66-3.48,2.48-9.63,2.48-18.43,0-9.66-.81-16.25-2.43-19.77-1.62-3.52-4.3-5.28-8.02-5.28Z"/><path class="cls-3" d="M191.75,126.22v-14.54c12.21-3.59,20.19-8.38,23.91-14.39h12.01v58.8h19.56v12.94h-57.24v-12.94h21.43v-40.42c-8.42,5.11-14.98,8.63-19.67,10.56Z"/></svg>