<?xml version="1.0" encoding="UTF-8"?><svg id="_图层_1" xmlns="http://www.w3.org/2000/svg" viewBox="0 0 256 256"><defs><style>.cls-1{fill:#e60012;}.cls-1,.cls-2{stroke-width:0px;}.cls-2{fill:none;fill-rule:evenodd;}</style></defs><path class="cls-2" d="M52.36,0h151.27c28.92,0,52.36,22.82,52.36,50.97v154.07c0,28.15-23.44,50.97-52.36,50.97H52.36C23.44,256,0,233.18,0,205.03V50.97C0,22.82,23.44,0,52.36,0Z"/><path class="cls-1" d="M250.11,30.24c-6.17-10.38-16.33-16.57-27.16-16.57h-99.27l-25.07,75.81h-29.77c-1.38,0-5.67.12-9.79.33-8.62.44-11.13.96-13.49,1.95C22.03,101.62,4.93,124.87.9,152.45c-2.59,17.74.43,36.29,8.49,52.23,7.95,15.72,20.43,28.13,35.15,34.93,2.49,1.15,5.23,1.79,14.09,2.32,4.26.26,8.73.4,10.19.4h128.49l38.43-120.14,18.15-56.49c3.8-11.82,2.38-25.08-3.79-35.46ZM239.76,59.53l-18.15,56.49-34.78,108.71h-118c-2.27,0-16.61-.5-18.71-1.47-24.01-11.1-38.44-39.64-34.33-67.86,3.11-21.33,16.47-39.37,34.87-47.09,1.95-.82,16.1-1.24,18.17-1.24h76.97l-13.26,41.85h-60.07c-4.89,2.94-8.39,7.99-9.19,13.49-1.13,7.74,2.87,16.05,9.54,20.47h88.98l35.26-109.77h-76.85l13.84-41.85h88.9c5.89,0,11.4,3.36,14.75,9,3.35,5.64,4.12,12.83,2.06,19.26Z"/></svg>