<?xml version="1.0" encoding="UTF-8"?>
<svg id="_图层_1" data-name="图层 1" xmlns="http://www.w3.org/2000/svg" viewBox="0 0 256 256">
  <defs>
    <style>
      .cls-1 {
        fill: #80f;
        fill-rule: evenodd;
      }

      .cls-1, .cls-2 {
        stroke-width: 0px;
      }

      .cls-2 {
        fill: #fff;
      }
    </style>
  </defs>
  <path class="cls-1" d="m52.36,0h151.27c28.92,0,52.36,22.82,52.36,50.97v154.07c0,28.15-23.44,50.97-52.36,50.97H52.36c-28.92,0-52.36-22.82-52.36-50.97V50.97C0,22.82,23.44,0,52.36,0Z"/>
  <path class="cls-2" d="m193.65,153.87c-.56-5.2-2.06-9.88-4.51-14.06-.65-1.11-1.29-2.1-1.92-2.96-2.3-3.18-5.01-6.05-8.13-8.59-1.88-1.53-3.79-2.93-5.72-4.19-1.09-.71-2.34-1.48-3.76-2.34-.01,0-.02-.02-.03-.03,0,0,0,0,0-.01,0,0,0-.01,0-.02,0,0,0,0,0-.01,0,0,0,0,0-.01,0,0,0-.01,0-.02,0,0,0,0,0-.01,0-.01.02-.02.03-.03,1.49-.83,2.89-1.69,4.22-2.57,2.3-1.52,4.41-3.24,6.35-5.15,3.28-3.23,5.77-6.95,7.48-11.16.43-1.07.81-2.19,1.11-3.35.81-3.03,1.23-6.12,1.26-9.26.03-2.65-.17-5.28-.59-7.9-.5-3.08-1.34-5.96-2.51-8.63-.98-2.22-2.08-4.16-3.31-5.84-3.04-4.13-6.81-7.57-11.33-10.31-2.5-1.52-5.1-2.79-7.78-3.8-3.53-1.33-7.2-2.38-10.99-3.14-4.15-.83-8.45-1.4-12.91-1.7-4.95-.33-9.51-.38-13.67-.15-3.45.19-6.72.56-9.79,1.12-3.62.65-7.44,1.66-11.47,3.02-1.04.35-2.14.77-3.3,1.27-2.98,1.27-5.22,2.31-6.72,3.13-3.01,1.65-5.58,3.22-7.69,4.73-4.16,2.97-8.07,6.4-11.27,10.31-1.34,1.64-6.44,8.23-3.21,9.86.46.23.91.37,1.34.42,3.14.35,6.33-.65,9.24-2.08,1.1-.54,3.35-1.67,6.74-3.38,2.5-1.26,5.15-2.46,7.97-3.61,2.77-1.13,5.5-2.05,8.2-2.77,7.48-1.98,15.2-2.76,23.17-2.35,1.79.09,3.88.32,6.26.7,2.92.46,5.66,1.21,8.21,2.25,3.04,1.24,5.6,2.97,7.69,5.17,2.59,2.73,4.29,6.38,4.95,10.01.36,2.03.54,4.1.52,6.21,0,.94-.07,2.11-.18,3.53-.3,3.88-1.22,7.77-2.93,11.25-.93,1.88-2.16,3.54-3.59,5.07-.08.09-.18.12-.3.09-2.76-.66-5.56-1-8.4-1.01-2.8-.01-5.57.19-8.31.59-4.08.61-9.46,2.35-10.57,6.84-.36,1.45-.37,2.91-.03,4.38.17.74.41,1.37.72,1.89,1.02,1.7,2.76,2.99,4.59,3.73,3.82,1.55,7.91,1.95,12.18,2.09,1.34.04,2.52.02,3.53-.06,1.97-.17,3.96-.48,5.99-.94.05,0,.1,0,.13.04,1.19,1.24,2.28,2.54,3.26,3.9,2.74,3.79,4.36,8.26,5.14,12.92.59,3.55.92,7.09.99,10.62.03,1.59.04,2.77.02,3.54-.06,2.48-.43,4.92-1.1,7.32-1.16,4.18-3.32,7.77-6.48,10.76-1.73,1.63-3.74,3.08-6.05,4.33-3.77,2.05-7.68,3.38-11.75,4-4.35.66-8.86.7-13.54.11-4.58-.58-9.19-1.53-13.84-2.84-.05-.01-.08-.06-.08-.11.59-8.9,1.27-19.36,2.05-31.37.08-1.23.17-2.21.28-2.96.17-1.17.33-2.15.49-2.94.61-2.99,1.36-6.41,2.25-10.27.27-1.14.52-2.29.77-3.45,2.19-10.27,4-19.4,5.42-27.41.86-4.8,1.39-9.63,1.6-14.48.07-1.56.07-3.59.02-6.1-.04-1.73-.25-3.33-.65-4.81-.14-.51-.4-1.13-.73-1.54-.62-.77-1.26-.71-2.25-.6-1.22.13-2.39.46-3.52.98-2.38,1.11-4.45,2.88-6.12,4.8-2.12,2.43-3.96,5.06-5.55,7.9-2.23,4-4.14,7.92-5.74,11.77-2.31,5.56-4.36,11.42-6.16,17.58-2.04,6.97-3.83,14.07-5.37,21.3-1.14,5.34-1.94,9.82-2.39,13.43-.4,3.21-.65,5.35-.74,6.44-.38,4.53-.59,8.93-.62,13.21,0,.02,0,.03,0,.05,0,0,0,.02-.01.03,0,0,0,.02-.02.02,0,0-.01.01-.02.02,0,0-.01.01-.02.02,0,0-.02,0-.03,0,0,0-.02,0-.03,0-.02,0-.03,0-.05,0-2.98-.75-6.04-1.43-9.19-2.03-1.56-.3-2.86-.48-3.89-.53-1.17-.06-1.92-.06-2.25.01-1.74.38-2.7,1.48-2.87,3.3-.07.75-.05,1.41.06,1.98.45,2.4,1.7,4.44,3.36,6.2,1.85,1.96,3.86,3.72,6.04,5.28,2.18,1.55,4.56,2.99,7.13,4.3,3.04,1.55,5.94,2.84,8.68,3.87.44.17,1.55.56,3.33,1.2,4.71,1.68,9.4,3.12,14.06,4.33,6.25,1.63,12.68,2.72,19.28,3.29h16.09c4.19-.36,7.73-.81,10.62-1.36,3.4-.65,6.41-1.39,9.02-2.23,3.25-1.04,6.08-2.13,8.47-3.25,2.55-1.2,4.85-2.45,6.89-3.76,3.91-2.5,7.41-5.61,10.5-9.31,2.88-3.45,5.12-7.29,6.72-11.51,1.34-3.55,1.97-7.43,2.04-11.22.06-3.61-.11-7.28-.51-11.01Z"/>
</svg>