<?xml version="1.0" encoding="UTF-8"?>
<svg id="_图层_1" data-name="图层 1" xmlns="http://www.w3.org/2000/svg" viewBox="0 0 256 256">
  <defs>
    <style>
      .cls-1 {
        fill: #7eb80e;
      }

      .cls-1, .cls-2, .cls-3 {
        stroke-width: 0px;
      }

      .cls-2 {
        fill: #ff8400;
      }

      .cls-3 {
        fill: #2e2e2e;
        fill-rule: evenodd;
      }
    </style>
  </defs>
  <path class="cls-3" d="M52.36,0h151.27c28.92,0,52.36,22.82,52.36,50.97v154.07c0,28.15-23.44,50.97-52.36,50.97H52.36c-28.92,0-52.36-22.82-52.36-50.97V50.97C0,22.82,23.44,0,52.36,0Z"/>
  <g>
    <polygon class="cls-1" points="191.68 74.55 148.49 34.79 148.49 74.55 66.26 74.55 66.26 118 148.49 118 238.87 118 191.68 74.55"/>
    <polygon class="cls-2" points="64.32 175.84 107.51 215.59 107.51 175.84 189.74 175.84 189.74 132.39 107.51 132.39 17.13 132.39 64.32 175.84"/>
  </g>
</svg>