<?xml version="1.0" encoding="UTF-8"?><svg id="_图层_1" xmlns="http://www.w3.org/2000/svg" viewBox="0 0 256 256"><defs><style>.cls-1{fill:#da2758;}.cls-1,.cls-2,.cls-3{stroke-width:0px;}.cls-2{fill:#fff;}.cls-3{fill:none;fill-rule:evenodd;}</style></defs><path class="cls-3" d="M52.36,0h151.27c28.92,0,52.36,22.82,52.36,50.97v154.07c0,28.15-23.44,50.97-52.36,50.97H52.36c-28.92,0-52.36-22.82-52.36-50.97V50.97C0,22.82,23.44,0,52.36,0Z"/><circle class="cls-1" cx="128.37" cy="128.37" r="127.63"/><path class="cls-2" d="M198.73,123.53c-2.5-36.64-33.1-65.68-70.36-65.68s-70.53,31.64-70.53,70.53,31.64,70.53,70.53,70.53c10.12,0,18.33-8.21,18.33-18.33s-8.21-18.33-18.33-18.33c-18.68,0-33.87-15.19-33.87-33.87s15.19-33.87,33.87-33.87,33.87,15.19,33.87,33.87v52.2c0,10.12,8.21,18.33,18.33,18.33s18.33-8.21,18.33-18.33v-54.58c0-.84-.06-1.66-.17-2.47Z"/></svg>