<?xml version="1.0" encoding="UTF-8"?><svg id="_图层_1" xmlns="http://www.w3.org/2000/svg" viewBox="0 0 256 256"><defs><style>.cls-1{fill:#e40082;fill-rule:evenodd;}.cls-1,.cls-2{stroke-width:0px;}.cls-2{fill:#fff;}</style></defs><path class="cls-1" d="M52.36,0h151.27c28.92,0,52.36,22.82,52.36,50.97v154.07c0,28.15-23.44,50.97-52.36,50.97H52.36c-28.92,0-52.36-22.82-52.36-50.97V50.97C0,22.82,23.44,0,52.36,0Z"/><path class="cls-2" d="M95.93,106.93h-45.61c-1.26,0-2.93-.57-5.01-1.7s-3.22-3.63-3.41-7.48c-.19-3.85.76-6.56,2.84-8.14,2.08-1.58,3.94-2.37,5.58-2.37h26.49c-2.52-2.77-4.13-5.17-4.83-7.19-.69-2.02-.57-4.26.38-6.72s3.37-4.32,7.29-5.58c-12.37.51-20.06-.44-23.09-2.84-3.03-2.4-4.29-5.61-3.79-9.65.63-5.42,4.35-8.2,11.17-8.33,2.14,0,6.69.22,13.63.66,6.94.44,13.63.66,20.06.66,16.28.13,30.69-.31,43.24-1.33,12.55-1.01,21.48-1.86,26.78-2.55,5.3-.69,8.64-1.1,10.03-1.23,6.81-.63,11.23.41,13.25,3.12,2.02,2.71,2.96,5.2,2.84,7.48-.38,4.67-2.52,7.66-6.43,8.99-3.91,1.33-20.44,2.49-49.58,3.5v21.01h18.55c-1.14-.88-1.96-1.67-2.46-2.37-.51-.69-.79-1.61-.85-2.74-.07-1.14.41-2.71,1.42-4.73,3.15-6.43,6.12-10.15,8.89-11.17,2.77-1.01,5.68-.95,8.71.19,4.29,1.77,6.31,4.8,6.05,9.08-.38,3.66-2.27,7.57-5.68,11.73h32.36c1.26,0,3,.6,5.2,1.8,2.21,1.2,3.34,3.79,3.41,7.76.06,3.97-.98,6.66-3.12,8.04-2.15,1.39-3.97,2.08-5.49,2.08h-46.55c5.68,5.05,10.53,9.02,14.57,11.92,4.04,2.9,9.02,5.74,14.95,8.52,5.93,2.78,11.83,4.95,17.69,6.53,5.87,1.58,9.71,3.63,11.54,6.15,1.83,2.53,1.54,6.56-.85,12.11-2.4,5.55-12.11,4.92-29.14-1.89-17.03-6.81-33.43-18.61-49.2-35.39v17.79c0,1.39-.82,3.06-2.46,5.01-1.64,1.96-4.42,3-8.33,3.12-3.91.13-6.66-.85-8.23-2.93-1.58-2.08-2.37-3.81-2.37-5.2v-14c-10.85,7.57-22.36,14.86-34.54,21.86-12.18,7-20.79,11.23-25.83,12.68-5.05,1.45-8.74,1.74-11.07.85-2.34-.88-4.29-3-5.87-6.34-1.58-3.34-1.61-6.18-.09-8.52,1.51-2.33,2.9-3.78,4.16-4.35,1.26-.57,4.19-1.48,8.8-2.74,4.6-1.26,11.01-4.07,19.21-8.42,8.2-4.35,16.46-9.94,24.79-16.75ZM66.79,195.49v-28.2c0-3.66.79-8.61,2.37-14.85,1.58-6.25,9.75-9.37,24.51-9.37h69.45c14,0,21.92,3.09,23.75,9.27,1.83,6.18,2.74,11.04,2.74,14.57v28.95c0,13.63-8.83,20.44-26.49,20.44h-69.45c-13.37,0-21.2-2.49-23.47-7.48-2.27-4.99-3.41-9.43-3.41-13.34ZM88.74,170.13h28.2v-8.89h-24.22c-1.51,0-2.62.6-3.31,1.8-.69,1.2-.98,1.99-.85,2.37l.19,4.73ZM88.74,67.56c6.31,5.68,9.46,10.41,9.46,14.19-.13,2.15-1.01,3.97-2.65,5.49h20.82v-20.25c-9.08.51-18.29.69-27.63.57ZM116.94,188.3h-28.2v3.97c0,2.02.31,3.41.95,4.16.63.76,2.08,1.14,4.35,1.14l22.9.19v-9.46ZM167.66,170.13v-4.92c0-2.65-1.96-3.97-5.87-3.97h-23.28v8.89h29.14ZM168.03,188.3h-29.52v9.46l24.22-.19c3.53,0,5.3-1.83,5.3-5.49v-3.79Z"/></svg>