<?xml version="1.0" encoding="UTF-8"?><svg id="_图层_1" xmlns="http://www.w3.org/2000/svg" viewBox="0 0 256 256"><defs><style>.cls-1{fill:#f907bb;}.cls-1,.cls-2,.cls-3{stroke-width:0px;}.cls-2{fill:#fff;}.cls-3{fill:none;fill-rule:evenodd;}</style></defs><path class="cls-3" d="M52.36,0h151.27c28.92,0,52.36,22.82,52.36,50.97v154.07c0,28.15-23.44,50.97-52.36,50.97H52.36c-28.92,0-52.36-22.82-52.36-50.97V50.97C0,22.82,23.44,0,52.36,0Z"/><rect class="cls-1" x="15.49" y="14.91" width="225.6" height="225.6"/><circle class="cls-2" cx="97.67" cy="62.52" r="25.13"/><path class="cls-2" d="M83.94,92.38h10.22v125.64h-44.31v-91.54c0-18.82,15.28-34.09,34.09-34.09Z"/><path class="cls-2" d="M170.89,186.5v3.42c0,5.67-4.6,10.27-10.27,10.27h0c-9.85,0-17.83,7.99-17.83,17.83H49.85v-31.52h121.05Z"/><path class="cls-2" d="M90.64,193.88c-.88,0-1.75-.33-2.42-1-1.34-1.34-1.34-3.51,0-4.84l27.83-27.83c1.34-1.34,3.51-1.34,4.84,0,1.34,1.34,1.34,3.51,0,4.84l-27.83,27.83c-.67.67-1.55,1-2.42,1Z"/><path class="cls-2" d="M184.67,179.97h-60.68c-1.82,0-3.42-1.38-3.53-3.2-.13-1.99,1.45-3.65,3.42-3.65h60.68c1.82,0,3.42,1.38,3.53,3.2.13,1.99-1.45,3.65-3.42,3.65Z"/><path class="cls-2" d="M182.78,172.81c-.46,0-.93-.09-1.37-.29-1.71-.75-2.45-2.78-1.76-4.52l20.49-51.76c.7-1.76,2.69-2.62,4.45-1.92,1.76.7,2.62,2.69,1.92,4.45l-20.53,51.88c-.53,1.35-1.82,2.17-3.19,2.17Z"/></svg>