<svg
  t="1725164481627"
  class="icon"
  viewBox="0 0 1024 1024"
  version="1.1"
  xmlns="http://www.w3.org/2000/svg"
  p-id="2612"
  width="256"
  height="256"
>
  <path
    d="M899.584 628.224l-1.024-10.24c0-1.536-0.512-3.584-1.024-6.656-0.512-6.144-1.536-12.288-2.56-17.92-0.512-4.608-1.536-9.216-2.56-13.824l-1.536-6.656c-23.04-108.032-88.064-233.984-194.048-374.784-76.8-101.888-148.992-175.616-152.576-179.712 0 0-4.096-3.584-8.192-6.656-11.776-9.216-28.16-8.704-39.936 0-4.096 3.072-8.192 6.656-9.216 8.192-7.68 7.68-76.8 79.36-151.552 178.176-105.984 140.8-171.52 266.752-194.048 373.76l-1.536 7.168c-1.024 4.608-2.048 9.216-2.56 13.312-1.024 6.144-2.048 12.288-2.56 17.92v2.048c0 1.536-0.512 3.584-0.512 5.12l-1.024 11.264c-0.512 8.192-1.024 16.896-1.024 25.6v12.8c0 4.096 0 8.192 0.512 11.776 0.512 5.12 1.024 10.752 1.536 16.384l1.024 8.192c1.024 6.144 2.048 12.288 3.072 17.92l1.536 6.656c1.536 6.144 3.072 12.288 4.608 17.92 0.512 2.56 1.536 4.608 2.048 6.656 1.536 5.632 3.584 11.264 5.632 16.896 1.024 2.56 2.048 5.632 3.072 8.192 2.048 5.12 4.096 9.728 6.144 14.848 1.536 3.072 3.072 6.656 5.12 10.24l2.56 5.632c1.024 2.56 2.56 4.608 3.584 7.168 4.096 7.168 7.68 13.824 12.288 20.48l1.024 2.048c6.144 9.216 12.8 18.432 20.48 28.16l3.072 3.584c7.168 8.704 14.336 16.896 23.04 25.6 8.192 8.192 16.896 15.872 25.6 23.552l4.096 3.072c7.168 5.632 14.336 11.264 23.552 17.408l5.632 4.096c7.68 5.12 15.872 9.728 25.6 15.36l4.096 2.56c2.56 1.536 5.632 2.56 8.704 4.096l6.656 3.072c5.632 3.072 11.264 5.632 17.408 8.192 5.632 2.56 11.264 4.608 16.896 6.656l7.68 3.072c3.072 1.024 6.144 2.56 9.216 3.584 8.192 2.56 16.384 4.608 24.064 6.656l4.608 1.024c2.56 0.512 4.608 1.536 6.656 1.536 8.704 2.048 17.408 3.584 24.576 4.608l3.584 0.512c2.56 0.512 5.632 1.024 8.704 1.536 7.68 1.024 14.848 1.536 22.528 2.048l4.096 0.512c3.584 0.512 7.168 0.512 11.264 1.024h38.4c3.584 0 7.168-0.512 10.752-1.024l4.096-0.512c7.68-0.512 14.848-1.536 22.528-2.048 3.072-0.512 5.632-1.024 8.704-1.536l3.584-0.512c7.68-1.536 15.872-2.56 24.576-4.608 2.56-0.512 5.12-1.536 7.68-2.048l3.584-1.024c7.68-2.048 16.384-4.096 24.064-6.656 3.072-1.024 6.656-2.048 9.216-3.584l7.68-3.072c5.632-2.048 11.264-4.096 16.896-6.656 6.144-2.56 11.776-5.12 17.408-8.192l6.656-3.072c2.56-1.024 5.12-2.56 8.192-4.096l6.144-3.584c8.192-4.608 15.872-9.216 24.064-14.336 2.56-1.536 5.12-3.584 7.68-5.12 7.68-5.12 14.848-10.752 22.016-16.384l2.048-1.536 2.56-2.048c8.704-7.168 17.408-14.848 25.088-23.04l1.536-1.536c7.168-7.168 14.336-15.36 22.016-24.576l2.56-3.584c7.68-9.728 14.336-18.944 20.48-28.16l1.024-2.048c4.608-7.168 8.704-13.824 12.288-20.48 1.536-2.56 2.56-5.12 4.096-7.68l2.56-4.608c1.536-3.584 3.072-6.656 5.12-10.24 2.048-5.12 4.096-9.728 6.144-14.848l3.072-8.192c2.048-5.632 4.096-11.264 5.632-16.896l2.048-6.656c1.536-6.144 3.072-11.776 4.608-18.432l1.536-6.144c1.024-6.144 2.56-12.288 3.072-17.92 0.512-2.048 0.512-4.096 0.512-6.144l0.512-4.096c0.512-5.12 1.024-9.728 1.536-14.848 0-3.584 0.512-7.68 0.512-11.264v-6.656-7.168c-1.536-6.656-2.048-15.36-2.56-24.576z m-70.656 80.896l-1.024 5.12c-1.024 4.608-2.56 9.728-3.584 14.336l-1.536 5.12c-1.536 4.608-3.072 9.216-4.608 13.312l-2.56 6.656c-1.536 4.096-3.072 7.68-5.12 11.776-1.536 2.56-2.56 5.12-4.096 7.68l-2.56 5.12c-1.024 1.536-1.536 3.584-2.56 5.632-3.072 5.632-6.144 11.264-10.752 17.92-4.608 7.168-10.24 14.848-16.896 23.04l-2.56 3.072c-6.144 7.168-11.776 13.824-18.944 20.992-6.656 6.656-13.312 12.8-20.48 18.432l-4.096 3.072c-5.632 4.608-11.776 9.216-17.92 13.312l-6.144 4.096-19.968 12.288-4.608 2.56c-1.536 0.512-2.56 1.536-4.608 2.048-2.048 1.024-3.584 1.536-5.632 2.56l-4.096 2.048c-4.096 2.048-8.192 4.096-12.8 6.144-4.608 2.048-9.216 3.584-13.312 5.12l-9.216 3.584c-2.048 0.512-4.096 1.536-6.144 2.048-6.144 2.048-12.288 3.584-20.48 5.632l-5.12 1.536c-1.536 0.512-2.56 0.512-4.096 1.024-6.656 1.536-13.824 2.56-20.992 4.096l-4.096 0.512c-2.048 0.512-3.584 0.512-5.632 1.024-6.144 1.024-12.8 1.536-18.944 2.048l-4.608 0.512c-2.56 0-5.632 0.512-8.192 0.512H499.2c-2.56 0-5.632-0.512-8.192-0.512l-4.096-0.512c-6.144-0.512-12.8-1.024-18.944-2.048l-10.24-1.536c-6.656-1.024-13.824-2.56-20.48-4.096l-4.608-1.536-5.12-1.536c-6.656-1.536-12.8-3.584-19.456-5.632-2.048-0.512-3.584-1.536-6.656-2.56l-9.728-3.584-12.288-4.608c-4.096-1.536-8.192-4.096-13.824-6.656l-9.216-4.608c-1.024-0.512-2.56-1.024-2.56-1.024l-6.656-3.584c-6.656-3.584-13.312-7.68-19.456-11.776l-6.144-4.096c-6.144-4.096-12.288-8.704-17.92-13.824l-3.584-2.56c-7.168-6.144-14.336-12.288-22.016-20.48-6.144-6.144-11.776-12.8-17.92-19.456l-2.56-3.072c-6.656-8.192-11.776-15.36-15.872-21.504l-2.048-3.072c-3.584-5.12-6.656-10.752-9.728-16.384l-3.072-6.144-2.048-4.096c-1.536-2.56-2.56-5.12-4.096-7.68-1.536-4.096-3.584-7.68-5.12-11.776-1.024-2.048-1.536-4.096-2.56-6.656-1.536-4.608-3.072-9.216-4.608-13.312l-1.536-5.632c-1.536-4.608-2.56-9.728-3.584-14.336l-1.024-5.12c-1.024-4.608-2.048-9.728-2.56-14.848l-1.024-6.656c-0.512-4.096-1.024-8.704-1.536-12.8 0-3.072 0-6.144-0.512-9.216l-0.512-10.752c0-7.168 0.512-13.824 1.024-19.968l2.048-16.896c0.512-4.608 1.024-9.728 2.048-14.848 0.512-3.584 1.536-7.168 2.56-12.288l1.024-5.12c42.496-200.704 251.904-438.272 310.272-501.248 58.368 62.976 267.776 300.544 310.272 501.248l1.536 6.144c1.024 3.584 1.536 7.68 2.048 11.264 1.024 5.12 1.536 9.728 2.048 14.336l2.048 16.384c0.512 6.656 1.024 13.312 1.024 20.48l-0.512 11.776c0 2.56 0 5.632-0.512 8.192 0 4.096-0.512 7.68-1.024 11.264l-1.024 8.192c0 6.656-1.024 11.264-2.048 16.384z"
    fill="#007AFF"
    p-id="2613"
  ></path>
  <path
    d="M847.36 565.248c2.048-5.632 2.56-11.776 2.56-18.432v-28.16c0-13.824-4.608-26.624-12.8-37.376 6.144-25.088 0.512-52.224-15.872-73.216l-247.296-315.904c-37.376-47.616-110.592-42.496-140.8 9.216l-244.736 416.768c-12.8 21.504-14.848 46.592-8.192 68.608-3.072 7.168-4.608 15.36-4.608 23.552v130.56c0 31.744 24.064 57.856 54.784 60.928-0.512 3.584-1.024 7.168-1.024 10.752v1.536c0 29.696 21.504 54.784 50.176 60.416 2.56 25.6 24.576 46.08 50.688 46.08h26.624c-0.512 2.56-1.024 5.632-1.024 8.192 0 21.504 17.408 38.912 38.912 38.912h266.24c21.504 0 38.912-17.408 38.912-38.912 0-5.632-1.024-11.264-3.584-15.872h31.744c32.256 0 58.368-25.088 61.44-56.32 10.24-11.264 16.896-25.6 16.896-41.984v-1.536c0-3.584-0.512-6.656-1.024-10.24h1.024c33.792 0 61.44-27.648 61.44-61.44v-130.56c0-17.92-8.192-34.304-20.48-45.568z m-67.072 83.456c0 2.56 0 5.12-0.512 8.192 0 3.072-0.512 6.144-1.024 9.216l-1.024 7.68c-0.512 4.096-1.536 8.192-2.048 12.288l-1.024 4.096c-1.024 4.096-2.048 8.192-3.072 12.8l-1.536 4.608c-1.024 4.096-2.56 7.68-4.096 11.776l-1.536 4.608c-2.048 4.608-3.072 7.68-4.608 11.264-1.024 2.56-2.048 5.12-3.584 7.168l-4.096 8.192c-2.56 4.608-5.12 9.216-8.192 14.336-5.12 7.68-9.216 13.824-14.848 20.48l-2.048 2.56c-5.12 6.144-9.728 11.776-14.848 16.896-6.656 6.656-12.288 11.776-18.432 16.896l-3.072 2.56c-5.12 4.096-9.728 7.68-14.848 11.264l-5.12 3.584c-5.632 3.584-11.264 7.168-16.896 10.24l-2.56 1.536-7.168 3.584-4.608 2.048c-4.096 2.048-7.68 4.096-11.776 5.632l-12.288 4.608c-4.096 1.536-7.168 2.048-9.728 2.048-9.216 0-17.92-6.144-20.992-14.848-2.048-5.632-1.536-11.776 1.024-17.408s7.168-9.728 12.8-11.776l2.56-1.024c3.072-1.024 6.144-2.048 9.216-3.584 3.072-1.536 5.632-2.56 8.704-4.096l12.8-6.656c5.12-2.56 9.216-5.632 13.824-8.192l4.608-3.072 12.288-9.216 2.56-2.048c4.608-4.096 9.728-8.192 14.336-12.8 5.12-5.12 9.216-9.728 13.312-14.336l1.536-2.048c4.608-5.632 8.192-10.752 11.776-15.872l0.512-1.024c2.56-4.608 5.12-8.192 6.656-11.776l2.56-4.608c2.048-4.096 3.072-6.144 4.096-7.68 1.536-2.56 2.56-5.632 3.584-8.192l1.536-4.608 3.072-9.216 1.024-4.096c1.024-3.072 1.536-6.144 2.56-9.728l0.512-3.584c0.512-3.072 1.536-6.656 1.536-9.728l0.512-5.12c0.512-2.56 0.512-5.632 1.024-8.192V640.512c0-4.608 0-9.216-0.512-14.336l-1.536-10.752c-1.024-5.632 1.024-11.776 4.608-16.384 3.584-5.12 9.216-7.68 15.36-8.704 5.12-1.024 11.776 1.024 16.384 4.608 4.608 3.584 8.192 9.216 8.704 15.36l1.536 11.776c0.512 6.656 1.024 12.288 1.024 18.432l-0.512 8.192z"
    fill="#007AFF"
    p-id="2614"
  ></path>
</svg>