<?xml version="1.0" encoding="UTF-8"?>
<svg id="_图层_1" data-name="图层 1" xmlns="http://www.w3.org/2000/svg" viewBox="0 0 256 256">
  <defs>
    <style>
      .cls-1 {
        fill: #000;
      }

      .cls-1, .cls-2, .cls-3, .cls-4, .cls-5, .cls-6, .cls-7 {
        stroke-width: 0px;
      }

      .cls-2, .cls-6 {
        fill: none;
      }

      .cls-3 {
        fill: #7e7f7f;
      }

      .cls-4 {
        fill: #bfbfbf;
      }

      .cls-5 {
        fill: #ffaba9;
      }

      .cls-6 {
        fill-rule: evenodd;
      }

      .cls-7 {
        fill: #ffd4aa;
      }
    </style>
  </defs>
  <path class="cls-6" d="M52.36,0h151.27c28.92,0,52.36,22.82,52.36,50.97v154.07c0,28.15-23.44,50.97-52.36,50.97H52.36c-28.92,0-52.36-22.82-52.36-50.97V50.97C0,22.82,23.44,0,52.36,0Z"/>
  <g>
    <path class="cls-2" d="M242.77,101.84s-.04-.06-.07-.07c.04.02.06.05.07.09,0,0,0,0,0-.01Z"/>
    <path class="cls-2" d="M120.59,162.33s-.02-.02-.03-.03c.03.02.05.05.07.08-.01-.02-.02-.03-.03-.05Z"/>
    <path class="cls-2" d="M29.17,74.41s0,0,0,0c0-.01,0-.03-.01-.04,0,.01,0,.03,0,.04Z"/>
    <path class="cls-1" d="M175.18,202.95c16.69-8.56,33.59-18.14,50.69-28.73,8.33-5.16,16.93-10.72,24.36-17.19,3.62-3.15,4.43-7,2.43-11.56-1.42-2.21-3.33-3.97-5.74-5.29l-1.29,10.54c-.05.38-.27.72-.6.91-18.67,10.71-36.68,20.77-54.04,30.16-10.22,5.53-21.16,11.11-32.83,16.75-11.3,5.46-22.61,10.24-33.93,14.36-.21.07-.43.02-.58-.14l-5.52-5.73c-11.31-12.21-.78-30.55,8.75-39.76.94-.9,2.22-1.75,3.85-2.53,35.84-17.15,71.7-34.55,107.59-52.18l7.37-3.53c2.19-1.17,4.59-2.38,7.22-3.63,2.19-1.04,3.02-3.51,1.75-5.55-.37-.58-1.13-1.17-2.29-1.76-30.03-15.34-59.42-29.71-88.16-43.14-12.61-5.89-24.72-11.26-36.34-16.13-6.39-2.67-12.31-4.83-17.76-6.47-1.4-.42-2.96-.55-4.24-.04-6.58,2.64-14.77,6.11-24.57,10.4-20.13,8.81-39.81,17.5-59.02,26.08-1.58.71-2.71,1.48-3.42,2.33-.13.16-.29.26-.48.32-5.4,1.59-9.51,4.79-12.35,9.58-3.11,5.25-4.86,11.06-5.28,17.43v3.31c.25,3.3.89,6.35,1.92,9.14,1.03,2.8,2.37,5.56,3.99,8.28,1.14,1.91,2.96,4.36,5.45,7.36,3.19,3.85,10.57,12.69,22.12,26.53,9.76,11.69,19.35,22.41,28.77,32.16,5.6,5.79,11.49,11.39,17.68,16.81,6.58,5.75,13.25,10.68,20.01,14.77,4.81,2.91,9.82,5.02,15.03,6.34,1.4.35,3.91.63,7.51.84,7.27-1.68,13.59-3.59,18.96-5.72,9.16-3.64,20.15-8.74,32.99-15.33ZM29.16,74.23s0-.04.01-.06c0-.03.03-.05.04-.07,0-.01.01-.02.02-.03,0,0,0,0,0,0,.03-.03.06-.06.11-.08,23.87-10.62,52.01-23.18,77.96-34.1.33-.14.7-.16,1.05-.07,2.15.57,4.32,1.27,6.5,2.1,9.01,3.41,17.19,6.78,24.54,10.09,34.48,15.55,68.92,32.13,103.31,49.75.03.02.06.04.07.07,0,0,0,0,0,.01,0,.02,0,.04,0,.06,0,.02,0,.04,0,.06,0,0,0,0,0,.01-.02.03-.04.06-.08.08l-113.96,55.34c-.23.11-.49.09-.7-.04-4.46-2.93-8.93-6.19-13.4-9.79-24.27-19.51-46.9-38.57-67.89-57.16-5.88-5.21-11.72-10.51-17.5-15.9-.03-.03-.06-.07-.08-.11,0,0,0,0,0,0,0-.01,0-.03,0-.04,0-.03-.02-.05-.02-.08,0-.02,0-.04,0-.06ZM114.65,214.98c-1.38-.42-3.33-1.14-4.59-1.78-11.74-5.85-21.96-14.37-31.11-23-11.35-10.69-23.24-23.42-35.68-38.17-7.46-8.84-15.83-18.89-25.11-30.15-2.52-3.06-4.21-5.32-5.06-6.78-1.46-2.52-2.66-5.11-3.58-7.77-2.6-7.51-.6-17.24,3.98-23.7,1.64-2.31,4.89-4.93,7.82-4.88.2,0,.4.08.54.22,5.33,5.06,11.43,10.54,18.29,16.45,26.38,22.72,53.7,45.29,80.4,66.89.01,0,.02.02.03.03.01.01.02.03.03.05.02.02.03.04.04.07.01.02.02.05.02.07,0,.03.01.05.01.08,0,.03,0,.05,0,.08,0,.03,0,.05-.02.08,0,.03-.02.05-.04.07-.01.02-.01.04-.03.05,0,.01-.02.02-.03.03-8.13,8.06-14.42,19.06-14.91,30.72-.34,8.21,3.18,15.53,9.17,20.99.46.42.4.54-.2.36Z"/>
    <path class="cls-5" d="M29.17,74.42s.04.07.08.11c5.78,5.39,11.62,10.69,17.5,15.9,20.99,18.59,43.62,37.65,67.89,57.16,4.47,3.59,8.94,6.86,13.4,9.79.21.13.47.15.7.04l113.96-55.34s.06-.04.08-.08c0,0,0,0,0-.01,0-.02,0-.04,0-.06,0-.02,0-.04,0-.06-.01-.04-.04-.07-.07-.09-34.39-17.62-68.82-34.2-103.31-49.75-7.35-3.32-15.53-6.68-24.54-10.09-2.18-.82-4.35-1.52-6.5-2.1-.35-.1-.72-.07-1.05.07-25.95,10.92-54.09,23.48-77.96,34.1-.04.02-.08.04-.11.08,0,0,0,0,0,0,0,.01-.01.02-.02.03-.02.02-.03.04-.04.07,0,.02,0,.04-.01.06,0,.02,0,.04,0,.06,0,.03,0,.05.02.08,0,.01,0,.03.01.04Z"/>
    <path class="cls-7" d="M114.85,214.62c-5.99-5.46-9.51-12.78-9.17-20.99.49-11.66,6.78-22.66,14.91-30.72.01-.01.02-.02.03-.03.01-.02.02-.04.03-.05.01-.02.03-.05.04-.07,0-.03.01-.05.02-.08,0-.03,0-.05,0-.08,0-.03,0-.05-.01-.08,0-.03-.01-.05-.02-.07-.01-.02-.03-.05-.04-.07-.02-.03-.04-.06-.07-.08-26.7-21.59-54.03-44.17-80.4-66.89-6.86-5.91-12.96-11.4-18.29-16.45-.15-.14-.34-.22-.54-.22-2.93-.05-6.19,2.57-7.82,4.88-4.58,6.47-6.57,16.19-3.98,23.7.92,2.66,2.11,5.25,3.58,7.77.85,1.46,2.54,3.72,5.06,6.78,9.28,11.26,17.65,21.31,25.11,30.15,12.44,14.75,24.33,27.48,35.68,38.17,9.15,8.62,19.37,17.15,31.11,23,1.26.63,3.21,1.36,4.59,1.78.6.18.67.06.2-.36Z"/>
    <path class="cls-4" d="M170.36,184.12c11.27-5.76,21.1-10.97,29.49-15.62,6.67-3.7,19.27-10.79,37.78-21.26,1.11-.62,1.24-1.08,1.35-2.22.52-5.44.67-11.04.44-16.79-.21-5.2-.58-10.41-1.11-15.65-35.89,17.63-71.75,35.03-107.59,52.18-1.63.78-2.92,1.63-3.85,2.53-9.53,9.21-20.06,27.55-8.75,39.76,6.52-2.33,10.78-3.89,12.77-4.67,10.5-4.09,23.66-10.18,39.46-18.26Z"/>
    <polygon class="cls-1" points="197.12 98.24 139.9 113.88 169.65 82.09 159.37 76.04 117.21 120.6 126.78 126.81 208.08 104.68 197.12 98.24"/>
    <path class="cls-1" d="M126.51,56.72l-76.81,20.06,9.09,5.9,16.02-4.07,19.65,12.49-8.56,9.18,9.73,6.32,40.47-44.24-9.58-5.63ZM102,82.91l-12.9-8.05,26.76-6.95-13.86,15Z"/>
    <path class="cls-3" d="M245.69,109.05l-7.37,3.53c.53,5.24.9,10.46,1.11,15.65.23,5.75.08,11.35-.44,16.79-.11,1.13-.25,1.59-1.35,2.22-18.52,10.47-31.11,17.56-37.78,21.26-8.39,4.65-18.22,9.86-29.49,15.62-15.81,8.08-28.96,14.17-39.46,18.26-1.99.78-6.25,2.33-12.77,4.67l5.52,5.73c.15.16.38.21.58.14,11.32-4.12,22.63-8.9,33.93-14.36,11.66-5.64,22.6-11.22,32.83-16.75,17.11-9.26,34.86-19.16,53.24-29.7h0s.79-.46.79-.46c.21-.12.37-.3.48-.51,4.88-6.49.19-42.08.19-42.08Z"/>
  </g>
</svg>