<?xml version="1.0" encoding="UTF-8"?>
<svg id="_图层_1" data-name="图层 1" xmlns="http://www.w3.org/2000/svg" viewBox="0 0 271.08 253.41">
  <defs>
    <style>
      .cls-1 {
        fill: #ff0019;
      }

      .cls-1, .cls-2 {
        stroke-width: 0px;
      }

      .cls-2 {
        fill: #af0011;
      }
    </style>
  </defs>
  <polygon class="cls-2" points="136.15 206.74 65.44 206.98 53.43 253.41 0 253.41 11.96 207.18 25.34 155.4 65.54 0 65.54 0 95.94 89.02 78.83 155.21 118.51 155.07 136.15 206.74"/>
  <polygon class="cls-1" points="205.54 253.41 152.1 253.41 136.15 206.74 118.51 155.07 95.94 89.02 65.54 0 118.97 0 171.88 154.89 175.13 164.41 189.53 206.55 205.54 253.41"/>
  <polygon class="cls-2" points="271.08 0 231.08 154.68 217.69 206.45 205.54 253.41 205.54 253.41 189.53 206.55 175.13 164.41 177.6 154.86 217.65 0 271.08 0"/>
</svg>