<?xml version="1.0" encoding="UTF-8"?><svg id="_图层_1" xmlns="http://www.w3.org/2000/svg" viewBox="0 0 256 256.94"><defs><style>.cls-1{fill:#222426;fill-rule:evenodd;}.cls-1,.cls-2,.cls-3{stroke-width:0px;}.cls-2{fill:#ff5398;}.cls-3{fill:#fff;}</style></defs><path class="cls-1" d="M52.36,0h151.27c28.92,0,52.36,22.82,52.36,50.97v154.07c0,28.15-23.44,50.97-52.36,50.97H52.36c-28.92,0-52.36-22.82-52.36-50.97V50.97C0,22.82,23.44,0,52.36,0Z"/><path class="cls-2" d="M84.56,146.52c0,13.88-2.21,20.82-6.64,20.82-2.71,0-4.92-4.18-6.64-12.56-1.28-7.71-2.64-15.42-4.07-23.12-2-8.24-4.64-12.36-7.92-12.36-4.85,0-9.35,7.78-13.49,23.34-2.43,9.97-4.78,19.95-7.07,29.92-1.14,3.86-2.29,5.79-3.43,5.79-4.85,0-8.57-10.28-11.14-30.83-1.71-13.88-2.57-26.69-2.57-38.43,0-2.27.43-4.47,1.28-6.61,1.14-2.93,2.78-4.4,4.93-4.4,3.71,0,8.78,3.4,15.2,10.21,6.56-6.27,11.06-9.41,13.49-9.41,9.28,0,16.56,6.01,21.84,18.02,4.14,9.48,6.21,19.35,6.21,29.63Z"/><path class="cls-3" d="M104.94,162.47c0,10.9-2.24,19.3-6.73,25.21-4.49,5.9-10.91,8.86-19.26,8.86-3.09,0-6.1-.69-9.02-2.08v-9.93c3.27,1.95,6.37,2.92,9.28,2.92,9.9,0,14.85-7.74,14.85-23.23v-65.4h10.87v63.65ZM99.64,81.95c-1.95,0-3.6-.65-4.97-1.95-1.37-1.3-2.06-2.94-2.06-4.93s.68-3.64,2.06-4.96c1.37-1.32,3.03-1.98,4.97-1.98s3.68.66,5.07,1.98c1.39,1.32,2.09,2.97,2.09,4.96s-.7,3.53-2.09,4.87c-1.39,1.34-3.08,2.01-5.07,2.01Z"/><path class="cls-3" d="M175.56,165.26h-10.87v-10.38h-.27c-4.73,7.96-11.69,11.94-20.89,11.94-6.76,0-12.06-1.75-15.88-5.26-3.82-3.5-5.74-8.15-5.74-13.95,0-12.41,7.47-19.64,22.41-21.67l20.36-2.79c0-11.29-4.66-16.93-13.99-16.93-8.18,0-15.56,2.73-22.15,8.18v-10.9c6.67-4.15,14.37-6.23,23.07-6.23,15.96,0,23.94,8.26,23.94,24.79v43.21ZM164.68,131.65l-16.38,2.21c-5.04.69-8.84,1.91-11.4,3.67-2.56,1.75-3.85,4.86-3.85,9.31,0,3.24,1.18,5.89,3.55,7.95,2.36,2.05,5.51,3.08,9.45,3.08,5.39,0,9.85-1.85,13.36-5.55s5.27-8.38,5.27-14.05v-6.62Z"/><path class="cls-3" d="M249.42,98.82l-27.05,66.44h-10.67l-25.73-66.44h11.93l17.24,48.27c1.28,3.55,2.08,6.64,2.39,9.28h.26c.44-3.33,1.15-6.34,2.12-9.02l18.04-48.53h11.47Z"/></svg>