<?xml version="1.0" encoding="UTF-8"?>
<svg id="_图层_1" data-name="图层 1" xmlns="http://www.w3.org/2000/svg" xmlns:xlink="http://www.w3.org/1999/xlink" viewBox="0 0 256 256">
  <defs>
    <style>
      .cls-1, .cls-2, .cls-3, .cls-4 {
        stroke-width: 0px;
      }

      .cls-2 {
        fill: #ff9c9c;
        fill-rule: evenodd;
      }

      .cls-3 {
        clip-rule: evenodd;
        fill: none;
      }

      .cls-4 {
        fill: #fff;
      }

      .cls-5 {
        clip-path: url(#clippath);
      }
    </style>
    <clipPath id="clippath">
      <path class="cls-3" d="m52.36,0h151.27c28.92,0,52.36,22.82,52.36,50.97v154.07c0,28.15-23.44,50.97-52.36,50.97H52.36c-28.92,0-52.36-22.82-52.36-50.97V50.97C0,22.82,23.44,0,52.36,0Z"/>
    </clipPath>
  </defs>
  <path class="cls-2" d="m52.36,0h151.27c28.92,0,52.36,22.82,52.36,50.97v154.07c0,28.15-23.44,50.97-52.36,50.97H52.36c-28.92,0-52.36-22.82-52.36-50.97V50.97C0,22.82,23.44,0,52.36,0Z"/>
  <g class="cls-5">
    <g>
      <path class="cls-1" d="m130.44,126.99c-.01.71-.06,1.41-.13,2.08-.29,2.74-1.07,5.29-2.31,7.59-1.51,2.82-3.7,5.29-6.51,7.3-5.13,3.66-12.18,5.66-19.3,5.66-2.71,0-5.43-.29-8.06-.88-1.17-.26-2.31-.57-3.44-.91-1.82-.55-3.58-1.2-5.29-1.93-13.59-5.78-23.66-16.5-28.92-23.1-.88-1.1-.69-2.7.4-3.57,1.1-.87,2.7-.69,3.57.4,5.07,6.36,14.91,16.84,28.03,22.04,0,0,0,0,.01,0,.13.06.27.11.41.16,0,0,0,0,0,0,2.04.79,4.15,1.44,6.34,1.94,8.07,1.82,17.43.23,23.28-3.95,3.95-2.83,6.21-6.63,6.71-11.3.06-.52.09-1.07.1-1.63.03-1.39,1.16-2.5,2.54-2.5.02,0,.03,0,.05,0,.02,0,.04,0,.06,0,1.38.06,2.46,1.2,2.43,2.59Z"/>
      <path class="cls-1" d="m181.63,276.16h-107.27l1.71-3.63c7.65-16.25,11.67-43.5,11.62-78.83-.03-22.86-1.76-42.37-2.3-47.81-.09-.95-.15-1.47-.15-1.51-.15-1.4.86-2.65,2.25-2.8.34-.04.67,0,.98.08,0,0,0,0,.01,0,.14.04.28.1.41.16,0,0,0,0,0,0,.75.37,1.3,1.11,1.4,2,0,.06.16,1.47.38,3.99.69,7.64,2.06,25.41,2.09,45.82.02,15.96-.77,30.4-2.36,42.94-1.75,13.87-4.5,25.44-8.17,34.49h91.48c-3.67-9.05-6.41-20.62-8.17-34.49-1.59-12.53-2.38-26.98-2.36-42.94.03-20.42,1.4-38.19,2.09-45.83.23-2.51.38-3.93.38-3.98.1-.9.66-1.65,1.42-2.01.12-.06.25-.11.37-.14.32-.1.66-.13,1.01-.09,1.4.15,2.4,1.41,2.25,2.8,0,.03-.06.55-.15,1.51-.53,5.44-2.27,24.95-2.3,47.81-.04,35.33,3.97,62.58,11.62,78.83l1.71,3.63Z"/>
      <g>
        <path class="cls-4" d="m173.74,271.07h-91.48c3.67-9.05,6.41-20.62,8.17-34.49,1.59-12.53,2.38-26.98,2.36-42.94-.03-20.41-1.4-38.18-2.09-45.82,1.13.34,2.27.65,3.44.91,2.63.59,5.35.88,8.06.88,7.13,0,14.18-1.99,19.3-5.66,2.81-2.01,5-4.47,6.51-7.3,1.51,2.82,3.69,5.29,6.5,7.3,5.13,3.66,12.17,5.66,19.3,5.66,2.71,0,5.43-.29,8.06-.88,1.17-.26,2.31-.57,3.44-.91-.69,7.64-2.07,25.41-2.09,45.83-.02,15.96.77,30.4,2.36,42.94,1.75,13.87,4.5,25.44,8.17,34.49Z"/>
        <path class="cls-1" d="m199.52,122.79c-5.25,6.6-15.33,17.32-28.92,23.1-1.71.73-3.47,1.38-5.29,1.92-1.13.34-2.27.65-3.44.91-2.63.59-5.35.88-8.06.88-7.13,0-14.18-1.99-19.3-5.66-2.81-2.01-5-4.47-6.5-7.3-1.23-2.31-2.01-4.85-2.31-7.59-.07-.67-.11-1.36-.13-2.08-.03-1.38,1.06-2.53,2.44-2.59.02,0,.04,0,.06,0,1.41-.03,2.56,1.09,2.59,2.49,0,.56.04,1.11.1,1.63.5,4.67,2.76,8.47,6.71,11.3,5.86,4.19,15.21,5.77,23.28,3.95,2.2-.5,4.32-1.16,6.37-1.95.13-.05.25-.1.37-.14,13.13-5.2,22.98-15.68,28.05-22.05.88-1.1,2.48-1.28,3.58-.4,1.1.88,1.28,2.47.4,3.57Z"/>
      </g>
    </g>
  </g>
</svg>