<?xml version="1.0" encoding="UTF-8"?>
<svg id="_图层_1" data-name="图层 1" xmlns="http://www.w3.org/2000/svg" viewBox="0 0 256 256">
  <defs>
    <style>
      .cls-1 {
        fill: #0092ff;
      }

      .cls-1, .cls-2 {
        stroke-width: 0px;
      }

      .cls-2 {
        fill: #fff;
        fill-rule: evenodd;
      }
    </style>
  </defs>
  <path class="cls-2" d="m52.36,0h151.27c28.92,0,52.36,22.82,52.36,50.97v154.07c0,28.15-23.44,50.97-52.36,50.97H52.36c-28.92,0-52.36-22.82-52.36-50.97V50.97C0,22.82,23.44,0,52.36,0Z"/>
  <g>
    <path class="cls-1" d="m54.18,200.99c-.69,0-1.38-.13-2.04-.38l-10.48-4.05c-.25-.1-.5-.22-.74-.35-3.63-2.04-4.35-6.53-4.47-14.64,0-.68.1-1.35.33-1.98l43.09-120.82c.58-1.62,1.86-2.89,3.49-3.46.6-.21,1.23-.31,1.85-.31,1.06,0,2.11.3,3.03.88,9.66,6.11,11.6,13.55,11.41,18.96.29,1.77.26,3.16-.09,4.42-.05.19-.12.39-.19.58l-26.94,69.29-12.78,47.65c-.42,1.55-1.47,2.86-2.91,3.59-.8.41-1.69.61-2.57.61Z"/>
    <path class="cls-1" d="m124.14,197.95c-.99,0-1.99-.02-3-.06-.06,0-.13,0-.19-.01-14.01-1.02-23.91-5.16-29.43-12.3-4.61-5.96-6.06-13.75-4.33-23.13.03-.16.07-.32.11-.47,3.14-11.41,12.93-24,29.94-38.49.07-.06.14-.12.21-.17,1.33-1.03,2.43-1.91,3.34-2.67l-1.78-2.73c-.11-.17-.22-.36-.31-.54-2.39-4.72-2.46-10.93-.23-18.96.01-.05.03-.11.05-.16,5.64-18.17,17.4-30.51,34.96-36.68.1-.03.19-.07.29-.09,4.25-1.24,8.24-1.87,11.84-1.87.79,0,1.57.03,2.32.09,10.08.79,17.57,6.38,21.67,16.19.31.65.58,1.18.82,1.61.21-.15.44-.32.68-.51,4.15-3.63,11.22-6.48,21.59-8.7.4-.08.79-.13,1.19-.13,1.71,0,3.35.78,4.44,2.15,1.34,1.69,1.6,3.99.68,5.94-4.39,9.3-12.06,16.95-22.79,22.74-1.3.93-4.23,2.76-12.81,7.45-12.02,6.91-19.4,11.5-23.93,14.56,6.44,5.16,11.41,9.9,15.07,14.37,7.1,6.82,9.36,15.48,6.54,25.08-2.79,9.48-9.8,18.16-21.44,26.54-10.18,7.28-22.12,10.97-35.5,10.97Zm-15.63-27.14c.43.37,1.14.91,2.29,1.6.2.12.4.26.58.4,2.32,1.82,5.89,2.78,10.63,2.85,13.1-.87,24.09-5.08,33.56-12.89,1.58-1.49,2.41-2.33,2.82-2.78,1.22-5.15-.6-8.54-6.13-11.55-.2-.11-.39-.22-.57-.35l-14.55-10.32c-6.43,4.39-12.78,9.01-18.93,13.78-4.26,3.3-7.2,8.6-8.74,15.74-.02.11-.05.22-.08.32l-.89,3.21Zm56.59-88.76c-1.58.66-4.93,2.36-11.46,6.75-6.54,4.29-10.49,8.77-11.78,13.36-.4,1.42-.53,2.38-.57,2.99l28.02-17.04c-.98-1.44-1.98-2.83-3-4.16-.13-.17-.25-.34-.35-.52-.34-.56-.63-1.02-.87-1.38Z"/>
  </g>
</svg>