<?xml version="1.0" encoding="UTF-8"?>
<svg id="_图层_1" data-name="图层 1" xmlns="http://www.w3.org/2000/svg" viewBox="0 0 256 256">
  <defs>
    <style>
      .cls-1 {
        fill: #fff;
        fill-rule: evenodd;
      }

      .cls-1, .cls-2 {
        stroke-width: 0px;
      }

      .cls-2 {
        fill: #e60012;
      }
    </style>
  </defs>
  <path class="cls-1" d="m52.36,0h151.27c28.92,0,52.36,22.82,52.36,50.97v154.07c0,28.15-23.44,50.97-52.36,50.97H52.36c-28.92,0-52.36-22.82-52.36-50.97V50.97C0,22.82,23.44,0,52.36,0Z"/>
  <path class="cls-2" d="m230.79,57.39c-5.2-7.5-13.75-11.97-22.87-11.97h-83.56l-21.1,54.75h-25.06c-1.16,0-4.77.09-8.24.24-7.26.32-9.37.69-11.36,1.41-19.79,7.13-34.19,23.92-37.58,43.84-2.18,12.81.36,26.21,7.15,37.73,6.69,11.36,17.2,20.32,29.59,25.23,2.09.83,4.4,1.29,11.86,1.68,3.58.19,7.35.29,8.58.29h108.16l32.35-86.78,15.28-40.8c3.2-8.54,2-18.12-3.19-25.61Zm-8.71,21.15l-15.28,40.8-29.27,78.52h-99.33c-1.91,0-13.98-.36-15.75-1.06-20.21-8.02-32.36-28.63-28.89-49.01,2.62-15.4,13.87-28.43,29.35-34.01,1.64-.59,13.55-.89,15.3-.89h64.79l-11.16,30.22h-50.56c-4.11,2.12-7.06,5.77-7.74,9.74-.95,5.59,2.42,11.59,8.03,14.79h74.9l29.68-79.29h-64.69l11.65-30.22h74.84c4.95,0,9.6,2.43,12.42,6.5s3.47,9.27,1.73,13.91Z"/>
</svg>