<svg version="1.1" id="Layer_1" xmlns="http://www.w3.org/2000/svg" xmlns:xlink="http://www.w3.org/1999/xlink" x="0px" y="0px"
	 width="100%" viewBox="0 0 56 56" enable-background="new 0 0 56 56" xml:space="preserve">
<path fill="#010100" opacity="1.000000" stroke="none" 
	d="
M1.000001,54.000000 
	C1.000000,37.979103 1.000000,21.958210 1.155155,5.292054 
	C1.206873,4.097862 1.103436,3.548931 1.000000,3.000000 
	C0.390256,-0.029198 2.689569,1.035878 3.959975,1.032109 
	C20.327431,0.983554 36.695084,1.000000 53.533279,1.360179 
	C55.002583,3.146905 56.001289,4.573453 57.000000,6.000001 
	C57.000000,21.020895 57.000000,36.041790 56.686497,51.637653 
	C54.915329,53.808414 53.457664,55.404205 52.000000,57.000000 
	C36.645771,57.000000 21.291542,57.000000 5.259678,56.758217 
	C3.388028,55.677624 2.194015,54.838810 1.000001,54.000000 
M24.554602,45.430637 
	C24.710350,44.006290 24.866098,42.581940 25.944929,41.028526 
	C29.417297,41.018673 32.889671,41.011288 36.362030,40.998425 
	C42.608799,40.975277 44.316410,38.229710 41.997997,31.508942 
	C41.997997,31.508942 41.957050,31.135277 41.292355,30.645050 
	C30.174921,30.446760 19.057671,30.235495 7.939663,30.077581 
	C7.146147,30.066311 6.347077,30.446121 5.550589,30.644091 
	C5.986432,31.418283 6.422274,32.192474 7.137836,33.591335 
	C11.743443,37.772228 16.349052,41.953117 21.237917,46.690369 
	C22.216421,46.471760 23.194927,46.253147 24.554602,45.430637 
M16.360300,26.781891 
	C17.213615,27.184086 18.063501,27.927322 18.920773,27.935936 
	C27.899588,28.026154 36.880898,28.079422 45.858131,27.934069 
	C47.602699,27.905821 49.332687,26.977139 51.982571,26.193874 
	C50.024738,25.044455 49.071716,24.484945 47.814610,23.309011 
	C43.578583,19.526060 39.342560,15.743110 34.597111,11.528803 
	C34.476620,13.378732 34.356133,15.228660 33.978188,17.894630 
	C32.320019,18.262333 30.671032,18.887825 29.001888,18.947268 
	C24.745842,19.098837 20.480795,18.997738 16.163233,18.997738 
	C16.163233,20.753029 16.163233,21.904039 16.029041,23.784748 
	C16.073967,24.523188 16.118895,25.261627 16.360300,26.781891 
z"/>
<path fill="#111C0B" opacity="1.000000" stroke="none" 
	d="
M57.000000,5.500038 
	C56.001289,4.573453 55.002583,3.146905 54.001938,1.360179 
	C57.970249,0.105714 56.914841,2.980598 57.000000,5.500038 
z"/>
<path fill="#11231C" opacity="1.000000" stroke="none" 
	d="
M52.499962,57.000000 
	C53.457664,55.404205 54.915329,53.808414 56.686497,52.106312 
	C57.000000,53.578960 57.000000,55.157921 57.000000,57.000000 
	C55.670567,57.000000 54.335243,57.000000 52.499962,57.000000 
z"/>
<path fill="#131D17" opacity="1.000000" stroke="none" 
	d="
M1.000001,54.500000 
	C2.194015,54.838810 3.388028,55.677624 4.791020,56.758217 
	C3.748004,56.170658 0.685187,58.962959 1.000001,54.500000 
z"/>
<path fill="#172514" opacity="1.000000" stroke="none" 
	d="
M1.000000,3.333333 
	C1.103436,3.548931 1.206873,4.097862 1.155155,4.823397 
	C1.000000,4.555555 1.000000,4.111111 1.000000,3.333333 
z"/>
<path fill="#FC8704" opacity="1.000000" stroke="none" 
	d="
M42.035618,31.881317 
	C44.316410,38.229710 42.608799,40.975277 36.362030,40.998425 
	C32.889671,41.011288 29.417297,41.018673 25.244570,41.024498 
	C24.544210,41.020470 24.049263,41.067032 23.808537,41.320518 
	C22.696758,43.094006 21.825708,44.614006 20.954659,46.134010 
	C16.349052,41.953117 11.743443,37.772228 7.061123,33.371735 
	C6.984411,33.152138 7.191960,33.066856 7.558949,32.892632 
	C9.876280,32.480099 11.824467,32.057606 13.777329,32.034760 
	C23.196068,31.924580 32.616066,31.922041 42.035618,31.881317 
z"/>
<path fill="#80BC0E" opacity="1.000000" stroke="none" 
	d="
M16.163233,23.055052 
	C16.163233,21.904039 16.163233,20.753029 16.163233,18.997738 
	C20.480795,18.997738 24.745842,19.098837 29.001888,18.947268 
	C30.671032,18.887825 32.320019,18.262333 34.284561,17.155403 
	C34.762802,14.930838 34.934666,13.445498 35.106533,11.960158 
	C39.342560,15.743110 43.578583,19.526060 47.629478,23.819172 
	C45.264141,24.885477 43.093838,25.870127 40.901951,25.920792 
	C33.000103,26.103432 25.090986,25.971375 17.130352,25.649902 
	C16.771803,24.579433 16.467518,23.817244 16.163233,23.055052 
z"/>
<path fill="#8ABA2B" opacity="1.000000" stroke="none" 
	d="
M17.184614,25.958179 
	C25.090986,25.971375 33.000103,26.103432 40.901951,25.920792 
	C43.093838,25.870127 45.264141,24.885477 47.781521,24.127386 
	C49.071716,24.484945 50.024738,25.044455 51.982571,26.193874 
	C49.332687,26.977139 47.602699,27.905821 45.858131,27.934069 
	C36.880898,28.079422 27.899588,28.026154 18.920773,27.935936 
	C18.063501,27.927322 17.213615,27.184086 16.517323,26.382065 
	C16.844435,25.974216 17.014524,25.966198 17.184614,25.958179 
z"/>
<path fill="#190000" opacity="1.000000" stroke="none" 
	d="
M6.921264,33.059402 
	C6.422274,32.192474 5.986432,31.418283 5.550589,30.644091 
	C6.347077,30.446121 7.146147,30.066311 7.939663,30.077581 
	C19.057671,30.235495 30.174921,30.446760 41.160267,30.843452 
	C31.034666,31.031214 21.039997,30.946100 11.049057,31.101164 
	C9.753501,31.121271 8.477187,32.381214 7.191960,33.066856 
	C7.191960,33.066856 6.984411,33.152138 6.921264,33.059402 
z"/>
<path fill="#DD8624" opacity="1.000000" stroke="none" 
	d="
M7.558949,32.892632 
	C8.477187,32.381214 9.753501,31.121271 11.049057,31.101164 
	C21.039997,30.946100 31.034666,31.031214 41.492615,31.088566 
	C41.957050,31.135277 41.997997,31.508942 42.016808,31.695129 
	C32.616066,31.922041 23.196068,31.924580 13.777329,32.034760 
	C11.824467,32.057606 9.876280,32.480099 7.558949,32.892632 
z"/>
<path fill="#D78839" opacity="1.000000" stroke="none" 
	d="
M21.096287,46.412189 
	C21.825708,44.614006 22.696758,43.094006 23.787479,41.733261 
	C24.062578,43.273190 24.118006,44.653862 24.173431,46.034538 
	C23.194927,46.253147 22.216421,46.471760 21.096287,46.412189 
z"/>
<path fill="#73943D" opacity="1.000000" stroke="none" 
	d="
M34.851822,11.744480 
	C34.934666,13.445498 34.762802,14.930838 34.413292,16.747383 
	C34.356133,15.228660 34.476620,13.378732 34.851822,11.744480 
z"/>
<path fill="#340200" opacity="1.000000" stroke="none" 
	d="
M24.364017,45.732590 
	C24.118006,44.653862 24.062578,43.273190 24.028208,41.479774 
	C24.049263,41.067032 24.544210,41.020470 24.783028,41.089031 
	C24.866098,42.581940 24.710350,44.006290 24.364017,45.732590 
z"/>
<path fill="#99C334" opacity="1.000000" stroke="none" 
	d="
M17.130352,25.649902 
	C17.014524,25.966198 16.844435,25.974216 16.419083,25.991152 
	C16.118895,25.261627 16.073967,24.523188 16.096138,23.419899 
	C16.467518,23.817244 16.771803,24.579433 17.130352,25.649902 
z"/>
</svg>