<?xml version="1.0" encoding="UTF-8"?><svg id="_图层_1" xmlns="http://www.w3.org/2000/svg" viewBox="0 0 256 256"><defs><style>.cls-1{fill:#34b9e2;}.cls-1,.cls-2{stroke-width:0px;}.cls-2{fill:none;fill-rule:evenodd;}</style></defs><path class="cls-2" d="M52.36,0h151.27c28.92,0,52.36,22.82,52.36,50.97v154.07c0,28.15-23.44,50.97-52.36,50.97H52.36c-28.92,0-52.36-22.82-52.36-50.97V50.97C0,22.82,23.44,0,52.36,0Z"/><path class="cls-1" d="M231.14,187.9c-5.52,8.71-12.22,16.63-19.92,23.53-7.7,6.91-16.29,12.71-25.55,17.25-9.28,4.56-19.15,7.8-29.29,9.63l-3.9.68c-.76.12-1.56.2-2.41.29-.46.05-.92.09-1.34.14l-3.96.41h-.09c-.35.05-.77.07-1.21.08l-6.48.23c-.55.02-1.15.01-1.73,0l-2.05-.04c-2.12-.02-4.24-.18-6.48-.36l-1.16-.09c-6.02-.63-10.86-1.44-15.25-2.54l-1.91-.44c-.39-.1-.78-.21-1.17-.32l-4.37-1.25c-.63-.22-1.27-.43-1.9-.64-1.87-.62-3.63-1.21-5.34-1.92l-.07-.03c-19.39-7.54-36.23-20.28-48.7-36.84-6.35-8.44-11.41-17.5-15.05-26.92l-.04-.09c-.7-1.69-1.28-3.43-1.9-5.28-.22-.65-.44-1.3-.66-1.95l-1.25-4.38c-.11-.38-.22-.77-.32-1.16l-.46-1.96c-.4-1.61-.76-3.29-1.1-5.08h10.56c.2.94.41,1.85.63,2.74l.39,1.69c.1.39.21.78.32,1.16l1.09,3.83.06.2c.22.63.43,1.27.65,1.9.5,1.51,1.02,3.08,1.67,4.64,3.29,8.52,7.88,16.72,13.64,24.39,11.31,15.03,26.58,26.59,44.18,33.44,1.57.66,3.15,1.19,4.67,1.7.63.2,1.25.41,1.87.63l4.01,1.15c.39.11.77.22,1.16.32l1.7.39c5.03,1.26,10.02,1.9,13.81,2.3h.12c.46.04.91.08,1.36.11,1.82.15,3.69.29,5.61.3l1.63.04c.33.01.68.02,1.05.02.3,0,.61,0,.92-.02l5.44-.19c.47-.01,1-.03,1.58-.1l3.37-.35c.38-.05.75-.09,1.13-.12.77-.08,1.57-.15,2.43-.3l3.36-.59c9.23-1.67,18.18-4.61,26.6-8.74,8.4-4.12,16.2-9.38,23.19-15.65,6.99-6.27,13.07-13.45,18.09-21.36h-8.39c-4.14,5.91-8.96,11.32-14.35,16.16-6.52,5.84-13.78,10.75-21.61,14.58-7.84,3.85-16.16,6.58-24.74,8.13l-3.31.59c-.6.1-1.24.16-1.93.23-.42.04-.85.09-1.23.13l-3.37.35h-.1c-.25.05-.57.06-.92.07l-5.5.19h-.08c-.44.03-.92.02-1.4,0l-1.69-.04h-.08c-1.67,0-3.35-.14-5.13-.28-.44-.04-.89-.07-1.33-.1-5.28-.57-9.24-1.23-12.83-2.13l-1.67-.38c-.31-.09-.62-.17-.93-.26l-3.74-1.07c-.62-.22-1.24-.42-1.87-.63-1.48-.49-2.88-.96-4.22-1.53l-.09-.04c-16.17-6.29-30.8-17.35-41.18-31.15-5.39-7.16-9.66-14.82-12.72-22.75l-.04-.1c-.56-1.32-1.02-2.72-1.51-4.18-.21-.64-.42-1.27-.64-1.9l-.89-3.14c-.06-.2-.12-.41-.18-.61-.09-.3-.17-.61-.25-.91l-.39-1.68c-.09-.35-.17-.71-.25-1.07h10.63v.06s.03.07.03.07c.09.33.18.65.27.97.04.15.09.3.14.48l.76,2.68.07.22c.21.58.4,1.16.59,1.74.39,1.19.81,2.41,1.33,3.65,2.7,7.02,6.5,13.82,11.3,20.21,9.24,12.29,22.25,22.15,36.65,27.76,1.25.53,2.49.94,3.68,1.34.57.19,1.15.38,1.71.58l3.39.97c.31.09.62.18.93.26l1.42.32c3.97,1,8.01,1.53,11.44,1.91h.14c.47.04.93.08,1.4.12,1.41.11,2.87.22,4.38.22l1.3.04c.28.01.59.02.91.02.26,0,.54,0,.81-.02l4.45-.15c.39,0,.87-.02,1.4-.09l2.77-.3c.31-.04.63-.07.94-.09.64-.06,1.3-.12,2.03-.25l2.75-.49c15.33-2.74,29.61-9.74,41.28-20.22,2.93-2.63,5.67-5.46,8.2-8.45h-9.45c-1.1,1.12-2.24,2.2-3.42,3.26-10.7,9.62-23.79,16.04-37.84,18.55l-2.73.49c-.44.07-.94.12-1.47.17-.38.04-.75.07-1.08.11l-2.78.3-.14.02c-.14.02-.39.02-.63.03l-4.58.16h-.1c-.31.02-.68.01-1.07,0l-1.4-.04h-.1s-.03,0-.03,0c-1.24,0-2.51-.1-3.85-.2-.46-.03-.92-.07-1.39-.1-3.19-.36-6.92-.84-10.45-1.74l-1.4-.31c-.23-.06-.46-.13-.68-.2-.18-.05-.36-.1-.53-.15l-2.57-.73c-.58-.2-1.16-.4-1.74-.59-1.13-.38-2.19-.73-3.2-1.16l-.1-.05c-13.23-5.14-25.18-14.18-33.66-25.46-4.42-5.89-7.91-12.14-10.38-18.58l-.05-.12c-.42-.99-.78-2.05-1.15-3.17-.2-.59-.39-1.18-.6-1.77l-.63-2.24h134.01l60.31.55-.37-14.38-.25-8.3-.41-8.36c-.01-.73-.1-1.44-.18-2.06l-.83-6.79v-.07c-.02-.09-.03-.18-.04-.28-.03-.28-.07-.63-.15-1l-1.55-7.54c-.15-.78-.33-1.56-.53-2.37-.19-.73-.4-1.45-.6-2.16l-.83-2.88c-.41-1.33-.85-2.64-1.29-3.9-.18-.54-.37-1.08-.55-1.62l-.03-.08c-.47-1.32-.99-2.61-1.49-3.86-.2-.52-.41-1.04-.62-1.56l-.02-.07c-6-14.4-15.06-27.82-26.2-38.8-11.13-11-24.66-19.9-39.1-25.74-14.42-5.84-30.32-8.83-46.01-8.65h-.02c-21.69.15-43.8,6.69-62.24,18.39-18.73,11.82-33.71,28.49-43.35,48.21-.45.86-.83,1.72-1.2,2.55-.18.39-.35.78-.55,1.21l-.23.5c-.49,1.08-.99,2.19-1.42,3.33l-1.47,3.71-.04.11c-.33.91-.64,1.84-.95,2.76l-1,2.98-.6,2.08c-.11.41-.22.81-.34,1.21-.25.88-.51,1.79-.75,2.72l-.02.08c-.12.54-.25,1.08-.38,1.62-.48,2.06-.98,4.18-1.33,6.36-.03.15-.06.31-.09.47H.4v6.98h218v-3.5c0-1.31-.14-2.63-.39-3.91-.04-.22-.09-.43-.14-.64l-.04-.18c-.03-.15-.07-.3-.11-.44l-.62-2.17c-.25-.81-.52-1.61-.78-2.37-.17-.49-.34-.99-.5-1.48l-.04-.11c-.28-.77-.59-1.54-.89-2.3-.2-.49-.39-.98-.58-1.48l-.04-.1c-4.25-10.2-10.68-19.72-18.59-27.51-7.9-7.81-17.49-14.12-27.72-18.25-10.34-4.19-21.33-6.25-32.6-6.13h-.02c-15.56.12-30.8,4.62-44.09,13.02-13.14,8.29-24.07,20.46-30.78,34.23-2.58,5.24-4.59,10.72-6.02,16.35h-10.66c1.62-7.22,4.09-14.24,7.38-20.92,7.54-15.47,19.8-29.11,34.53-38.41,14.69-9.31,32.27-14.5,49.5-14.62l-.02-2.54.03,2.54c12.48-.15,25.16,2.24,36.62,6.88,11.5,4.64,22.26,11.73,31.13,20.49,8.87,8.74,16.08,19.42,20.86,30.88,4.33,10.35,6.81,21.7,7.24,33.05H.4v6.98h237.71v-3.5c0-13.41-2.72-26.98-7.85-39.23-5.12-12.3-12.87-23.77-22.4-33.16-9.51-9.4-21.07-17.01-33.41-22-12.3-4.99-25.87-7.54-39.3-7.39h-.02c-18.78.14-37.16,5.57-53.17,15.7-16.04,10.12-28.86,24.39-37.07,41.24-3.76,7.65-6.52,15.71-8.25,24h-10.55c.3-1.72.7-3.44,1.12-5.23.13-.54.25-1.08.38-1.62.21-.81.44-1.62.68-2.48.12-.42.24-.83.34-1.23l.54-1.85.96-2.89c.3-.87.59-1.73.89-2.59l1.46-3.71c.36-.97.8-1.93,1.26-2.95l.21-.47c.2-.42.39-.85.58-1.27.34-.78.67-1.51,1.03-2.19l.05-.09c9.06-18.57,23.18-34.27,40.82-45.42,17.37-11.02,38.18-17.17,58.58-17.3l-.02-3.49.04,3.49c14.79-.17,29.75,2.64,43.31,8.14,13.6,5.49,26.34,13.87,36.82,24.24,10.48,10.33,19,22.95,24.65,36.49.2.52.41,1.04.62,1.56.5,1.24.96,2.42,1.4,3.61.18.54.36,1.08.55,1.63.43,1.26.84,2.46,1.19,3.62l.81,2.84c.2.66.38,1.32.55,1.96.17.67.31,1.33.45,2.01l1.55,7.59c.03.12.04.25.05.37.02.15.04.3.06.44l.83,6.78c.07.51.13,1,.14,1.39l.41,8.41.25,8.26.18,7.14-53.11-.49H.4v6.98h18.58c.42,2.39.88,4.61,1.41,6.72l.45,1.94.02.07c.12.46.25.92.38,1.38l1.28,4.48.06.18c.23.65.44,1.31.67,1.97.62,1.87,1.27,3.81,2.06,5.71,3.87,10.01,9.24,19.62,15.97,28.57,13.25,17.59,31.12,31.12,51.71,39.14,1.93.8,3.88,1.45,5.77,2.08.64.21,1.29.42,1.93.65l4.64,1.34c.46.13.92.26,1.38.38l1.97.46c4.68,1.16,9.83,2.02,16.2,2.7l1.3.1c2.27.18,4.62.36,6.93.38l1.96.05c.39.01.79.02,1.21.02.33,0,.67,0,1-.02l6.43-.23c.54-.02,1.15-.04,1.8-.12l3.97-.41c.42-.05.85-.09,1.27-.14.92-.09,1.87-.18,2.88-.35l3.95-.69c10.81-1.95,21.29-5.39,31.15-10.23,9.83-4.82,18.97-10.99,27.14-18.32,8.17-7.33,15.29-15.73,21.16-24.99,1.9-3.01,3.67-6.1,5.3-9.27h-7.92c-1.03,1.87-2.13,3.71-3.28,5.53ZM66.73,93.87c6.15-12.64,16.18-23.79,28.23-31.39,12.2-7.72,26.18-11.84,40.43-11.94l-.02-2.99.04,2.99c10.38-.11,20.43,1.77,29.92,5.62,9.39,3.79,18.18,9.58,25.44,16.75,7.24,7.14,13.13,15.84,17.03,25.18.19.51.39,1.02.6,1.53.27.68.54,1.35.79,2.04.17.52.34,1.03.52,1.54.25.73.49,1.42.7,2.1l.49,1.74s.02.08.03.12H61.67c1.27-4.56,2.96-9,5.06-13.28Z"/></svg>