<?xml version="1.0" encoding="UTF-8"?>
<svg id="_图层_1" data-name="图层 1" xmlns="http://www.w3.org/2000/svg" viewBox="0 0 256 256">
  <defs>
    <style>
      .cls-1, .cls-2, .cls-3, .cls-4, .cls-5 {
        stroke-width: 0px;
      }

      .cls-1, .cls-4, .cls-5 {
        fill-rule: evenodd;
      }

      .cls-3, .cls-5 {
        fill: #fff;
      }

      .cls-4 {
        fill: #2287f0;
      }
    </style>
  </defs>
  <g>
    <path class="cls-1" d="m66.08,256C29.64,256,0,226.87,0,191.07v-126.13C0,29.13,29.64,0,66.08,0h123.85c36.43,0,66.08,29.13,66.08,64.93v126.13c0,35.8-29.64,64.93-66.08,64.93h-123.85Z"/>
    <g>
      <path class="cls-2" d="m87.49,199.62c-21.19,0-38.6-6.41-51.74-19.06-9.21-8.86-20.18-24.91-20.18-51.11,0-20.92,7.42-39.14,21.47-52.69,14.01-13.52,32.18-20.38,53.99-20.38,12.84,0,24.47,1.92,34.57,5.71,9.06,3.39,15.07,12.06,15.07,21.73v18.92c0,1.78-.2,3.54-.6,5.23,2.94,3.89,4.69,8.74,4.69,13.99v46.54c0,8.33-4.46,16.02-11.69,20.15-12.75,7.28-28.08,10.98-45.58,10.98Z"/>
      <path class="cls-2" d="m183.16,199.62c-21.19,0-38.6-6.41-51.74-19.06-9.21-8.86-20.18-24.91-20.18-51.11,0-20.92,7.43-39.14,21.47-52.69,14.01-13.52,32.18-20.38,53.99-20.38,12.84,0,24.47,1.92,34.58,5.71,9.06,3.39,15.07,12.06,15.07,21.73v18.92c0,1.78-.2,3.54-.6,5.23,2.94,3.89,4.69,8.73,4.69,13.99v46.54c0,8.33-4.46,16.02-11.69,20.15-12.75,7.28-28.08,10.98-45.58,10.98Z"/>
    </g>
  </g>
  <g>
    <path class="cls-5" d="m66.08,244.4c-30.04,0-54.47-23.92-54.47-53.33v-126.13c0-29.4,24.44-53.33,54.47-53.33h123.85c30.04,0,54.47,23.92,54.47,53.33v126.13c0,29.41-24.44,53.33-54.47,53.33h-123.85Z"/>
    <g>
      <path class="cls-3" d="m87.49,188.01c-18.09,0-32.79-5.32-43.7-15.81-11.03-10.61-16.62-25-16.62-42.75s6.03-32.87,17.92-44.34c11.78-11.36,27.23-17.12,45.94-17.12,11.44,0,21.7,1.67,30.5,4.97,4.53,1.7,7.53,6.03,7.53,10.87v18.92c0,3.17-1.3,6.17-3.52,8.32,4.44,1.63,7.61,5.89,7.61,10.9v46.54c0,4.16-2.23,8.01-5.85,10.07-10.97,6.27-24.37,9.45-39.82,9.45Zm3.11-80.02c-4.18,0-7.59.82-10.44,2.56.69-.13,1.41-.2,2.14-.2h24c-4.51-1.57-9.76-2.36-15.7-2.36Z"/>
      <path class="cls-3" d="m183.16,188.01c-18.09,0-32.79-5.32-43.7-15.81-11.03-10.61-16.62-25-16.62-42.75s6.03-32.87,17.93-44.34c11.78-11.36,27.23-17.12,45.94-17.12,11.44,0,21.7,1.67,30.51,4.97,4.53,1.7,7.53,6.03,7.53,10.87v18.92c0,3.17-1.3,6.17-3.52,8.32,4.44,1.63,7.61,5.89,7.61,10.9v46.54c0,4.16-2.23,8.01-5.85,10.07-10.97,6.27-24.37,9.45-39.82,9.45Zm3.11-80.02c-4.18,0-7.59.82-10.44,2.56.69-.13,1.41-.2,2.14-.2h24c-4.51-1.57-9.76-2.36-15.7-2.36Z"/>
    </g>
  </g>
  <g>
    <path class="cls-4" d="m66.08,23.21h123.85c23.68,0,42.87,18.68,42.87,41.73v126.13c0,23.04-19.19,41.73-42.87,41.73h-123.85c-23.68,0-42.87-18.68-42.87-41.73v-126.13c0-23.04,19.19-41.73,42.87-41.73Z"/>
    <g>
      <path class="cls-3" d="m121.56,168.49c-9.24,5.28-20.59,7.92-34.07,7.92-15.06,0-26.94-4.19-35.65-12.57-8.71-8.38-13.06-19.84-13.06-34.39s4.79-26.74,14.38-35.99c9.58-9.25,22.21-13.87,37.88-13.87,10.09,0,18.9,1.41,26.43,4.23v18.92c-7.33-4.23-16.28-6.35-26.86-6.35-9.12,0-16.5,2.94-22.16,8.82-5.66,5.88-8.49,13.64-8.49,23.27s2.55,17.43,7.66,22.91c5.11,5.48,12.08,8.22,20.91,8.22,5.25,0,9.54-.81,12.88-2.42v-19.22h-19.11v-16.02h39.25v46.54Z"/>
      <path class="cls-3" d="m217.22,168.49c-9.24,5.28-20.59,7.92-34.07,7.92-15.06,0-26.94-4.19-35.65-12.57-8.71-8.38-13.06-19.84-13.06-34.39s4.79-26.74,14.38-35.99c9.58-9.25,22.21-13.87,37.88-13.87,10.09,0,18.9,1.41,26.43,4.23v18.92c-7.33-4.23-16.28-6.35-26.86-6.35-9.12,0-16.5,2.94-22.16,8.82-5.66,5.88-8.49,13.64-8.49,23.27s2.55,17.43,7.66,22.91c5.11,5.48,12.08,8.22,20.91,8.22,5.25,0,9.54-.81,12.88-2.42v-19.22h-19.11v-16.02h39.25v46.54Z"/>
    </g>
  </g>
</svg>