<?xml version="1.0" encoding="UTF-8"?>
<svg id="_图层_1" data-name="图层 1" xmlns="http://www.w3.org/2000/svg" viewBox="0 0 256 256">
  <defs>
    <style>
      .cls-1 {
        fill: #fefefe;
      }

      .cls-1, .cls-2 {
        stroke-width: 0px;
      }

      .cls-2 {
        fill: #1e73be;
        fill-rule: evenodd;
      }
    </style>
  </defs>
  <path class="cls-2" d="m52.36,0h151.27c28.92,0,52.36,22.82,52.36,50.97v154.07c0,28.15-23.44,50.97-52.36,50.97H52.36c-28.92,0-52.36-22.82-52.36-50.97V50.97C0,22.82,23.44,0,52.36,0Z"/>
  <g>
    <path class="cls-1" d="m122.74,60.65c-.1-2.29-1.23-3.05-3.38-2.28-1.68.61-3.2,1.66-4.55,3.15-5.13,5.61-8.89,12.17-11.29,19.68-3.82,11.93-7,24.21-9.52,36.82-.09.44-.36.7-.8.78-1.41.26-2.89.36-4.44.3-9.8-.36-18.01-.64-24.61-.84-.05,0-.1,0-.15-.02-.02,0-.03-.02-.05-.03-.04-.02-.08-.04-.12-.06-.04-.02-.07-.04-.1-.07-.03-.03-.06-.06-.08-.09-.03-.03-.05-.07-.07-.11-.02-.04-.03-.08-.04-.12-.01-.04-.02-.09-.02-.13,0-.07,0-.13.01-.2,2.82-10.83,5.02-20.55,6.6-29.16.48-2.59,1.27-5.3,2.39-8.14,1.71-4.31,5.06-15.61-2.78-16.45-1.21-.13-3.01-.16-5.41-.08-11.88.38-22.92,2.64-33.11,6.78-5.51,2.25-9.77,5.32-12.78,9.22-2.57,3.32-3.61,7.15-3.12,11.5,0,0,.18.94.55,2.79.83,4.2,2.68,4.72,5.57,1.55,6.95-7.63,16.08-11.28,27.37-10.95.07,0,.14.02.21.04,0,0,.02.01.02.01.05.02.08.05.12.08.03.02.07.04.1.07.03.03.05.07.07.1.02.04.05.07.07.11.02.04.02.08.03.12.01.05.02.09.02.14,0,.08,0,.16-.04.24-4.16,11.29-7.64,23.08-10.43,35.37-.21.91-.83,1.67-1.69,2.05-8.68,3.81-15.05,6.53-18.75,16.07-.06.16-.1.33-.13.5,0,.05,0,.09,0,.14-.01.12-.01.24,0,.37,0,.02,0,.05,0,.07,0,.04.02.07.02.11.01.08.03.16.05.24.02.07.04.14.07.21.03.07.06.13.09.2.03.07.07.13.11.19.04.06.08.12.12.18.04.06.09.11.14.17.05.05.1.11.16.15.06.05.11.09.17.14.06.04.12.08.18.12.07.04.14.08.22.11.06.03.11.05.17.07.12.04.23.07.36.09.05,0,.09.02.14.03.17.02.34.02.51,0l12.46-1.4c.07,0,.15,0,.22,0,0,0,.02,0,.03.01.05.01.09.04.14.06.04.02.08.03.11.06.04.03.06.06.09.1.03.03.06.06.09.1.02.04.03.08.05.12.02.05.04.09.05.14.01.08.02.17,0,.26-3.4,16-6.41,32.24-5.14,48.36.14,1.75.54,3.57,1.21,5.45,1.6,4.48,10,2.24,13.88,1.21,6.55-1.75,7.32-5.49,7.69-12.12.91-15.72,3.26-31.29,7.07-46.73.15-.58.52-.85,1.11-.83l29.05,1.22c.06,0,.12,0,.17.02.05,0,.08.04.13.05.07.02.15.05.21.09.06.04.12.08.17.13.05.05.11.1.15.15.05.06.08.12.11.19.03.06.06.13.08.2.02.07.03.15.04.23,0,.1.02.21,0,.32-2.23,11.3-3.54,22.34-3.92,33.14-.27,7.24.35,12.54,1.86,15.87,2.76,6.14,8.48,8.56,17.17,7.24,4.72-.72,4.32-7.5,4.28-10.98-.15-11.14.91-22.61,1.86-30.26,1.48-11.76,4.96-36.25,10.45-73.47.93-6.24,1.24-12.99.95-20.26Z"/>
    <path class="cls-1" d="m240.53,155.97c-.33-2.49-1.58-3.05-3.74-1.69-.22.15-.41.32-.58.52-3.99,4.86-8.13,9.63-12.45,14.32-2.09,2.27-4.48,4.14-7.17,5.61-.19.11-.4.17-.62.22-.01.01-.04.03-.07.03-.04.01-.08,0-.12.01-.08.01-.18.03-.26.03h-.23c-.08-.01-.17-.01-.25-.03-.08-.01-.15-.03-.23-.04-.08-.03-.15-.04-.22-.07-.08-.03-.15-.07-.23-.1-.07-.03-.14-.07-.21-.11-.07-.04-.14-.08-.19-.12-.07-.05-.14-.11-.19-.17-.05-.05-.12-.11-.18-.17-.04-.05-.1-.11-.14-.18-.05-.07-.11-.14-.15-.22-.04-.06-.07-.11-.1-.18-.1-.19-.18-.39-.22-.61-1.1-5.36-.78-10.89.96-16.58,5.36-17.48,8.35-27.26,8.98-29.34,1.9-6.36,3.47-13.52,4.7-21.5,2.09-13.47,0-32.96-13.15-40.3-3.58-1.99-7.9-3.11-12.94-3.37-20.51-1.05-36.19,24.39-43.19,40.48-3.52,8.09-5.98,14.51-7.41,19.26-.29.94-1.06,1.65-2.02,1.83-9.73,1.83-23.1,7.29-25.98,17.69-.05.19-.07.4-.07.61v.07s0,.04.01.07c0,.07.01.14.03.22.01.05.03.12.04.18.03.07.05.12.07.19.03.05.05.12.1.18.03.06.05.11.1.17.04.05.07.11.11.17.04.05.1.1.14.14l.14.14c.06.04.11.08.17.12.06.04.11.07.18.11.06.03.11.05.17.07.07.04.14.07.21.08.04.01.1.03.14.04.19.04.39.07.61.06,4.83-.29,11.02-1.14,18.58-2.54.12-.03.25-.01.37.01h.01s.05.03.1.04c.08.03.15.05.22.1.05.04.08.08.14.14.04.04.08.07.11.12.06.07.07.15.1.23.01.03.04.07.04.11.03.11.03.25,0,.37-3.18,13.99-5.67,26.67-5.64,40.96,0,3.29.5,6.3,1.47,9.01,3.04,8.5,11.76,3.99,17.03.3,3.74-2.6,5.64-5.96,5.71-10.04.22-14.62,1.13-28.74,2.71-42.35.08-.74.73-1.29,1.47-1.27l29.11,1.24c.92.04,1.27.5,1.03,1.39-2.24,8.4-4.11,16.88-5.61,25.43-1.51,8.6-1.42,25.2,9.57,27.5,6.69,1.4,13.18.01,19.49-4.17,6.82-4.53,12.19-10.22,16.12-17.11,3.05-5.38,4.18-11.14,3.36-17.32Zm-37.26-34.39c-.1.33-.4.55-.74.55-3.7-.07-12.2-.17-25.49-.32-2.42-.03-4.64-.21-6.64-.55-.47-.08-.66-.36-.55-.83,2.15-9.99,5.98-18.65,11.51-25.98,3.7-4.91,8.54-7.66,14.53-8.24,16.75-1.64,9.64,27.28,7.39,35.37Z"/>
  </g>
</svg>