<?xml version="1.0" encoding="UTF-8"?>
<svg id="_图层_1" data-name="图层 1" xmlns="http://www.w3.org/2000/svg" viewBox="0 0 257.11 256">
  <defs>
    <style>
      .cls-1 {
        fill: #00cce8;
      }

      .cls-1, .cls-2, .cls-3, .cls-4, .cls-5 {
        stroke-width: 0px;
      }

      .cls-2 {
        fill: #0078ad;
      }

      .cls-3 {
        fill: #f1bf0a;
      }

      .cls-4 {
        fill: #ffa001;
      }

      .cls-5 {
        fill: none;
        fill-rule: evenodd;
      }
    </style>
  </defs>
  <path class="cls-5" d="M53.47,0h151.27c28.92,0,52.36,22.82,52.36,50.97v154.07c0,28.15-23.44,50.97-52.36,50.97H53.47c-28.92,0-52.36-22.82-52.36-50.97V50.97C1.11,22.82,24.56,0,53.47,0Z"/>
  <g>
    <path class="cls-1" d="M168.51,28.47v55.22h-56.75v-26.98c0-15.6,13-28.24,29.03-28.24h27.73Z"/>
    <path class="cls-3" d="M111.76,175.6v55.2c-.46.02-.92.02-1.39.02-20.18,0-39.08-5.27-55.36-14.47v-40.75h56.74Z"/>
    <path class="cls-4" d="M25.58,28.46C11.45,28.46,0,39.61,0,53.36v70.04c0,18.95,5.04,36.74,13.89,52.19,9.69,16.93,23.93,31.03,41.13,40.75V28.46h-29.43Z"/>
    <path class="cls-1" d="M168.51,175.6v39.12c-16.51,9.99-35.94,15.85-56.75,16.08v-55.2h56.75Z"/>
    <path class="cls-2" d="M220.52,28.46h-52.01v186.25c11.3-6.82,21.24-15.58,29.33-25.8,13.03-16.44,21.26-36.67,22.68-58.69.15-2.25.23-4.53.23-6.82s-.08-4.57-.23-6.82v-32.91c16.06-.27,28.98-13.02,28.98-28.7v-26.51h-28.98Z"/>
  </g>
</svg>