<svg
  t="1725162818828"
  class="icon"
  viewBox="0 0 1024 1024"
  version="1.1"
  xmlns="http://www.w3.org/2000/svg"
  p-id="2348"
  width="256"
  height="256"
>
  <path
    d="M853.32992 0C947.6096 0 1024 76.40064 1024 170.67008v682.65984C1024 947.6096 947.59936 1024 853.32992 1024H170.67008C76.3904 1024 0 947.59936 0 853.32992V170.67008C0 76.3904 76.40064 0 170.67008 0h682.65984zM671.744 225.28H507.0848v116.3264h48.3328V602.112c0 35.86048-8.9088 61.0304-26.7264 75.49952l-1.9456 1.50528h-19.6608c-12.01152 0-22.1184-4.096-30.3104-12.288-7.60832-7.60832-11.6736-16.86528-12.22656-27.76064l-0.06144-2.54976H348.16c0 21.2992 4.22912 41.64608 12.6976 61.0304a163.71712 163.71712 0 0 0 34.4064 50.7904 163.71712 163.71712 0 0 0 50.7904 34.4064c19.38432 8.46848 39.7312 12.6976 61.0304 12.6976 19.11808 0 37.2736-2.59072 54.4768-7.7824 17.2032-5.19168 32.90112-14.05952 47.104-26.624 4.9152 0 9.8304-4.63872 14.7456-13.9264 7.09632-4.37248 12.56448-9.14432 16.384-14.336 3.81952-5.19168 7.91552-11.60192 12.288-19.2512 4.9152-9.8304 9.4208-20.61312 13.5168-32.3584 3.64544-10.4448 5.66272-20.992 6.07232-31.6416l0.07168-3.9936V225.28z"
    fill="#FE628E"
    p-id="2349"
  ></path>
</svg>