<svg
  t="1725158673299"
  class="icon"
  viewBox="0 0 1024 1024"
  version="1.1"
  xmlns="http://www.w3.org/2000/svg"
  p-id="2472"
  width="256"
  height="256"
>
  <path
    d="M931.926704 60.543066h-837.138686c-16.496117 0-29.89781 13.386745-29.897811 29.89781v837.138686c0 16.511066 13.401693 29.89781 29.897811 29.89781h837.138686c16.526015 0 29.89781-13.386745 29.89781-29.89781v-837.138686c0-16.511066-13.371796-29.89781-29.89781-29.89781zM637.037127 536.776315c0 42.978102-5.197734 76.263334-15.591708 99.854202s-26.861688 41.57739-49.401647 53.956578-48.992047 18.56953-79.357757 18.56953c-45.079918 0-79.590961-12.963691-103.533127-38.891072s-35.445349-64.467153-34.511043-115.620811l61.314429-8.40876c1.63541 39.240876 8.993261 66.102564 22.073554 80.583568s31.181921 21.722254 54.306382 21.722254c17.050721 0 31.766423-3.912128 44.145612-11.73788s20.904549-18.452928 25.576082-31.883025 7.008047-34.860847 7.008046-64.292251V186.762651h67.971177v350.013664z"
    fill="#CC0000"
    p-id="2473"
  ></path>
</svg>