<?xml version="1.0" encoding="UTF-8"?>
<svg id="_图层_1" data-name="图层 1" xmlns="http://www.w3.org/2000/svg" viewBox="0 0 258.01 258.01">
  <defs>
    <style>
      .cls-1 {
        fill: #498be3;
      }

      .cls-1, .cls-2, .cls-3, .cls-4, .cls-5, .cls-6, .cls-7, .cls-8, .cls-9, .cls-10, .cls-11, .cls-12 {
        stroke-width: 0px;
      }

      .cls-2 {
        fill: #ffe4d1;
      }

      .cls-3 {
        fill: #4886d9;
      }

      .cls-4 {
        fill: #619ff2;
      }

      .cls-5 {
        fill: #1d5cad;
      }

      .cls-6 {
        fill: #691952;
      }

      .cls-7 {
        fill: #144b91;
      }

      .cls-8 {
        fill: #246fd1;
      }

      .cls-9 {
        fill: #fff;
      }

      .cls-10 {
        fill: #5497f0;
      }

      .cls-11 {
        fill: none;
        fill-rule: evenodd;
      }

      .cls-12 {
        fill: #c7369d;
      }
    </style>
  </defs>
  <path class="cls-11" d="M52.78,0h152.46c29.15,0,52.78,23,52.78,51.37v155.28c0,28.37-23.63,51.37-52.78,51.37H52.78c-29.15,0-52.78-23-52.78-51.37V51.37C0,23,23.63,0,52.78,0Z"/>
  <g>
    <rect class="cls-8" x="40.69" y="16.42" width="19.63" height="20.32"/>
    <rect class="cls-8" x="60.32" y="16.42" width="19.63" height="20.32"/>
    <rect class="cls-8" x="79.94" y="16.42" width="19.63" height="20.32"/>
    <rect class="cls-8" x="40.69" y="36.74" width="19.63" height="20.32"/>
    <rect class="cls-8" x="60.32" y="36.74" width="19.63" height="20.32"/>
    <rect class="cls-8" x="79.94" y="36.74" width="19.63" height="20.32"/>
    <rect class="cls-8" x="99.57" y="36.74" width="19.63" height="20.32"/>
    <rect class="cls-8" x="119.19" y="36.74" width="19.63" height="20.32"/>
    <rect class="cls-8" x="138.82" y="36.74" width="19.63" height="20.32"/>
    <rect class="cls-8" x="158.44" y="36.74" width="19.63" height="20.32"/>
    <rect class="cls-8" x="178.07" y="36.74" width="19.63" height="20.32"/>
    <rect class="cls-8" x="1.44" y="57.07" width="19.63" height="20.32"/>
    <rect class="cls-8" x="21.07" y="57.07" width="19.63" height="20.32"/>
    <rect class="cls-8" x="40.69" y="57.07" width="19.63" height="20.32"/>
    <rect class="cls-3" x="60.32" y="57.07" width="19.63" height="20.32"/>
    <rect class="cls-3" x="79.94" y="57.07" width="19.63" height="20.32"/>
    <rect class="cls-1" x="99.57" y="57.07" width="19.63" height="20.32"/>
    <rect class="cls-10" x="119.19" y="57.07" width="19.63" height="20.32"/>
    <rect class="cls-10" x="138.82" y="57.07" width="19.63" height="20.32"/>
    <rect class="cls-1" x="158.44" y="57.07" width="19.63" height="20.32"/>
    <rect class="cls-3" x="178.07" y="57.07" width="19.63" height="20.32"/>
    <rect class="cls-8" x="197.69" y="57.07" width="19.63" height="20.32"/>
    <rect class="cls-8" x="1.44" y="77.39" width="19.63" height="20.32"/>
    <rect class="cls-8" x="21.07" y="77.39" width="19.63" height="20.32"/>
    <rect class="cls-3" x="40.69" y="77.39" width="19.63" height="20.32"/>
    <rect class="cls-3" x="60.32" y="77.39" width="19.63" height="20.32"/>
    <rect class="cls-1" x="79.94" y="77.39" width="19.63" height="20.32"/>
    <rect class="cls-10" x="99.57" y="77.39" width="19.63" height="20.32"/>
    <rect class="cls-4" x="119.19" y="77.39" width="19.63" height="20.32"/>
    <rect class="cls-4" x="138.82" y="77.39" width="19.63" height="20.32"/>
    <rect class="cls-10" x="158.44" y="77.39" width="19.63" height="20.32"/>
    <rect class="cls-1" x="178.07" y="77.39" width="19.63" height="20.32"/>
    <rect class="cls-3" x="197.69" y="77.39" width="19.63" height="20.32"/>
    <rect class="cls-8" x="217.32" y="77.39" width="19.63" height="20.32"/>
    <rect class="cls-3" x="21.07" y="97.71" width="19.63" height="20.32"/>
    <rect class="cls-8" x="40.69" y="97.71" width="19.63" height="20.32"/>
    <rect class="cls-8" x="60.32" y="97.71" width="19.63" height="20.32"/>
    <rect class="cls-8" x="79.94" y="97.71" width="19.63" height="20.32"/>
    <rect class="cls-8" x="99.57" y="97.71" width="19.63" height="20.32"/>
    <rect class="cls-8" x="119.19" y="97.71" width="19.63" height="20.32"/>
    <rect class="cls-8" x="138.82" y="97.71" width="19.63" height="20.32"/>
    <rect class="cls-8" x="158.44" y="97.71" width="19.63" height="20.32"/>
    <rect class="cls-8" x="178.07" y="97.71" width="19.63" height="20.32"/>
    <rect class="cls-8" x="197.69" y="97.71" width="19.63" height="20.32"/>
    <rect class="cls-3" x="217.32" y="97.71" width="19.63" height="20.32"/>
    <rect class="cls-8" x="236.95" y="97.71" width="19.63" height="20.32"/>
    <rect class="cls-8" x="21.07" y="118.03" width="19.63" height="20.32"/>
    <rect class="cls-8" x="40.69" y="118.03" width="19.63" height="20.32"/>
    <rect class="cls-8" x="60.32" y="118.03" width="19.63" height="20.32"/>
    <rect class="cls-6" x="79.94" y="118.03" width="19.63" height="20.32"/>
    <rect class="cls-9" x="99.57" y="118.03" width="19.63" height="20.32"/>
    <rect class="cls-2" x="119.19" y="118.03" width="19.63" height="20.32"/>
    <rect class="cls-2" x="138.82" y="118.03" width="19.63" height="20.32"/>
    <rect class="cls-6" x="158.44" y="118.03" width="19.63" height="20.32"/>
    <rect class="cls-9" x="178.07" y="118.03" width="19.63" height="20.32"/>
    <rect class="cls-8" x="197.69" y="118.03" width="19.63" height="20.32"/>
    <rect class="cls-8" x="217.32" y="118.03" width="19.63" height="20.32"/>
    <rect class="cls-3" x="236.95" y="118.03" width="19.63" height="20.32"/>
    <rect class="cls-8" x="21.07" y="138.36" width="19.63" height="20.32"/>
    <rect class="cls-8" x="40.69" y="138.36" width="19.63" height="20.32"/>
    <rect class="cls-2" x="60.32" y="138.36" width="19.63" height="20.32"/>
    <rect class="cls-6" x="79.94" y="138.36" width="19.63" height="20.32"/>
    <rect class="cls-6" x="99.57" y="138.36" width="19.63" height="20.32"/>
    <rect class="cls-2" x="119.19" y="138.36" width="19.63" height="20.32"/>
    <rect class="cls-2" x="138.82" y="138.36" width="19.63" height="20.32"/>
    <rect class="cls-6" x="158.44" y="138.36" width="19.63" height="20.32"/>
    <rect class="cls-6" x="178.07" y="138.36" width="19.63" height="20.32"/>
    <rect class="cls-2" x="197.69" y="138.36" width="19.63" height="20.32"/>
    <rect class="cls-8" x="217.32" y="138.36" width="19.63" height="20.32"/>
    <rect class="cls-8" x="236.95" y="138.36" width="19.63" height="20.32"/>
    <rect class="cls-8" x="21.07" y="158.68" width="19.63" height="20.32"/>
    <rect class="cls-8" x="40.69" y="158.68" width="19.63" height="20.32"/>
    <rect class="cls-2" x="60.32" y="158.68" width="19.63" height="20.32"/>
    <rect class="cls-12" x="79.94" y="158.68" width="19.63" height="20.32"/>
    <rect class="cls-12" x="99.57" y="158.68" width="19.63" height="20.32"/>
    <rect class="cls-2" x="119.19" y="158.68" width="19.63" height="20.32"/>
    <rect class="cls-2" x="138.82" y="158.68" width="19.63" height="20.32"/>
    <rect class="cls-12" x="158.44" y="158.68" width="19.63" height="20.32"/>
    <rect class="cls-12" x="178.07" y="158.68" width="19.63" height="20.32"/>
    <rect class="cls-2" x="197.69" y="158.68" width="19.63" height="20.32"/>
    <rect class="cls-8" x="217.32" y="158.68" width="19.63" height="20.32"/>
    <rect class="cls-8" x="236.95" y="158.68" width="19.63" height="20.32"/>
    <rect class="cls-8" x="40.69" y="179" width="19.63" height="20.32"/>
    <rect class="cls-2" x="60.32" y="179" width="19.63" height="20.32"/>
    <rect class="cls-2" x="79.94" y="179" width="19.63" height="20.32"/>
    <rect class="cls-2" x="99.57" y="179" width="19.63" height="20.32"/>
    <rect class="cls-2" x="119.19" y="179" width="19.63" height="20.32"/>
    <rect class="cls-2" x="138.82" y="179" width="19.63" height="20.32"/>
    <rect class="cls-2" x="158.44" y="179" width="19.63" height="20.32"/>
    <rect class="cls-2" x="178.07" y="179" width="19.63" height="20.32"/>
    <rect class="cls-2" x="197.69" y="179" width="19.63" height="20.32"/>
    <rect class="cls-8" x="217.32" y="179" width="19.63" height="20.32"/>
    <rect class="cls-8" x="40.69" y="199.33" width="19.63" height="20.32"/>
    <rect class="cls-2" x="60.32" y="199.33" width="19.63" height="20.32"/>
    <rect class="cls-2" x="79.94" y="199.33" width="19.63" height="20.32"/>
    <rect class="cls-2" x="99.57" y="199.33" width="19.63" height="20.32"/>
    <rect class="cls-2" x="119.19" y="199.33" width="19.63" height="20.32"/>
    <rect class="cls-2" x="138.82" y="199.33" width="19.63" height="20.32"/>
    <rect class="cls-2" x="158.44" y="199.33" width="19.63" height="20.32"/>
    <rect class="cls-2" x="178.07" y="199.33" width="19.63" height="20.32"/>
    <rect class="cls-2" x="197.69" y="199.33" width="19.63" height="20.32"/>
    <rect class="cls-8" x="217.32" y="199.33" width="19.63" height="20.32"/>
    <rect class="cls-8" x="40.69" y="219.65" width="19.63" height="20.32"/>
    <rect class="cls-8" x="60.32" y="219.65" width="19.63" height="20.32"/>
    <rect class="cls-5" x="79.94" y="219.65" width="19.63" height="20.32"/>
    <rect class="cls-7" x="99.57" y="219.65" width="19.63" height="20.32"/>
    <rect class="cls-2" x="119.19" y="219.65" width="19.63" height="20.32"/>
    <rect class="cls-2" x="138.82" y="219.65" width="19.63" height="20.32"/>
    <rect class="cls-7" x="158.44" y="219.65" width="19.63" height="20.32"/>
    <rect class="cls-5" x="178.07" y="219.65" width="19.63" height="20.32"/>
    <rect class="cls-8" x="197.69" y="219.65" width="19.63" height="20.32"/>
    <rect class="cls-8" x="217.32" y="219.65" width="19.63" height="20.32"/>
  </g>
</svg>