<?xml version="1.0" encoding="UTF-8"?><svg id="_图层_1" xmlns="http://www.w3.org/2000/svg" viewBox="0 0 256 256"><defs><style>.cls-1{fill:#0a0913;fill-rule:evenodd;}.cls-1,.cls-2,.cls-3{stroke-width:0px;}.cls-2{fill:#ff638f;}.cls-3{fill:#fff;}</style></defs><path class="cls-1" d="M52.36,0h151.27c28.92,0,52.36,22.82,52.36,50.97v154.07c0,28.15-23.44,50.97-52.36,50.97H52.36c-28.92,0-52.36-22.82-52.36-50.97V50.97C0,22.82,23.44,0,52.36,0Z"/><path class="cls-3" d="M12.67,157.28v-2.11l4.32-1.58c.3-.09.55-.25.76-.46.21-.22.31-.52.31-.92v-30.48c0-.39-.1-.69-.29-.9-.2-.21-.45-.36-.77-.45l-4.32-1.44v-2.06h14.44l9.39,26.68,1.4,4.9h.45l10.85-31.58h14.24v2.06l-4.26,1.44c-.3.09-.56.25-.79.46-.22.22-.34.51-.34.89v30.65c0,.41.1.72.31.93.21.21.48.37.81.48l4.26,1.38v2.11h-16.6v-2.11l4.26-1.38c.32-.09.58-.25.8-.46.21-.22.32-.53.32-.94v-32.43h-.53l-1.32,4.17-9.56,26.91-2.66,6.25h-2.86l-11.69-33.13-1.29-4.2h-.45v32.26c0,.41.1.72.31.92.21.2.46.35.76.46l4.23,1.58v2.11h-14.5Z"/><path class="cls-3" d="M69.67,157.28v-2.11l4.54-1.38c.34-.11.6-.27.79-.48.19-.21.28-.52.28-.93v-30.65c0-.39-.1-.69-.31-.9-.21-.21-.46-.36-.76-.45l-4.54-1.44v-2.06h17.1v2.06l-4.51,1.44c-.3.09-.56.25-.77.46-.22.22-.32.51-.32.89v30.65c0,.41.11.73.32.94.21.22.47.37.77.46l4.51,1.38v2.11h-17.1Z"/><path class="cls-3" d="M93.59,155.67l-.17-10.79h3.31l1.18,5.83c.06.26.23.53.52.79.29.26.54.47.74.62.71.45,1.49.88,2.33,1.3s1.73.75,2.68,1c.94.25,1.91.38,2.9.38,2.92,0,5.21-.64,6.87-1.92,1.66-1.28,2.5-3.02,2.5-5.24,0-1.67-.5-3.05-1.49-4.14-.99-1.09-2.32-1.98-3.98-2.68-1.61-.68-3.19-1.25-4.75-1.73-1.56-.48-3.09-1.03-4.58-1.65-2.26-.94-4.04-2.26-5.33-3.97-1.29-1.71-1.94-3.78-1.94-6.2,0-2.18.6-4.12,1.81-5.82,1.21-1.7,2.84-3.04,4.89-4.03,2.06-.99,4.36-1.48,6.9-1.48,1.53,0,3,.09,4.39.28,1.39.19,2.72.42,3.98.7,1.26.28,2.46.56,3.6.85v10.34h-3.28l-1.12-5.52c-.06-.26-.22-.52-.5-.77s-.53-.46-.76-.61c-.43-.32-.96-.61-1.58-.89-.63-.27-1.32-.49-2.09-.66-.77-.17-1.59-.25-2.47-.25-2.65,0-4.72.56-6.18,1.69-1.47,1.13-2.2,2.51-2.2,4.14,0,1.47.4,2.83,1.19,4.1.79,1.27,2.32,2.32,4.58,3.17,1.5.54,2.96,1.06,4.4,1.55s3.01,1.09,4.71,1.8c1.25.53,2.45,1.21,3.6,2.06s2.09,1.93,2.83,3.25c.74,1.32,1.11,2.97,1.11,4.94s-.53,4-1.6,5.85c-1.07,1.85-2.75,3.36-5.05,4.52-2.3,1.17-5.31,1.75-9.03,1.75-1.29,0-2.65-.13-4.09-.39-1.44-.26-2.91-.59-4.4-.99-1.5-.39-2.97-.79-4.43-1.18Z"/><path class="cls-3" d="M129.06,155.67l-.17-10.79h3.31l1.18,5.83c.06.26.23.53.52.79s.54.47.74.62c.71.45,1.49.88,2.33,1.3.84.41,1.73.75,2.68,1,.94.25,1.91.38,2.9.38,2.92,0,5.21-.64,6.87-1.92,1.66-1.28,2.5-3.02,2.5-5.24,0-1.67-.5-3.05-1.49-4.14-.99-1.09-2.32-1.98-3.98-2.68-1.61-.68-3.19-1.25-4.75-1.73-1.56-.48-3.09-1.03-4.58-1.65-2.26-.94-4.04-2.26-5.33-3.97-1.29-1.71-1.93-3.78-1.93-6.2,0-2.18.6-4.12,1.81-5.82,1.21-1.7,2.84-3.04,4.89-4.03,2.06-.99,4.36-1.48,6.9-1.48,1.53,0,3,.09,4.39.28,1.39.19,2.72.42,3.98.7s2.46.56,3.6.85v10.34h-3.28l-1.12-5.52c-.06-.26-.22-.52-.5-.77s-.53-.46-.76-.61c-.43-.32-.96-.61-1.58-.89-.63-.27-1.32-.49-2.09-.66s-1.59-.25-2.47-.25c-2.66,0-4.72.56-6.18,1.69s-2.2,2.51-2.2,4.14c0,1.47.4,2.83,1.19,4.1.79,1.27,2.32,2.32,4.58,3.17,1.5.54,2.96,1.06,4.4,1.55s3.01,1.09,4.71,1.8c1.25.53,2.45,1.21,3.6,2.06,1.15.85,2.09,1.93,2.83,3.25.74,1.32,1.11,2.97,1.11,4.94s-.53,4-1.6,5.85c-1.07,1.85-2.75,3.36-5.05,4.52-2.3,1.17-5.31,1.75-9.03,1.75-1.29,0-2.65-.13-4.09-.39-1.44-.26-2.91-.59-4.4-.99-1.5-.39-2.97-.79-4.43-1.18Z"/><path class="cls-2" d="M179.56,117.35h4.57l12.1,34.48c.49,1.37,1.05,2.39,1.66,3.05.61.67,1.46,1,2.57,1h.63v2.34h-13.87v-2.34c1.56,0,2.59-.11,3.08-.34.49-.23.74-.65.74-1.26,0-.57-.25-1.56-.74-2.97l-2.57-7.48h-14.1l-2.97,8.39c-.3.84-.46,1.48-.46,1.94,0,.65.26,1.09.77,1.34.51.25,1.55.37,3.11.37v2.34h-11.65v-2.34c1.45,0,2.47-.27,3.08-.8.61-.53,1.24-1.71,1.88-3.54l12.16-34.2ZM174.65,141.1h12.05l-6.05-18.73-6,18.73Z"/><path class="cls-2" d="M201.26,119.35h14.22v2.34h-1.14c-1.14,0-1.92.11-2.34.34-.42.23-.63.61-.63,1.14s.17,1.28.51,2.23l10.33,27.58,10.39-27.58c.38-.88.57-1.58.57-2.11,0-.57-.22-.98-.66-1.23-.44-.25-1.17-.37-2.2-.37h-1.26v-2.34h12.05v2.34c-1.41,0-2.42.25-3.03.74-.61.5-1.2,1.48-1.77,2.97l-13.25,33.51h-3.94l-13.08-33.51c-.61-1.48-1.21-2.47-1.8-2.97-.59-.49-1.59-.74-3-.74v-2.34Z"/></svg>