<?xml version="1.0" encoding="UTF-8"?>
<svg id="_图层_1" data-name="图层 1" xmlns="http://www.w3.org/2000/svg" viewBox="0 0 256 256">
  <defs>
    <style>
      .cls-1 {
        fill: #ff0019;
        fill-rule: evenodd;
      }

      .cls-1, .cls-2 {
        stroke-width: 0px;
      }

      .cls-2 {
        fill: #fff;
      }
    </style>
  </defs>
  <path class="cls-1" d="M52.36,0h151.27c28.92,0,52.36,22.82,52.36,50.97v154.07c0,28.15-23.44,50.97-52.36,50.97H52.36c-28.92,0-52.36-22.82-52.36-50.97V50.97C0,22.82,23.44,0,52.36,0Z"/>
  <g>
    <path class="cls-2" d="M26.62,128.73c3.83,4.02,7.48,6.95,10.96,8.78,3.47,1.83,7.06,2.74,10.77,2.74,3.08,0,5.53-.73,7.37-2.19,1.83-1.46,2.75-3.39,2.75-5.79,0-3.25-3.7-6.76-11.11-10.54-.71-.37-1.27-.65-1.69-.85-7.2-3.66-12.13-7.17-14.8-10.54-2.66-3.37-4-7.48-4-12.31,0-8.82,3.05-16.03,9.15-21.63,6.1-5.61,13.95-8.41,23.57-8.41,5.08,0,9.96.87,14.64,2.62,4.68,1.75,9.1,4.33,13.27,7.74l-10.49,17.61c-3.29-2.76-6.28-4.81-8.99-6.16-2.71-1.34-5.2-2.01-7.49-2.01-2.5,0-4.58.7-6.24,2.1-1.67,1.4-2.5,3.12-2.5,5.15,0,2.52,3.12,5.34,9.36,8.47,2.21,1.1,3.91,1.99,5.12,2.68,6.41,3.45,10.86,6.98,13.36,10.57,2.5,3.6,3.75,8.1,3.75,13.5,0,9.55-3.39,17.18-10.18,22.88-6.78,5.71-16,8.56-27.66,8.56-6.12,0-11.84-1.27-17.17-3.81-5.33-2.54-10.13-6.31-14.42-11.3l12.67-17.86Z"/>
    <path class="cls-2" d="M98.79,97.89h22.1l-4.12,25.47c-.5,3.37-.9,6.19-1.19,8.44-.29,2.25-.44,3.73-.44,4.42,0,2.93.72,5.16,2.15,6.7,1.44,1.54,3.53,2.32,6.27,2.32,6.41,0,10.74-7.09,12.98-21.27.12-.77.23-1.36.31-1.77l3.93-24.32h22.16l-4.49,27.85-.19,1.28c-2.21,13.2-5.64,22.02-10.3,26.45-2.96,2.76-6.57,4.84-10.83,6.25s-9.08,2.1-14.45,2.1c-9.28,0-16.6-2.05-21.94-6.16-5.35-4.1-8.02-9.67-8.02-16.7,0-1.62.14-3.67.44-6.12.29-2.46.87-6.25,1.75-11.37l3.87-23.59Z"/>
    <path class="cls-2" d="M164.71,186.63l14.42-88.73h20.98l-1.37,8.53c3.12-3.49,6.53-6.11,10.24-7.86,3.7-1.75,7.66-2.62,11.86-2.62,7.28,0,13.23,2.65,17.85,7.95,4.62,5.3,6.93,12.18,6.93,20.63,0,10.65-3.13,19.48-9.4,26.51-6.26,7.03-14.12,10.54-23.57,10.54-4.25,0-8.08-.88-11.52-2.65-3.43-1.77-6.67-4.5-9.71-8.2,0,1.95-.05,3.75-.16,5.39s-.26,3.08-.47,4.3l-4.12,26.21h-21.97ZM222.77,127.27c0-3.94-1.24-7.11-3.72-9.51s-5.71-3.6-9.71-3.6c-4.45,0-8.15,1.67-11.08,5-2.93,3.33-4.4,7.52-4.4,12.55,0,3.82,1.23,6.9,3.68,9.23s5.66,3.5,9.61,3.5c4.54,0,8.27-1.62,11.21-4.85,2.93-3.23,4.4-7.34,4.4-12.34Z"/>
  </g>
</svg>