<?xml version="1.0" encoding="UTF-8"?>
<svg id="_图层_1" data-name="图层 1" xmlns="http://www.w3.org/2000/svg" viewBox="0 0 256 256">
  <defs>
    <style>
      .cls-1 {
        fill: #fffaeb;
        fill-rule: evenodd;
      }

      .cls-1, .cls-2 {
        stroke-width: 0px;
      }

      .cls-2 {
        fill: #946c00;
      }
    </style>
  </defs>
  <path class="cls-1" d="m52.36,0h151.27c28.92,0,52.36,22.82,52.36,50.97v154.07c0,28.15-23.44,50.97-52.36,50.97H52.36c-28.92,0-52.36-22.82-52.36-50.97V50.97C0,22.82,23.44,0,52.36,0Z"/>
  <g>
    <path class="cls-2" d="m29.66,130.34h43.1v-4.1l13.41-8.4h-36.3v-12.5h55.63v12.4l-18.35,12.01v.59h38.37v12.89h-38.37v13.28c0,9.31-5.1,13.96-15.29,13.96h-16.37c-.79-4.49-1.94-9.08-3.45-13.77,4.11.33,8.07.49,11.88.49,3.39,0,5.7-.45,6.95-1.34,1.25-.89,1.87-2.47,1.87-4.71v-7.91H29.66v-12.89Zm37.68-52.83l16.67-3.12c1.08,3.35,2.19,6.9,3.3,10.64h36.44v25.19h-13.81v-12.69H45.64v12.89h-13.81v-25.39h38.17c-.89-2.6-1.78-5.11-2.66-7.52Z"/>
    <path class="cls-2" d="m132.34,128h27.03c1.12-1.27,2.17-2.6,3.16-4h-21.6v-28.81h75.16v28.81h-40.29c-.99,1.37-1.97,2.7-2.96,4h51.73v9.37h-18.99c7.43,5.31,14.71,8.56,21.85,9.76-1.71,2.99-3.55,6.61-5.52,10.84-3.62-1.46-7.13-3.24-10.55-5.32v5.32c0,2.6-.73,4.63-2.19,6.08-1.46,1.45-3.75,2.19-6.86,2.22-3.11.03-6.83,0-11.17-.1-.79-4.82-1.38-8.17-1.78-10.06,2.79.39,4.9.59,6.31.59,2.3,0,3.48-.72,3.55-2.15v-2.15h-14.01v18.75h-13.22v-18.75h-14.01v13.67h-12.23v-13.62c-2.89,1.76-5.89,3.34-8.98,4.74-2.24-4.62-4.18-7.97-5.82-10.06,6.87-2.7,12.92-5.96,18.15-9.76h-16.77v-9.37Zm0-47.65h24.66v-4.79h13.22v4.79h16.77v-4.79h13.22v4.79h25.25v9.37h-25.25v3.52h-13.22v-3.52h-16.77v3.52h-13.22v-3.52h-24.66v-9.37Zm70.52,22.36h-48.72v3.91h48.72v-3.91Zm-48.72,13.77h48.72v-3.91h-48.72v3.91Zm4.09,26.95h13.76v-6.05h-7.3c-2.07,2.15-4.22,4.17-6.46,6.05Zm34.52-6.05h-7.54v6.05h13.81c-2.14-1.89-4.22-3.91-6.26-6.05Z"/>
  </g>
</svg>