<?xml version="1.0" standalone="no"?>
<!DOCTYPE
  svg
  PUBLIC "-//W3C//DTD SVG 1.1//EN" "http://www.w3.org/Graphics/SVG/1.1/DTD/svg11.dtd"
><svg
  t="1723393396220"
  class="icon"
  viewBox="0 0 1024 1024"
  version="1.1"
  xmlns="http://www.w3.org/2000/svg"
  p-id="1882"
  xmlns:xlink="http://www.w3.org/1999/xlink"
  width="256"
  height="256"
>
  <path
    d="M0 0m227.555556 0l568.888888 0q227.555556 0 227.555556 227.555556l0 568.888888q0 227.555556-227.555556 227.555556l-568.888888 0q-227.555556 0-227.555556-227.555556l0-568.888888q0-227.555556 227.555556-227.555556Z"
    fill="#F59E0B"
    p-id="1883"
  ></path>
  <path
    d="M463.94026667 196.15288853v127.00634134H211.9907552v369.24681493h87.38133333v-40.11045973h164.56817814v228.28373333h92.47857813v-228.28373333h165.2963552v36.40888853h91.7504V323.21991147H556.4188448V196.15288853H463.94026667zM299.37208853 566.37060693V409.08420693h164.56817814v157.2864H299.37208853z m422.34311147 0H556.4188448V409.08420693h165.2963552v157.2864z"
    fill="#FFFFFF"
    p-id="1884"
  ></path>
</svg>