<svg
  t="1724696402056"
  class="icon"
  viewBox="0 0 1408 1024"
  version="1.1"
  xmlns="http://www.w3.org/2000/svg"
  p-id="22794"
  width="256"
  height="256"
>
  <path
    d="M760.96 55.936L138.24 390.4l559.36 289.216 656-386.816L792.896 55.936z"
    fill="#ffffff"
    p-id="22795"
    data-spm-anchor-id="a313x.search_index.0.i14.6c1c3a81SEDA9W"
    class="selected"
  ></path>
  <path
    d="M771.264 0.128L125.888 350.912a238.528 238.528 0 0 0-125.568 209.28c0 90.496 53.504 174.912 136.768 215.04l515.584 240.64a84.096 84.096 0 0 0 78.4-3.52l676.8-391.104V262.592L771.2 0.192z m5.056 92.8l497.088 204.992-580.672 336.512-469.12-241.088 552.704-300.416z m-87.232 847.104l-515.2-240.384a156.16 156.16 0 0 1-88.576-139.52c0-45.056 19.968-86.912 53.44-116.096l514.56 264.512a83.84 83.84 0 0 0 81.344-2.048l587.84-340.032v206.72l-633.408 366.848z"
    fill="#ffffff"
    p-id="22796"
    data-spm-anchor-id="a313x.search_index.0.i13.6c1c3a81SEDA9W"
    class="selected"
  ></path>
  <path
    d="M697.6 216.832l303.68 141.76 83.712-61.824-290.048-134.4z"
    fill="#FFFFFF"
    p-id="22797"
  ></path>
</svg>