<?xml version="1.0" standalone="no"?>
<!DOCTYPE
  svg
  PUBLIC "-//W3C//DTD SVG 1.1//EN" "http://www.w3.org/Graphics/SVG/1.1/DTD/svg11.dtd"
><svg
  t="1724534129515"
  class="icon"
  viewBox="0 0 1024 1024"
  version="1.1"
  xmlns="http://www.w3.org/2000/svg"
  p-id="30723"
  xmlns:xlink="http://www.w3.org/1999/xlink"
  width="256"
  height="256"
>
  <path
    d="M819.2 0a204.8 204.8 0 0 1 204.8 204.8v614.4a204.8 204.8 0 0 1-204.8 204.8H204.8a204.8 204.8 0 0 1-204.8-204.8V204.8a204.8 204.8 0 0 1 204.8-204.8h614.4z"
    fill="#00D0BD"
    p-id="30724"
    data-spm-anchor-id="a313x.search_index.0.i16.6d073a814UH7Se"
    class="selected"
  ></path>
  <path
    d="M819.2 51.2H204.8a153.6 153.6 0 0 0-153.344 144.5888L51.2 204.8v614.4a153.6 153.6 0 0 0 144.5888 153.344L204.8 972.8h614.4a153.6 153.6 0 0 0 153.344-144.5888L972.8 819.2V204.8a153.6 153.6 0 0 0-144.5888-153.344L819.2 51.2z"
    fill="#00D0BD"
    p-id="30725"
    data-spm-anchor-id="a313x.search_index.0.i15.6d073a814UH7Se"
    class="selected"
  ></path>
  <path
    d="M790.8864 275.3536v336.0768a41.9328 41.9328 0 0 1-41.8816 41.984h-55.4496V404.1216c0-40.448-32.8192-73.3696-73.216-73.3696H370.8928V275.3536a41.9328 41.9328 0 0 1 41.984-41.8816h336.0768a41.984 41.984 0 0 1 41.984 41.8816z"
    fill="#ffffff"
    p-id="30726"
  ></path>
  <path
    d="M620.2368 370.7392H266.9056a33.3312 33.3312 0 0 0-33.3312 33.3312v353.3312c0 18.432 14.8992 33.3312 33.3312 33.3312h353.3312c18.432 0 33.3312-14.8992 33.3312-33.28V404.0192a33.3312 33.3312 0 0 0-33.28-33.28z m-88.32 289.9968H355.0208a19.968 19.968 0 1 1-0.4096-39.9872h176.896c10.5472 0 19.6096 7.9872 20.3776 18.4832a19.968 19.968 0 0 1-19.968 21.504z m0-120.0128H355.0208a19.968 19.968 0 1 1-0.4096-39.9872h176.896a19.968 19.968 0 1 1 0.4096 39.9872z"
    fill="#ffffff"
    p-id="30727"
  ></path>
</svg>