<?xml version="1.0" standalone="no"?>
<!DOCTYPE
  svg
  PUBLIC "-//W3C//DTD SVG 1.1//EN" "http://www.w3.org/Graphics/SVG/1.1/DTD/svg11.dtd"
><svg
  t="1723896314758"
  class="icon"
  viewBox="0 0 1024 1024"
  version="1.1"
  xmlns="http://www.w3.org/2000/svg"
  p-id="11198"
  xmlns:xlink="http://www.w3.org/1999/xlink"
  width="256"
  height="256"
>
  <path
    d="M394.472352 324.463397c-0.414709 0.934374-0.637422 86.830252-0.494066 190.878591l0.261112 189.178798h2.081223c1.146848 0 14.161531-6.952769 28.922085-15.454295 14.763114-8.498966 29.83598-17.07985 33.496679-19.066356 3.660699-1.989065 7.346998-4.136846 8.191774-4.771709 1.722833-1.295324 4.101007-2.672567 12.287662-7.114044 3.097515-1.681874 6.783813-3.814295 8.191775-4.74355 1.407961-0.926695 3.711898-2.239938 5.119859-2.920879s4.221324-2.270658 6.251349-3.535263c2.030024-1.262045 32.211594-18.623488 67.070155-38.580699 34.858561-19.957211 65.137409-37.377532 67.28519-38.711256a258.936879 258.936879 0 0 1 7.423796-4.415878c1.935307-1.09821 5.245296-2.992558 7.357237-4.216204 2.111942-1.221086 5.45265-3.069356 7.423796-4.108687 1.971146-1.039331 4.275082-2.326976 5.119859-2.859442 4.472197-2.823602 15.63861-9.241346 16.073798-9.241345 0.279032 0 1.727952-0.852457 3.222952-1.891788 1.494999-1.039331 5.252976-3.27671 8.35049-4.968824 5.547367-3.033517 15.428696-8.662802 18.431493-10.503391 0.844777-0.517106 5.846879-3.389347 11.117774-6.379345 11.719358-6.653257 13.055641-10.142441 4.874106-12.72797-1.192927-0.37887-5.09426-2.462652-8.673041-4.636032-3.576222-2.17082-6.666057-3.947411-6.865731-3.947411-0.199675 0-2.803123-1.44636-5.782881-3.215272-5.155698-3.056556-6.955329-4.098447-15.917643-9.218307-2.111942-1.205727-5.222256-3.036077-6.911809-4.065168a180.134566 180.134566 0 0 0-6.655817-3.809175c-1.971146-1.062371-7.63627-4.303242-12.589734-7.195962-4.953464-2.89528-9.295104-5.263215-9.648375-5.263215-0.35071 0-1.367002-0.634863-2.257858-1.410522-0.888296-0.775659-4.610433-3.018157-8.271132-4.981623-8.762639-4.700031-12.74077-6.965568-19.056116-10.861781-2.879921-1.774031-5.572967-3.225511-5.985116-3.225511-0.414709 0-1.976266-0.852457-3.471264-1.891788-1.494999-1.039331-5.252976-3.27159-8.350491-4.958584-4.761469-2.590649-11.977911-6.747974-18.431493-10.610908-0.844777-0.506866-5.45265-3.120554-10.239718-5.80848a1310.159171 1310.159171 0 0 1-10.447073-5.913438c-0.959974-0.563185-6.028634-3.458465-11.26369-6.433103a1146.566869 1146.566869 0 0 1-11.056336-6.333266c-15.692368-9.420541-141.45403-80.758099-143.112864-81.177927-1.579477-0.401909-2.55737-0.046079-3.071916 1.111009"
    fill="#FBFBFB"
    p-id="11199"
  ></path>
  <path
    d="M460.787328 0.931814c0 0.499186-0.921575 1.146848-2.047943 1.441241-1.126369 0.294392-2.047944 1.215967-2.047944 2.047943 0 0.831977-0.921575 1.753552-2.047944 2.047944-1.126369 0.294392-2.047944 1.215967-2.047943 2.047944 0 0.831977-0.921575 1.753552-2.047944 2.047943-1.126369 0.294392-2.047944 1.215967-2.047944 2.047944 0 0.831977-0.921575 1.753552-2.047943 2.047944-1.126369 0.294392-2.047944 1.215967-2.047944 2.047944 0 0.831977-0.921575 1.753552-2.047944 2.047943-1.126369 0.294392-2.047944 1.215967-2.047943 2.047944 0 0.831977-0.921575 1.753552-2.047944 2.047944-1.126369 0.294392-2.047944 1.215967-2.047944 2.047943 0 0.831977-0.921575 1.753552-2.047944 2.047944-1.126369 0.294392-2.047944 1.215967-2.047943 2.047944 0 0.831977-0.921575 1.753552-2.047944 2.047943-1.126369 0.294392-2.047944 1.215967-2.047944 2.047944 0 0.831977-0.921575 1.753552-2.047943 2.047944-1.126369 0.294392-2.047944 1.215967-2.047944 2.047943 0 0.831977-0.921575 1.753552-2.047944 2.047944-1.126369 0.294392-2.047944 1.215967-2.047943 2.047944 0 0.831977-0.921575 1.753552-2.047944 2.047943-1.126369 0.294392-2.047944 1.215967-2.047944 2.047944 0 0.831977-0.921575 1.753552-2.047943 2.047944-1.126369 0.294392-2.047944 1.215967-2.047944 2.047943 0 0.831977-0.921575 1.753552-2.047944 2.047944-1.126369 0.294392-2.047944 1.215967-2.047943 2.047944 0 0.831977-0.921575 1.753552-2.047944 2.047943-1.126369 0.294392-2.047944 1.215967-2.047944 2.047944 0 0.831977-0.921575 1.753552-2.047943 2.047944-1.126369 0.294392-2.047944 1.215967-2.047944 2.047944 0 0.831977-0.921575 1.753552-2.047944 2.047943-1.126369 0.294392-2.047944 1.215967-2.047943 2.047944 0 0.831977-0.921575 1.753552-2.047944 2.047944-1.126369 0.294392-2.047944 1.215967-2.047944 2.047943 0 0.831977-0.921575 1.753552-2.047944 2.047944-1.126369 0.294392-2.047944 1.215967-2.047943 2.047944 0 0.831977-0.921575 1.753552-2.047944 2.047943-1.126369 0.294392-2.047944 1.215967-2.047944 2.047944 0 0.831977-0.921575 1.753552-2.047943 2.047944-1.126369 0.294392-2.047944 1.215967-2.047944 2.047943 0 0.831977-0.921575 1.753552-2.047944 2.047944-1.126369 0.294392-2.047944 1.215967-2.047943 2.047944 0 0.831977-0.921575 1.753552-2.047944 2.047943-1.126369 0.294392-2.047944 1.215967-2.047944 2.047944 0 0.831977-0.921575 1.753552-2.047943 2.047944-1.126369 0.294392-2.047944 1.215967-2.047944 2.047943 0 0.831977-0.921575 1.753552-2.047944 2.047944-1.126369 0.294392-2.047944 1.215967-2.047943 2.047944 0 0.831977-0.921575 1.753552-2.047944 2.047943-1.126369 0.294392-2.047944 1.215967-2.047944 2.047944 0 0.831977-0.921575 1.753552-2.047943 2.047944-1.126369 0.294392-2.047944 1.215967-2.047944 2.047943 0 0.831977-0.921575 1.753552-2.047944 2.047944-1.126369 0.294392-2.047944 1.215967-2.047943 2.047944 0 0.831977-0.921575 1.753552-2.047944 2.047944-1.126369 0.294392-2.047944 1.215967-2.047944 2.047943 0 0.831977-0.921575 1.753552-2.047943 2.047944-1.126369 0.294392-2.047944 1.215967-2.047944 2.047944 0 0.831977-0.921575 1.753552-2.047944 2.047943-1.126369 0.294392-2.047944 1.215967-2.047944 2.047944 0 0.831977-0.921575 1.753552-2.047943 2.047944-1.126369 0.294392-2.047944 1.215967-2.047944 2.047943 0 0.831977-0.921575 1.753552-2.047944 2.047944-1.126369 0.294392-2.047944 1.215967-2.047943 2.047944 0 0.831977-0.921575 1.753552-2.047944 2.047943-1.126369 0.294392-2.047944 1.215967-2.047944 2.047944 0 0.831977-0.921575 1.753552-2.047943 2.047944-1.126369 0.294392-2.047944 1.215967-2.047944 2.047943 0 0.831977-0.921575 1.753552-2.047944 2.047944-1.126369 0.294392-2.047944 1.215967-2.047943 2.047944 0 0.831977-0.921575 1.753552-2.047944 2.047943-1.126369 0.294392-2.047944 1.215967-2.047944 2.047944 0 0.831977-0.921575 1.753552-2.047943 2.047944-1.126369 0.294392-2.047944 1.215967-2.047944 2.047943 0 0.831977-0.921575 1.753552-2.047944 2.047944-1.126369 0.294392-2.047944 1.215967-2.047943 2.047944 0 0.831977-0.921575 1.753552-2.047944 2.047944-1.126369 0.294392-2.047944 1.215967-2.047944 2.047943 0 0.831977-0.921575 1.753552-2.047943 2.047944-1.126369 0.294392-2.047944 1.215967-2.047944 2.047944 0 0.831977-0.921575 1.753552-2.047944 2.047943-1.126369 0.294392-2.047944 1.215967-2.047944 2.047944 0 0.831977-0.921575 1.753552-2.047943 2.047944-1.126369 0.294392-2.047944 1.215967-2.047944 2.047943 0 0.831977-0.921575 1.753552-2.047944 2.047944-1.126369 0.294392-2.047944 1.215967-2.047943 2.047944 0 0.831977-0.921575 1.753552-2.047944 2.047943-1.126369 0.294392-2.047944 1.215967-2.047944 2.047944 0 0.831977-0.921575 1.753552-2.047943 2.047944-1.126369 0.294392-2.047944 1.215967-2.047944 2.047943 0 0.831977-0.921575 1.753552-2.047944 2.047944-1.126369 0.294392-2.047944 1.215967-2.047943 2.047944 0 0.831977-0.921575 1.753552-2.047944 2.047943-1.126369 0.294392-2.047944 1.215967-2.047944 2.047944 0 0.831977-0.921575 1.753552-2.047943 2.047944-1.126369 0.294392-2.047944 1.215967-2.047944 2.047943 0 0.831977-0.921575 1.753552-2.047944 2.047944-1.126369 0.294392-2.047944 1.215967-2.047943 2.047944 0 0.831977-0.921575 1.753552-2.047944 2.047944-1.126369 0.294392-2.047944 1.215967-2.047944 2.047943 0 0.831977-0.921575 1.753552-2.047943 2.047944-1.126369 0.294392-2.047944 1.215967-2.047944 2.047944 0 0.831977-0.921575 1.753552-2.047944 2.047943-1.126369 0.294392-2.047944 1.215967-2.047944 2.047944 0 0.831977-0.921575 1.753552-2.047943 2.047944-1.126369 0.294392-2.047944 1.215967-2.047944 2.047943 0 0.831977-0.921575 1.753552-2.047944 2.047944-1.126369 0.294392-2.047944 1.215967-2.047943 2.047944 0 0.831977-0.921575 1.753552-2.047944 2.047943-1.126369 0.294392-2.047944 1.215967-2.047944 2.047944 0 0.831977-0.921575 1.753552-2.047943 2.047944-1.126369 0.294392-2.047944 1.215967-2.047944 2.047943 0 0.831977-0.921575 1.753552-2.047944 2.047944-1.126369 0.294392-2.047944 1.215967-2.047943 2.047944 0 0.831977-0.921575 1.753552-2.047944 2.047943-1.126369 0.294392-2.047944 1.215967-2.047944 2.047944 0 0.831977-0.921575 1.753552-2.047943 2.047944-1.126369 0.294392-2.047944 1.215967-2.047944 2.047943 0 0.831977-0.921575 1.753552-2.047944 2.047944-1.126369 0.294392-2.047944 1.215967-2.047943 2.047944 0 0.831977-0.921575 1.753552-2.047944 2.047944-1.126369 0.294392-2.047944 1.215967-2.047944 2.047943 0 0.831977-0.921575 1.753552-2.047943 2.047944-1.126369 0.294392-2.047944 1.215967-2.047944 2.047944 0 0.831977-0.921575 1.753552-2.047944 2.047943-1.126369 0.294392-2.047944 1.215967-2.047944 2.047944 0 0.831977-0.921575 1.753552-2.047943 2.047944-1.126369 0.294392-2.047944 1.215967-2.047944 2.047943 0 0.831977-0.921575 1.753552-2.047944 2.047944-1.126369 0.294392-2.047944 1.215967-2.047943 2.047944 0 0.831977-0.921575 1.753552-2.047944 2.047943-2.969518 0.775659-3.051436 10.89506-0.094717 11.668159 1.07517 0.281592 2.18362 1.390042 2.465212 2.465213 0.279032 1.07517 1.190367 1.953226 2.022344 1.953226s1.753552 0.921575 2.047944 2.047944c0.294392 1.126369 1.215967 2.047944 2.047944 2.047943 0.831977 0 1.753552 0.921575 2.047943 2.047944 0.294392 1.126369 1.215967 2.047944 2.047944 2.047944 0.831977 0 1.753552 0.921575 2.047944 2.047943 0.294392 1.126369 1.215967 2.047944 2.047943 2.047944 0.831977 0 1.753552 0.921575 2.047944 2.047944 0.294392 1.126369 1.215967 2.047944 2.047944 2.047943 0.831977 0 1.753552 0.921575 2.047943 2.047944 0.294392 1.126369 1.215967 2.047944 2.047944 2.047944 0.831977 0 1.753552 0.921575 2.047944 2.047943 0.294392 1.126369 1.215967 2.047944 2.047943 2.047944 0.831977 0 1.753552 0.921575 2.047944 2.047944 0.294392 1.126369 1.215967 2.047944 2.047944 2.047944 1.756112 0 2.821042 3.189672 2.047943 6.143831-0.294392 1.126369-1.215967 2.047944-2.047943 2.047943-0.831977 0-1.753552 0.921575-2.047944 2.047944-0.294392 1.126369-1.215967 2.047944-2.047944 2.047944-0.831977 0-1.753552 0.921575-2.047943 2.047943-0.294392 1.126369-1.215967 2.047944-2.047944 2.047944-0.831977 0-1.753552 0.921575-2.047944 2.047944-0.294392 1.126369-1.215967 2.047944-2.047943 2.047943-0.831977 0-1.753552 0.921575-2.047944 2.047944-0.294392 1.126369-1.215967 2.047944-2.047944 2.047944-0.831977 0-1.753552 0.921575-2.047943 2.047943-0.294392 1.126369-1.215967 2.047944-2.047944 2.047944-0.831977 0-1.753552 0.921575-2.047944 2.047944-0.294392 1.126369-1.215967 2.047944-2.047943 2.047943-0.831977 0-1.743312 0.878056-2.022345 1.953227-0.281592 1.07517-1.390042 2.18362-2.465212 2.465212-1.07517 0.279032-1.953226 1.190367-1.953226 2.022344s-0.921575 1.753552-2.047944 2.047944c-1.126369 0.294392-2.047944 1.215967-2.047944 2.047944 0 0.831977-0.921575 1.753552-2.047943 2.047943-1.126369 0.294392-2.047944 1.215967-2.047944 2.047944 0 0.831977-0.921575 1.753552-2.047944 2.047944-1.126369 0.294392-2.047944 1.215967-2.047943 2.047943 0 0.831977-0.921575 1.753552-2.047944 2.047944-1.126369 0.294392-2.047944 1.215967-2.047944 2.047944 0 0.831977-0.921575 1.753552-2.047943 2.047943-1.126369 0.294392-2.047944 1.215967-2.047944 2.047944 0 0.831977-0.921575 1.753552-2.047944 2.047944-1.126369 0.294392-2.047944 1.215967-2.047943 2.047943 0 0.831977-0.921575 1.753552-2.047944 2.047944-1.126369 0.294392-2.047944 1.215967-2.047944 2.047944 0 0.831977-0.921575 1.753552-2.047943 2.047944-1.126369 0.294392-2.047944 1.215967-2.047944 2.047943 0 0.831977-0.921575 1.753552-2.047944 2.047944-1.126369 0.294392-2.047944 1.215967-2.047944 2.047944 0 0.831977-0.921575 1.753552-2.047943 2.047943-1.126369 0.294392-2.047944 1.215967-2.047944 2.047944 0 0.831977-0.921575 1.753552-2.047944 2.047944-1.126369 0.294392-2.047944 1.215967-2.047943 2.047943 0 0.831977-0.921575 1.753552-2.047944 2.047944-1.126369 0.294392-2.047944 1.215967-2.047944 2.047944 0 0.831977-0.921575 1.753552-2.047943 2.047943-1.126369 0.294392-2.047944 1.215967-2.047944 2.047944 0 0.831977-0.921575 1.753552-2.047944 2.047944-1.126369 0.294392-2.047944 1.215967-2.047943 2.047943 0 0.831977-0.921575 1.753552-2.047944 2.047944-1.126369 0.294392-2.047944 1.215967-2.047944 2.047944 0 0.831977-0.921575 1.753552-2.047943 2.047943-1.126369 0.294392-2.047944 1.215967-2.047944 2.047944 0 0.831977-0.921575 1.753552-2.047944 2.047944-1.126369 0.294392-2.047944 1.215967-2.047943 2.047943 0 0.831977-0.921575 1.753552-2.047944 2.047944-1.126369 0.294392-2.047944 1.215967-2.047944 2.047944 0 0.831977-0.921575 1.753552-2.047943 2.047944-1.126369 0.294392-2.047944 1.215967-2.047944 2.047943 0 0.831977-0.921575 1.753552-2.047944 2.047944-1.126369 0.294392-2.047944 1.215967-2.047944 2.047944 0 0.831977-0.921575 1.753552-2.047943 2.047943-1.126369 0.294392-2.047944 1.215967-2.047944 2.047944 0 0.831977-0.921575 1.753552-2.047944 2.047944-1.126369 0.294392-2.047944 1.215967-2.047943 2.047943 0 0.831977-0.921575 1.753552-2.047944 2.047944-1.126369 0.294392-2.047944 1.215967-2.047944 2.047944 0 0.831977-0.921575 1.753552-2.047943 2.047943-1.126369 0.294392-2.047944 1.215967-2.047944 2.047944 0 0.831977-0.921575 1.753552-2.047944 2.047944-1.126369 0.294392-2.047944 1.215967-2.047943 2.047943 0 0.831977-0.921575 1.753552-2.047944 2.047944-1.126369 0.294392-2.047944 1.215967-2.047944 2.047944 0 0.831977-0.921575 1.753552-2.047943 2.047943-1.126369 0.294392-2.047944 1.215967-2.047944 2.047944 0 0.831977-0.921575 1.753552-2.047944 2.047944-1.126369 0.294392-2.047944 1.215967-2.047943 2.047943 0 0.831977-0.921575 1.753552-2.047944 2.047944-1.126369 0.294392-2.047944 1.215967-2.047944 2.047944 0 0.831977-0.921575 1.753552-2.047943 2.047943-1.126369 0.294392-2.047944 1.215967-2.047944 2.047944 0 0.831977-0.921575 1.753552-2.047944 2.047944-1.126369 0.294392-2.047944 1.215967-2.047944 2.047944 0 0.831977-0.921575 1.753552-2.047943 2.047943-1.126369 0.294392-2.047944 1.215967-2.047944 2.047944 0 0.831977-0.921575 1.753552-2.047944 2.047944-1.126369 0.294392-2.047944 1.215967-2.047943 2.047943 0 0.831977-0.921575 1.753552-2.047944 2.047944-1.126369 0.294392-2.047944 1.215967-2.047944 2.047944 0 0.831977-0.921575 1.753552-2.047943 2.047943-1.126369 0.294392-2.047944 1.215967-2.047944 2.047944 0 0.831977-0.921575 1.753552-2.047944 2.047944-1.126369 0.294392-2.047944 1.215967-2.047943 2.047943 0 0.831977-0.921575 1.753552-2.047944 2.047944-1.126369 0.294392-2.047944 1.215967-2.047944 2.047944 0 0.831977-0.921575 1.753552-2.047943 2.047943-1.126369 0.294392-2.047944 1.215967-2.047944 2.047944 0 0.831977-0.921575 1.753552-2.047944 2.047944-1.126369 0.294392-2.047944 1.215967-2.047943 2.047943 0 0.831977-0.921575 1.753552-2.047944 2.047944-1.126369 0.294392-2.047944 1.215967-2.047944 2.047944 0 0.831977-0.921575 1.753552-2.047943 2.047943-1.126369 0.294392-2.047944 1.215967-2.047944 2.047944 0 0.831977-0.921575 1.753552-2.047944 2.047944-1.126369 0.294392-2.047944 1.269725-2.047944 2.16826a1.638355 1.638355 0 0 1-1.630675 1.630675c-0.898535 0-1.873868 0.921575-2.16826 2.047944-0.294392 1.126369-1.215967 2.047944-2.047944 2.047944-0.831977 0-1.753552 0.921575-2.047943 2.047943-0.294392 1.126369-1.215967 2.047944-2.047944 2.047944-0.831977 0-1.753552 0.921575-2.047944 2.047944-0.294392 1.126369-1.215967 2.047944-2.047943 2.047943-0.831977 0-1.753552 0.921575-2.047944 2.047944-0.294392 1.126369-1.215967 2.047944-2.047944 2.047944-0.831977 0-1.753552 0.921575-2.047943 2.047944-0.294392 1.126369-0.942054 2.047944-1.441241 2.047943-0.496626 0-0.903655 3.686299-0.903655 8.191775 0 4.505476 0.407029 8.191775 0.903655 8.191775 0.499186 0 1.146848 0.921575 1.441241 2.047943 0.294392 1.126369 1.215967 2.047944 2.047943 2.047944 0.831977 0 1.753552 0.921575 2.047944 2.047944 0.294392 1.126369 1.215967 2.047944 2.047944 2.047943 0.831977 0 1.753552 0.921575 2.047943 2.047944 0.294392 1.126369 1.215967 2.047944 2.047944 2.047944 0.831977 0 1.753552 0.921575 2.047944 2.047943 0.294392 1.126369 1.215967 2.047944 2.047943 2.047944 0.831977 0 1.753552 0.921575 2.047944 2.047944 0.294392 1.126369 1.215967 2.047944 2.047944 2.047943 0.831977 0 1.753552 0.921575 2.047943 2.047944 0.294392 1.126369 1.215967 2.047944 2.047944 2.047944 0.831977 0 1.753552 0.921575 2.047944 2.047944 0.294392 1.126369 1.215967 2.047944 2.047943 2.047943 0.831977 0 1.753552 0.921575 2.047944 2.047944 0.294392 1.126369 1.215967 2.047944 2.047944 2.047944 0.831977 0 1.753552 0.921575 2.047943 2.047943 0.294392 1.126369 1.215967 2.047944 2.047944 2.047944 0.831977 0 1.753552 0.921575 2.047944 2.047944 0.294392 1.126369 1.215967 2.047944 2.047943 2.047943 0.831977 0 1.753552 0.921575 2.047944 2.047944 0.294392 1.126369 1.215967 2.047944 2.047944 2.047944 0.831977 0 1.753552 0.921575 2.047944 2.047943 0.294392 1.126369 1.215967 2.047944 2.047943 2.047944 0.831977 0 1.753552 0.921575 2.047944 2.047944 0.294392 1.126369 1.215967 2.047944 2.047944 2.047943 0.831977 0 1.753552 0.921575 2.047943 2.047944 0.294392 1.126369 1.215967 2.047944 2.047944 2.047944 0.831977 0 1.753552 0.921575 2.047944 2.047943 0.294392 1.126369 1.215967 2.047944 2.047943 2.047944 0.831977 0 1.753552 0.921575 2.047944 2.047944 0.294392 1.126369 1.215967 2.047944 2.047944 2.047943 0.831977 0 1.753552 0.921575 2.047943 2.047944 0.294392 1.126369 1.215967 2.047944 2.047944 2.047944 0.831977 0 1.753552 0.921575 2.047944 2.047944 0.294392 1.126369 1.215967 2.047944 2.047943 2.047943 0.831977 0 1.753552 0.921575 2.047944 2.047944 0.294392 1.126369 1.215967 2.047944 2.047944 2.047944 0.831977 0 1.753552 0.921575 2.047943 2.047943 0.294392 1.126369 1.215967 2.047944 2.047944 2.047944 0.831977 0 1.753552 0.921575 2.047944 2.047944 0.294392 1.126369 1.215967 2.047944 2.047943 2.047943 0.831977 0 1.753552 0.921575 2.047944 2.047944 0.294392 1.126369 1.215967 2.047944 2.047944 2.047944 0.831977 0 1.753552 0.921575 2.047944 2.047943 0.294392 1.126369 1.215967 2.047944 2.047943 2.047944 0.831977 0 1.753552 0.921575 2.047944 2.047944 0.294392 1.126369 1.215967 2.047944 2.047944 2.047943 0.831977 0 1.753552 0.921575 2.047943 2.047944 0.294392 1.126369 1.215967 2.047944 2.047944 2.047944 0.831977 0 1.753552 0.921575 2.047944 2.047943 0.294392 1.126369 1.215967 2.047944 2.047943 2.047944 0.831977 0 1.753552 0.921575 2.047944 2.047944 0.294392 1.126369 1.215967 2.047944 2.047944 2.047943 0.831977 0 1.753552 0.921575 2.047943 2.047944 0.294392 1.126369 1.215967 2.047944 2.047944 2.047944 0.831977 0 1.753552 0.921575 2.047944 2.047943 0.294392 1.126369 1.215967 2.047944 2.047943 2.047944 0.831977 0 1.753552 0.921575 2.047944 2.047944 0.294392 1.126369 1.215967 2.047944 2.047944 2.047944 0.831977 0 1.753552 0.921575 2.047943 2.047943 0.294392 1.126369 1.215967 2.047944 2.047944 2.047944 0.831977 0 1.753552 0.921575 2.047944 2.047944 0.294392 1.126369 1.215967 2.047944 2.047943 2.047943 0.831977 0 1.753552 0.921575 2.047944 2.047944 0.294392 1.126369 1.215967 2.047944 2.047944 2.047944 0.831977 0 1.753552 0.921575 2.047943 2.047943 0.294392 1.126369 1.215967 2.047944 2.047944 2.047944 0.831977 0 1.753552 0.921575 2.047944 2.047944 0.294392 1.126369 1.215967 2.047944 2.047944 2.047943 0.831977 0 1.753552 0.921575 2.047943 2.047944 0.294392 1.126369 1.215967 2.047944 2.047944 2.047944 0.831977 0 1.753552 0.921575 2.047944 2.047943 0.294392 1.126369 1.215967 2.047944 2.047943 2.047944 0.831977 0 1.753552 0.921575 2.047944 2.047944 0.294392 1.126369 1.215967 2.047944 2.047944 2.047943 0.831977 0 1.753552 0.921575 2.047943 2.047944 0.294392 1.126369 1.215967 2.047944 2.047944 2.047944 0.831977 0 1.753552 0.921575 2.047944 2.047943 0.294392 1.126369 1.215967 2.047944 2.047943 2.047944 0.831977 0 1.753552 0.921575 2.047944 2.047944 0.294392 1.126369 1.215967 2.047944 2.047944 2.047944 0.831977 0 1.753552 0.921575 2.047943 2.047943 0.294392 1.126369 1.269725 2.047944 2.168261 2.047944 0.947174 0 1.630675 0.857576 1.630675 2.047944 0 1.364442 0.683501 2.047944 2.047944 2.047943s2.047944 0.683501 2.047943 2.047944 0.683501 2.047944 2.047944 2.047944 2.047944 0.683501 2.047944 2.047943 0.683501 2.047944 2.047943 2.047944 2.047944 0.683501 2.047944 2.047944 0.683501 2.047944 2.047944 2.047943 2.047944 0.683501 2.047943 2.047944 0.683501 2.047944 2.047944 2.047944 2.047944 0.683501 2.047944 2.047943 0.683501 2.047944 2.047943 2.047944 2.047944 0.683501 2.047944 2.047944 0.683501 2.047944 2.047944 2.047943 2.047944 0.683501 2.047943 2.047944 0.683501 2.047944 2.047944 2.047944 2.047944 0.683501 2.047944 2.047943 0.683501 2.047944 2.047944 2.047944 2.047944 0.683501 2.047943 2.047944 0.683501 2.047944 2.047944 2.047944 2.047944 0.683501 2.047944 2.047943 0.683501 2.047944 2.047943 2.047944 2.047944 0.683501 2.047944 2.047944 0.683501 2.047944 2.047944 2.047943 2.047944 0.683501 2.047943 2.047944 0.683501 2.047944 2.047944 2.047944 2.047944 0.683501 2.047944 2.047943 0.683501 2.047944 2.047943 2.047944 2.047944 0.683501 2.047944 2.047944 0.683501 2.047944 2.047944 2.047943 2.047944 0.683501 2.047943 2.047944 0.683501 2.047944 2.047944 2.047944 2.047944 0.683501 2.047944 2.047943 0.683501 2.047944 2.047943 2.047944 2.047944 0.683501 2.047944 2.047944 0.683501 2.047944 2.047944 2.047943 2.047944 0.683501 2.047943 2.047944 0.683501 2.047944 2.047944 2.047944 2.047944 0.683501 2.047944 2.047943 0.683501 2.047944 2.047944 2.047944 2.047944 0.683501 2.047943 2.047944 0.683501 2.047944 2.047944 2.047944 2.047944 0.683501 2.047944 2.047943 0.683501 2.047944 2.047943 2.047944 2.047944 0.683501 2.047944 2.047944 0.683501 2.047944 2.047944 2.047943 2.047944 0.683501 2.047943 2.047944c0 3.007917 11.181773 3.097515 11.965111 0.094717 0.281592-1.07517 1.390042-2.18362 2.465212-2.465212 1.07517-0.279032 1.953226-1.190367 1.953227-2.022344s0.921575-1.753552 2.047943-2.047944c1.126369-0.294392 2.047944-1.215967 2.047944-2.047944 0-0.831977 0.921575-1.753552 2.047944-2.047943 1.126369-0.294392 2.047944-1.215967 2.047943-2.047944 0-0.831977 0.921575-1.753552 2.047944-2.047944 1.126369-0.294392 2.047944-1.215967 2.047944-2.047943 0-0.831977 0.921575-1.753552 2.047944-2.047944 1.126369-0.294392 2.047944-1.215967 2.047943-2.047944 0-0.831977 0.921575-1.753552 2.047944-2.047943 1.126369-0.294392 2.047944-1.269725 2.047944-2.168261 0-0.947174 0.857576-1.630675 2.047943-1.630675 1.364442 0 2.047944-0.683501 2.047944-2.047944s0.683501-2.047944 2.047944-2.047943 2.047944-0.683501 2.047943-2.047944 0.683501-2.047944 2.047944-2.047944c1.190367 0 2.047944 0.683501 2.047944 1.630676 0 0.898535 0.921575 1.873868 2.047943 2.16826 1.126369 0.294392 2.047944 1.215967 2.047944 2.047944 0 0.831977 0.921575 1.753552 2.047944 2.047943 1.126369 0.294392 2.047944 1.215967 2.047943 2.047944 0 0.831977 0.921575 1.753552 2.047944 2.047944 1.126369 0.294392 2.047944 1.215967 2.047944 2.047943 0 0.831977 0.921575 1.753552 2.047943 2.047944 1.126369 0.294392 2.047944 1.215967 2.047944 2.047944 0 0.831977 0.921575 1.753552 2.047944 2.047943 1.126369 0.294392 2.047944 1.215967 2.047943 2.047944 0 0.831977 0.921575 1.753552 2.047944 2.047944 1.126369 0.294392 2.047944 1.215967 2.047944 2.047943 0 0.831977 0.921575 1.753552 2.047944 2.047944 1.126369 0.294392 2.047944 1.215967 2.047943 2.047944 0 0.831977 0.921575 1.753552 2.047944 2.047943 1.126369 0.294392 2.047944 1.215967 2.047944 2.047944 0 0.831977 0.921575 1.753552 2.047943 2.047944 1.126369 0.294392 2.047944 1.215967 2.047944 2.047943 0 0.831977 0.921575 1.753552 2.047944 2.047944 1.126369 0.294392 2.047944 1.215967 2.047943 2.047944 0 0.831977 0.921575 1.753552 2.047944 2.047944 1.126369 0.294392 2.047944 1.215967 2.047944 2.047943 0 0.831977 0.921575 1.753552 2.047943 2.047944 1.126369 0.294392 2.047944 1.215967 2.047944 2.047944 0 0.831977 0.921575 1.753552 2.047944 2.047943 1.126369 0.294392 2.047944 1.215967 2.047943 2.047944 0 0.831977 0.921575 1.753552 2.047944 2.047944 1.126369 0.294392 2.047944 1.215967 2.047944 2.047943 0 0.831977 0.921575 1.753552 2.047943 2.047944 1.126369 0.294392 2.047944 1.215967 2.047944 2.047944 0 0.831977 0.921575 1.753552 2.047944 2.047943 1.126369 0.294392 2.047944 1.215967 2.047943 2.047944 0 0.831977 0.921575 1.753552 2.047944 2.047944 1.126369 0.294392 2.047944 1.215967 2.047944 2.047943 0 0.831977 0.921575 1.753552 2.047943 2.047944 1.126369 0.294392 2.047944 1.215967 2.047944 2.047944 0 0.831977 0.921575 1.753552 2.047944 2.047943 1.126369 0.294392 2.047944 1.215967 2.047944 2.047944 0 0.831977 0.921575 1.753552 2.047943 2.047944 1.126369 0.294392 2.047944 1.215967 2.047944 2.047943 0 0.831977 0.921575 1.753552 2.047944 2.047944 1.126369 0.294392 2.047944 1.215967 2.047943 2.047944 0 0.831977 0.921575 1.753552 2.047944 2.047944 1.126369 0.294392 2.047944 1.215967 2.047944 2.047943 0 0.831977 0.921575 1.753552 2.047943 2.047944 1.126369 0.294392 2.047944 1.215967 2.047944 2.047944 0 0.831977 0.921575 1.753552 2.047944 2.047943 1.126369 0.294392 2.047944 1.215967 2.047943 2.047944 0 0.831977 0.921575 1.753552 2.047944 2.047944 1.126369 0.294392 2.047944 1.215967 2.047944 2.047943 0 0.831977 0.921575 1.753552 2.047943 2.047944 1.126369 0.294392 2.047944 1.215967 2.047944 2.047944 0 0.831977 0.921575 1.753552 2.047944 2.047943 1.126369 0.294392 2.047944 1.215967 2.047943 2.047944 0 0.831977 0.921575 1.753552 2.047944 2.047944 1.126369 0.294392 2.047944 1.215967 2.047944 2.047943 0 0.831977 0.921575 1.753552 2.047943 2.047944 1.126369 0.294392 2.047944 1.215967 2.047944 2.047944 0 0.831977 0.921575 1.753552 2.047944 2.047943 1.126369 0.294392 2.047944 1.215967 2.047944 2.047944 0 0.831977 0.921575 1.753552 2.047943 2.047944 1.126369 0.294392 2.047944 1.187807 2.047944 1.983945s0.73726 1.733072 1.638355 2.078663c2.109382 0.808938 6.074713 4.774269 6.883651 6.883651 0.34559 0.901095 1.336283 1.638355 2.196419 1.638355 0.862696 0 1.569237 0.706541 1.569237 1.569237 0 0.860136 0.71166 1.840589 1.582036 2.17338 2.053064 0.788458 10.270438 9.005832 11.058896 11.058896 0.332791 0.870376 1.313244 1.582036 2.173381 1.582036 0.862696 0 1.569237 0.706541 1.569236 1.569237 0 0.860136 0.73726 1.850829 1.638355 2.19642 2.109382 0.808938 6.074713 4.774269 6.883651 6.88365 0.34559 0.901095 1.336283 1.638355 2.19642 1.638355 0.862696 0 1.569237 0.706541 1.569237 1.569237 0 0.860136 0.73726 1.850829 1.638354 2.19642 2.109382 0.808938 6.074713 4.774269 6.883651 6.88365 0.34559 0.901095 1.336283 1.638355 2.19642 1.638355 0.862696 0 1.569237 0.706541 1.569237 1.569237 0 0.860136 0.71166 1.840589 1.582036 2.17338 2.058183 0.791018 10.705626 9.43846 10.705626 10.705626 0 0.537585 0.71166 1.249246 1.582036 1.582036 2.058183 0.791018 10.705626 9.43846 10.705626 10.705626 0 0.537585 0.71166 1.249246 1.582036 1.582037 2.053064 0.788458 10.270438 9.005832 11.058896 11.058895 0.332791 0.870376 1.313244 1.582036 2.17338 1.582037 0.862696 0 1.569237 0.7347 1.569237 1.630675 0 0.898535 0.921575 1.873868 2.047944 2.16826 1.126369 0.294392 2.047944 0.942054 2.047944 1.441241 0 0.496626 3.686299 0.903655 8.191774 0.903655 4.779389 0 8.191775-0.427508 8.191775-1.023972 0-0.563185 0.921575-1.023972 2.047944-1.023972 1.364442 0 2.047944-0.683501 2.047943-2.047943s0.683501-2.047944 2.047944-2.047944 2.047944-0.683501 2.047944-2.047944 0.683501-2.047944 2.047943-2.047943 2.047944-0.683501 2.047944-2.047944 0.683501-2.047944 2.047944-2.047944 2.047944-0.683501 2.047944-2.047943 0.683501-2.047944 2.047943-2.047944 2.047944-0.683501 2.047944-2.047944 0.683501-2.047944 2.047944-2.047943 2.047944-0.683501 2.047943-2.047944 0.683501-2.047944 2.047944-2.047944 2.047944-0.683501 2.047944-2.047944 0.683501-2.047944 2.047943-2.047943 2.047944-0.683501 2.047944-2.047944 0.683501-2.047944 2.047944-2.047944 2.047944-0.683501 2.047943-2.047943 0.683501-2.047944 2.047944-2.047944 2.047944-0.683501 2.047944-2.047944 0.683501-2.047944 2.047943-2.047943 2.047944-0.683501 2.047944-2.047944 0.683501-2.047944 2.047944-2.047944 2.047944-0.683501 2.047943-2.047943 0.683501-2.047944 2.047944-2.047944 2.047944-0.683501 2.047944-2.047944 0.683501-2.047944 2.047943-2.047943 2.047944-0.683501 2.047944-2.047944 0.683501-2.047944 2.047944-2.047944 2.047944-0.683501 2.047944-2.047943 0.683501-2.047944 2.047943-2.047944 2.047944-0.683501 2.047944-2.047944 0.683501-2.047944 2.047944-2.047943 2.047944-0.683501 2.047943-2.047944 0.683501-2.047944 2.047944-2.047944 2.047944-0.683501 2.047944-2.047944 0.683501-2.047944 2.047943-2.047943 2.047944-0.683501 2.047944-2.047944 0.683501-2.047944 2.047944-2.047944 2.047944-0.683501 2.047943-2.047943 0.683501-2.047944 2.047944-2.047944 2.047944-0.683501 2.047944-2.047944 0.683501-2.047944 2.047943-2.047943 2.047944-0.683501 2.047944-2.047944 0.683501-2.047944 2.047944-2.047944 2.047944-0.683501 2.047943-2.047943 0.683501-2.047944 2.047944-2.047944 2.047944-0.683501 2.047944-2.047944 0.683501-2.047944 2.047943-2.047943 2.047944-0.683501 2.047944-2.047944 0.683501-2.047944 2.047944-2.047944 2.047944-0.683501 2.047944-2.047943 0.683501-2.047944 2.047943-2.047944 2.047944-0.683501 2.047944-2.047944 0.683501-2.047944 2.047944-2.047943 2.047944-0.683501 2.047943-2.047944 0.683501-2.047944 2.047944-2.047944 2.047944-0.683501 2.047944-2.047944 0.683501-2.047944 2.047943-2.047943 2.047944-0.683501 2.047944-2.047944 0.683501-2.047944 2.047944-2.047944 2.047944-0.683501 2.047943-2.047943 0.683501-2.047944 2.047944-2.047944 2.047944-0.683501 2.047944-2.047944 0.683501-2.047944 2.047943-2.047943 2.047944-0.683501 2.047944-2.047944 0.683501-2.047944 2.047944-2.047944 2.047944-0.683501 2.047943-2.047943 0.683501-2.047944 2.047944-2.047944 2.047944-0.683501 2.047944-2.047944 0.683501-2.047944 2.047943-2.047943 2.047944-0.683501 2.047944-2.047944 0.683501-2.047944 2.047944-2.047944 2.047944-0.683501 2.047943-2.047943 0.683501-2.047944 2.047944-2.047944 2.047944-0.683501 2.047944-2.047944 0.683501-2.047944 2.047944-2.047943 2.047944-0.683501 2.047943-2.047944 0.683501-2.047944 2.047944-2.047944 2.047944-0.683501 2.047944-2.047944 0.683501-2.047944 2.047943-2.047943 2.047944-0.683501 2.047944-2.047944 0.683501-2.047944 2.047944-2.047944 2.047944-0.683501 2.047943-2.047943 0.683501-2.047944 2.047944-2.047944 2.047944-0.683501 2.047944-2.047944 0.683501-2.047944 2.047943-2.047943 2.047944-0.683501 2.047944-2.047944 0.683501-2.047944 2.047944-2.047944 2.047944-0.683501 2.047943-2.047943 0.683501-2.047944 2.047944-2.047944 2.047944-0.683501 2.047944-2.047944 0.683501-2.047944 2.047943-2.047943 2.047944-0.683501 2.047944-2.047944 0.683501-2.047944 2.047944-2.047944 2.047944-0.683501 2.047943-2.047943 0.683501-2.047944 2.047944-2.047944 2.047944-0.683501 2.047944-2.047944 0.683501-2.047944 2.047944-2.047943 2.047944-0.683501 2.047943-2.047944 0.683501-2.047944 2.047944-2.047944 2.047944-0.683501 2.047944-2.047944 0.683501-2.047944 2.047943-2.047943 2.047944-0.683501 2.047944-2.047944 0.683501-2.047944 2.047944-2.047944 2.047944-0.683501 2.047943-2.047943 0.683501-2.047944 2.047944-2.047944 2.047944-0.683501 2.047944-2.047944 0.683501-2.047944 2.047943-2.047943 2.047944-0.683501 2.047944-2.047944 0.683501-2.047944 2.047944-2.047944 2.047944-0.683501 2.047943-2.047943 0.683501-2.047944 2.047944-2.047944 2.047944-0.683501 2.047944-2.047944 0.683501-2.047944 2.047943-2.047943 2.047944-0.683501 2.047944-2.047944 0.683501-2.047944 2.047944-2.047944 2.047944-0.683501 2.047943-2.047943 0.683501-2.047944 2.047944-2.047944 2.047944-0.683501 2.047944-2.047944 0.683501-2.047944 2.047944-2.047943 2.047944-0.683501 2.047943-2.047944 0.683501-2.047944 2.047944-2.047944 2.047944-0.683501 2.047944-2.047944 0.683501-2.047944 2.047943-2.047943 2.047944-0.683501 2.047944-2.047944 0.683501-2.047944 2.047944-2.047944 2.047944-0.683501 2.047943-2.047943 0.683501-2.047944 2.047944-2.047944 2.047944-0.683501 2.047944-2.047944 0.683501-2.047944 2.047943-2.047943c1.82011 0 2.047944-0.683501 2.047944-6.143831s-0.227834-6.143831-2.047944-6.143831c-1.364442 0-2.047944-0.683501-2.047943-2.047944s-0.683501-2.047944-2.047944-2.047944-2.047944-0.683501-2.047944-2.047943-0.683501-2.047944-2.047943-2.047944-2.047944-0.683501-2.047944-2.047944-0.683501-2.047944-2.047944-2.047943-2.047944-0.683501-2.047943-2.047944-0.683501-2.047944-2.047944-2.047944-2.047944-0.683501-2.047944-2.047944-0.683501-2.047944-2.047943-2.047943-2.047944-0.683501-2.047944-2.047944-0.683501-2.047944-2.047944-2.047944-2.047944-0.683501-2.047944-2.047943c0-1.323484-0.683501-2.047944-1.927627-2.047944-1.195487 0-2.086343-0.878056-2.344895-2.303937-0.627183-3.478944 0.145916-5.887838 1.884108-5.887838 0.855016 0 1.797071-0.921575 2.091463-2.047943 0.294392-1.126369 1.215967-2.047944 2.047943-2.047944 0.831977 0 1.753552-0.921575 2.047944-2.047944 0.294392-1.126369 1.215967-2.047944 2.047944-2.047943 0.831977 0 1.753552-0.921575 2.047943-2.047944 0.294392-1.126369 1.215967-2.047944 2.047944-2.047944 0.831977 0 1.753552-0.921575 2.047944-2.047943 0.294392-1.126369 1.215967-2.047944 2.047943-2.047944 0.831977 0 1.753552-0.921575 2.047944-2.047944 0.294392-1.126369 1.215967-2.047944 2.047944-2.047943 0.831977 0 1.753552-0.921575 2.047943-2.047944 0.294392-1.126369 1.215967-2.047944 2.047944-2.047944 0.831977 0 1.753552-0.921575 2.047944-2.047944 0.294392-1.126369 1.215967-2.047944 2.047944-2.047943 0.831977 0 1.753552-0.921575 2.047943-2.047944 0.294392-1.126369 1.215967-2.047944 2.047944-2.047944 0.831977 0 1.753552-0.921575 2.047944-2.047943 0.294392-1.126369 1.215967-2.047944 2.047943-2.047944 0.831977 0 1.753552-0.921575 2.047944-2.047944 0.294392-1.126369 1.215967-2.047944 2.047944-2.047943 0.831977 0 1.753552-0.921575 2.047943-2.047944 0.294392-1.126369 1.215967-2.047944 2.047944-2.047944 0.831977 0 1.753552-0.921575 2.047944-2.047943 0.294392-1.126369 1.215967-2.047944 2.047943-2.047944 0.831977 0 1.753552-0.921575 2.047944-2.047944 0.294392-1.126369 1.215967-2.047944 2.047944-2.047943 0.831977 0 1.753552-0.921575 2.047943-2.047944 0.294392-1.126369 1.215967-2.047944 2.047944-2.047944 0.831977 0 1.753552-0.921575 2.047944-2.047943 0.294392-1.126369 1.215967-2.047944 2.047943-2.047944 0.831977 0 1.753552-0.921575 2.047944-2.047944 0.294392-1.126369 1.215967-2.047944 2.047944-2.047943 0.831977 0 1.753552-0.921575 2.047943-2.047944 0.294392-1.126369 1.215967-2.047944 2.047944-2.047944 0.831977 0 1.753552-0.921575 2.047944-2.047943 0.294392-1.126369 1.215967-2.047944 2.047944-2.047944 0.831977 0 1.753552-0.921575 2.047943-2.047944 0.294392-1.126369 1.215967-2.047944 2.047944-2.047944 0.831977 0 1.753552-0.921575 2.047944-2.047943 0.294392-1.126369 1.215967-2.047944 2.047943-2.047944 0.831977 0 1.753552-0.921575 2.047944-2.047944 0.294392-1.126369 1.215967-2.047944 2.047944-2.047943 0.831977 0 1.753552-0.921575 2.047943-2.047944 0.294392-1.126369 1.215967-2.047944 2.047944-2.047944 0.831977 0 1.753552-0.921575 2.047944-2.047943 0.294392-1.126369 1.215967-2.047944 2.047943-2.047944 0.831977 0 1.753552-0.921575 2.047944-2.047944 0.294392-1.126369 1.215967-2.047944 2.047944-2.047943 0.831977 0 1.753552-0.921575 2.047943-2.047944 0.294392-1.126369 1.215967-2.047944 2.047944-2.047944 0.831977 0 1.753552-0.921575 2.047944-2.047943 0.294392-1.126369 1.215967-2.047944 2.047943-2.047944 0.831977 0 1.753552-0.921575 2.047944-2.047944 0.294392-1.126369 1.215967-2.047944 2.047944-2.047943 0.831977 0 1.753552-0.921575 2.047943-2.047944 0.294392-1.126369 1.215967-2.047944 2.047944-2.047944 0.831977 0 1.753552-0.921575 2.047944-2.047943 0.294392-1.126369 1.215967-2.047944 2.047944-2.047944 0.831977 0 1.753552-0.921575 2.047943-2.047944 0.294392-1.126369 1.215967-2.047944 2.047944-2.047944 0.831977 0 1.753552-0.921575 2.047944-2.047943 0.294392-1.126369 1.215967-2.047944 2.047943-2.047944 0.831977 0 1.753552-0.921575 2.047944-2.047944 0.294392-1.126369 1.215967-2.047944 2.047944-2.047943 0.831977 0 1.753552-0.921575 2.047943-2.047944 0.294392-1.126369 1.215967-2.047944 2.047944-2.047944 0.831977 0 1.753552-0.921575 2.047944-2.047943 0.294392-1.126369 1.215967-2.047944 2.047943-2.047944 0.831977 0 1.753552-0.921575 2.047944-2.047944 0.294392-1.126369 1.215967-2.047944 2.047944-2.047943 0.831977 0 1.753552-0.921575 2.047943-2.047944 0.294392-1.126369 1.215967-2.047944 2.047944-2.047944 0.831977 0 1.753552-0.921575 2.047944-2.047943 0.294392-1.126369 1.215967-2.047944 2.047943-2.047944 0.831977 0 1.753552-0.921575 2.047944-2.047944 0.294392-1.126369 1.215967-2.047944 2.047944-2.047943 0.831977 0 1.753552-0.921575 2.047943-2.047944 0.294392-1.126369 1.215967-2.047944 2.047944-2.047944 0.831977 0 1.753552-0.921575 2.047944-2.047943 0.294392-1.126369 1.215967-2.047944 2.047943-2.047944 0.831977 0 1.753552-0.921575 2.047944-2.047944 0.294392-1.126369 1.215967-2.047944 2.047944-2.047944 0.831977 0 1.753552-0.921575 2.047944-2.047943 0.294392-1.126369 1.215967-2.047944 2.047943-2.047944 0.831977 0 1.753552-0.921575 2.047944-2.047944 0.294392-1.126369 1.215967-2.047944 2.047944-2.047943 0.831977 0 1.743312-0.878056 2.022344-1.953227 0.281592-1.07517 1.390042-2.18362 2.465212-2.465212 1.07517-0.279032 1.953226-1.190367 1.953226-2.022344s0.921575-1.753552 2.047944-2.047944c1.126369-0.294392 2.047944-1.215967 2.047944-2.047943 0-0.831977 0.921575-1.753552 2.047944-2.047944 1.126369-0.294392 2.047944-1.215967 2.047943-2.047944 0-0.831977 0.921575-1.753552 2.047944-2.047944 1.126369-0.294392 2.047944-1.215967 2.047944-2.047943 0-0.831977 0.921575-1.753552 2.047943-2.047944 1.126369-0.294392 2.047944-1.215967 2.047944-2.047944 0-0.831977 0.921575-1.753552 2.047944-2.047943 1.126369-0.294392 2.047944-1.215967 2.047943-2.047944 0-0.831977 0.921575-1.753552 2.047944-2.047944 1.126369-0.294392 2.047944-1.215967 2.047944-2.047943 0-0.831977 0.921575-1.753552 2.047943-2.047944 1.126369-0.294392 2.047944-1.215967 2.047944-2.047944 0-0.831977 0.921575-1.753552 2.047944-2.047943 1.126369-0.294392 2.047944-1.215967 2.047943-2.047944 0-0.831977 0.921575-1.753552 2.047944-2.047944 1.126369-0.294392 2.047944-1.215967 2.047944-2.047943 0-0.831977 0.921575-1.753552 2.047943-2.047944 1.126369-0.294392 2.047944-1.269725 2.047944-2.16826 0-0.895975 0.460787-1.630675 1.023972-1.630676 0.596464 0 1.023972-3.412386 1.023972-8.191774 0-4.779389-0.427508-8.191775-1.023972-8.191775-0.563185 0-1.023972-0.921575-1.023972-2.047944 0-1.364442-0.683501-2.047944-2.047944-2.047943s-2.047944-0.683501-2.047943-2.047944-0.683501-2.047944-2.047944-2.047944-2.047944-0.683501-2.047944-2.047943-0.683501-2.047944-2.047943-2.047944-2.047944-0.683501-2.047944-2.047944-0.683501-2.047944-2.047944-2.047944-2.047944-0.683501-2.047943-2.047943-0.683501-2.047944-2.047944-2.047944-2.047944-0.683501-2.047944-2.047944-0.683501-2.047944-2.047943-2.047943-2.047944-0.683501-2.047944-2.047944-0.683501-2.047944-2.047944-2.047944-2.047944-0.683501-2.047943-2.047943-0.683501-2.047944-2.047944-2.047944-2.047944-0.683501-2.047944-2.047944-0.683501-2.047944-2.047943-2.047943-2.047944-0.683501-2.047944-2.047944-0.683501-2.047944-2.047944-2.047944-2.047944-0.683501-2.047944-2.047943-0.683501-2.047944-2.047943-2.047944-2.047944-0.683501-2.047944-2.047944-0.683501-2.047944-2.047944-2.047943-2.047944-0.683501-2.047943-2.047944-0.683501-2.047944-2.047944-2.047944-2.047944-0.683501-2.047944-2.047943-0.683501-2.047944-2.047943-2.047944-2.047944-0.683501-2.047944-2.047944-0.683501-2.047944-2.047944-2.047944-2.047944-0.683501-2.047943-2.047943-0.683501-2.047944-2.047944-2.047944-2.047944-0.683501-2.047944-2.047944-0.683501-2.047944-2.047943-2.047943-2.047944-0.683501-2.047944-2.047944-0.683501-2.047944-2.047944-2.047944-2.047944-0.683501-2.047943-2.047943-0.683501-2.047944-2.047944-2.047944-2.047944-0.683501-2.047944-2.047944-0.683501-2.047944-2.047943-2.047943-2.047944-0.683501-2.047944-2.047944-0.683501-2.047944-2.047944-2.047944-2.047944-0.683501-2.047944-2.047943-0.683501-2.047944-2.047943-2.047944-2.047944-0.683501-2.047944-2.047944-0.683501-2.047944-2.047944-2.047943-2.047944-0.683501-2.047943-2.047944-0.683501-2.047944-2.047944-2.047944-2.047944-0.683501-2.047944-2.047943-0.683501-2.047944-2.047943-2.047944-2.047944-0.683501-2.047944-2.047944-0.683501-2.047944-2.047944-2.047944-2.047944-0.683501-2.047943-2.047943-0.683501-2.047944-2.047944-2.047944-2.047944-0.683501-2.047944-2.047944-0.683501-2.047944-2.047943-2.047943-2.047944-0.683501-2.047944-2.047944-0.683501-2.047944-2.047944-2.047944-2.047944-0.683501-2.047943-2.047943-0.683501-2.047944-2.047944-2.047944-2.047944-0.683501-2.047944-2.047944-0.683501-2.047944-2.047943-2.047943-2.047944-0.683501-2.047944-2.047944-0.683501-2.047944-2.047944-2.047944-2.047944-0.683501-2.047944-2.047943-0.683501-2.047944-2.047943-2.047944-2.047944-0.683501-2.047944-2.047944-0.683501-2.047944-2.047944-2.047943-2.047944-0.683501-2.047943-2.047944-0.683501-2.047944-2.047944-2.047944-2.047944-0.683501-2.047944-2.047943-0.683501-2.047944-2.047943-2.047944-2.047944-0.683501-2.047944-2.047944-0.683501-2.047944-2.047944-2.047943-2.047944-0.683501-2.047943-2.047944-0.683501-2.047944-2.047944-2.047944-2.047944-0.683501-2.047944-2.047944-0.683501-2.047944-2.047943-2.047943-2.047944-0.683501-2.047944-2.047944-0.683501-2.047944-2.047944-2.047944-2.047944-0.683501-2.047943-2.047943-0.683501-2.047944-2.047944-2.047944-2.047944-0.683501-2.047944-2.047944-0.683501-2.047944-2.047943-2.047943-2.047944-0.683501-2.047944-2.047944-0.683501-2.047944-2.047944-2.047944-2.047944-0.683501-2.047944-2.047943-0.683501-2.047944-2.047943-2.047944-2.047944-0.683501-2.047944-2.047944-0.683501-2.047944-2.047944-2.047943-2.047944-0.683501-2.047943-2.047944-0.683501-2.047944-2.047944-2.047944-2.047944-0.683501-2.047944-2.047943-0.683501-2.047944-2.047943-2.047944-2.047944-0.683501-2.047944-2.047944-0.683501-2.047944-2.047944-2.047943-2.047944-0.683501-2.047943-2.047944-0.683501-2.047944-2.047944-2.047944-2.047944-0.683501-2.047944-2.047944-0.683501-2.047944-2.047943-2.047943-2.047944-0.683501-2.047944-2.047944-0.683501-2.047944-2.047944-2.047944-2.047944-0.683501-2.047943-2.047943-0.683501-2.047944-2.047944-2.047944-2.047944-0.683501-2.047944-2.047944-0.683501-2.047944-2.047943-2.047943-2.047944-0.683501-2.047944-2.047944-0.683501-2.047944-2.047944-2.047944-2.047944-0.683501-2.047944-2.047943-0.683501-2.047944-2.047943-2.047944-2.047944-0.683501-2.047944-2.047944-0.683501-2.047944-2.047944-2.047943-2.047944-0.683501-2.047943-2.047944-0.683501-2.047944-2.047944-2.047944-2.047944-0.683501-2.047944-2.047943-0.683501-2.047944-2.047943-2.047944-2.047944-0.683501-2.047944-2.047944-0.683501-2.047944-2.047944-2.047943-2.047944-0.683501-2.047943-2.047944-0.683501-2.047944-2.047944-2.047944-2.047944-0.683501-2.047944-2.047944-0.683501-2.047944-2.047943-2.047943-2.047944-0.683501-2.047944-2.047944-0.683501-2.047944-2.047944-2.047944-2.047944-0.683501-2.047943-2.047943-0.683501-2.047944-2.047944-2.047944-2.047944-0.683501-2.047944-2.047944-0.683501-2.047944-2.047943-2.047943-2.047944-0.683501-2.047944-2.047944-0.683501-2.047944-2.047944-2.047944-2.047944-0.683501-2.047944-2.047943c0-1.82011-0.683501-2.047944-6.143831-2.047944s-6.143831 0.227834-6.143831 2.047944c0 1.364442-0.683501 2.047944-2.047943 2.047943s-2.047944 0.683501-2.047944 2.047944-0.683501 2.047944-2.047944 2.047944-2.047944 0.683501-2.047943 2.047943-0.683501 2.047944-2.047944 2.047944-2.047944 0.683501-2.047944 2.047944-0.683501 2.047944-2.047943 2.047943-2.047944 0.683501-2.047944 2.047944-0.683501 2.047944-2.047944 2.047944-2.047944 0.683501-2.047943 2.047943-0.683501 2.047944-2.047944 2.047944-2.047944 0.683501-2.047944 2.047944-0.683501 2.047944-2.047943 2.047944-2.047944 0.683501-2.047944 2.047943-0.683501 2.047944-2.047944 2.047944-2.047944 0.683501-2.047944 2.047944c0 1.323484-0.683501 2.047944-1.927626 2.047943-1.067491 0-2.16826-0.913895-2.465213-2.047943-0.294392-1.126369-1.215967-2.047944-2.047943-2.047944-0.831977 0-1.753552-0.921575-2.047944-2.047944-0.294392-1.126369-1.215967-2.047944-2.047944-2.047943-0.831977 0-1.753552-0.921575-2.047943-2.047944-0.294392-1.126369-1.215967-2.047944-2.047944-2.047944-0.831977 0-1.753552-0.921575-2.047944-2.047944-0.294392-1.126369-1.215967-2.047944-2.047943-2.047943-0.831977 0-1.753552-0.921575-2.047944-2.047944-0.294392-1.126369-1.215967-2.047944-2.047944-2.047944-0.831977 0-1.753552-0.921575-2.047944-2.047943-0.294392-1.126369-1.215967-2.047944-2.047943-2.047944-0.831977 0-1.753552-0.921575-2.047944-2.047944-0.294392-1.126369-1.215967-2.047944-2.047944-2.047943-0.831977 0-1.753552-0.921575-2.047943-2.047944-0.294392-1.126369-1.215967-2.047944-2.047944-2.047944-0.831977 0-1.753552-0.921575-2.047944-2.047943-0.294392-1.126369-1.215967-2.047944-2.047943-2.047944-0.831977 0-1.753552-0.921575-2.047944-2.047944-0.294392-1.126369-1.215967-2.047944-2.047944-2.047943-0.831977 0-1.753552-0.921575-2.047943-2.047944-0.294392-1.126369-1.215967-2.047944-2.047944-2.047944-0.831977 0-1.753552-0.921575-2.047944-2.047943-0.294392-1.126369-1.215967-2.047944-2.047943-2.047944-0.831977 0-1.753552-0.921575-2.047944-2.047944-0.294392-1.126369-1.215967-2.047944-2.047944-2.047943-0.831977 0-1.753552-0.921575-2.047943-2.047944-0.294392-1.126369-1.215967-2.047944-2.047944-2.047944-0.831977 0-1.753552-0.921575-2.047944-2.047944-0.294392-1.126369-1.215967-2.047944-2.047943-2.047943-0.831977 0-1.753552-0.921575-2.047944-2.047944-0.294392-1.126369-1.215967-2.047944-2.047944-2.047944-0.831977 0-1.753552-0.921575-2.047944-2.047943-0.294392-1.126369-1.215967-2.047944-2.047943-2.047944-0.831977 0-1.753552-0.921575-2.047944-2.047944-0.294392-1.126369-1.215967-2.047944-2.047944-2.047943-0.831977 0-1.753552-0.921575-2.047943-2.047944-0.294392-1.126369-1.215967-2.047944-2.047944-2.047944-0.831977 0-1.753552-0.921575-2.047944-2.047943-0.294392-1.126369-1.215967-2.047944-2.047943-2.047944-0.831977 0-1.753552-0.921575-2.047944-2.047944-0.294392-1.126369-1.215967-2.047944-2.047944-2.047943-0.831977 0-1.753552-0.921575-2.047943-2.047944-0.294392-1.126369-1.215967-2.047944-2.047944-2.047944-0.831977 0-1.753552-0.921575-2.047944-2.047943-0.294392-1.126369-1.215967-2.047944-2.047943-2.047944-0.831977 0-1.753552-0.921575-2.047944-2.047944-0.294392-1.126369-1.269725-2.047944-2.16826-2.047943a1.638355 1.638355 0 0 1-1.630676-1.630676c0-0.898535-0.921575-1.873868-2.047943-2.16826-1.126369-0.294392-2.047944-1.215967-2.047944-2.047944 0-0.831977-0.921575-1.753552-2.047944-2.047943-1.126369-0.294392-2.047944-1.215967-2.047943-2.047944 0-0.831977-0.921575-1.753552-2.047944-2.047944-1.126369-0.294392-2.047944-1.215967-2.047944-2.047943 0-0.831977-0.878056-1.743312-1.953226-2.022345-1.07517-0.281592-2.18362-1.390042-2.465212-2.465212-0.279032-1.07517-1.190367-1.953226-2.022345-1.953226s-1.753552-0.921575-2.047943-2.047944c-0.294392-1.126369-1.215967-2.047944-2.047944-2.047944-0.831977 0-1.753552-0.921575-2.047944-2.047943-0.294392-1.126369-1.215967-2.047944-2.047943-2.047944-0.831977 0-1.753552-0.921575-2.047944-2.047944-0.294392-1.126369-1.215967-2.047944-2.047944-2.047943-0.831977 0-1.753552-0.921575-2.047943-2.047944-0.294392-1.126369-1.215967-2.047944-2.047944-2.047944-0.831977 0-1.753552-0.921575-2.047944-2.047943-0.294392-1.126369-1.269725-2.047944-2.16826-2.047944-0.947174 0-1.630675-0.857576-1.630675-2.047944 0-1.364442-0.683501-2.047944-2.047944-2.047943s-2.047944-0.683501-2.047944-2.047944-0.683501-2.047944-2.047943-2.047944-2.047944-0.683501-2.047944-2.047944-0.683501-2.047944-2.047944-2.047943-2.047944-0.683501-2.047943-2.047944-0.683501-2.047944-2.047944-2.047944-2.047944-0.683501-2.047944-2.047943-0.683501-2.047944-2.047943-2.047944-2.047944-0.683501-2.047944-2.047944-0.683501-2.047944-2.047944-2.047943-2.047944-0.683501-2.047943-2.047944-0.683501-2.047944-2.047944-2.047944-2.047944-0.683501-2.047944-2.047943-0.683501-2.047944-2.047943-2.047944-2.047944-0.683501-2.047944-2.047944-0.683501-2.047944-2.047944-2.047943-2.047944-0.683501-2.047943-2.047944-0.683501-2.047944-2.047944-2.047944-2.047944-0.683501-2.047944-2.047943-0.683501-2.047944-2.047944-2.047944-2.047944-0.683501-2.047943-2.047944-0.683501-2.047944-2.047944-2.047943-2.047944-0.683501-2.047944-2.047944-0.683501-2.047944-2.047943-2.047944-2.047944-0.683501-2.047944-2.047944-0.683501-2.047944-2.047944-2.047943-2.047944-0.683501-2.047943-2.047944-0.683501-2.047944-2.047944-2.047944-2.047944-0.683501-2.047944-2.047943-0.683501-2.047944-2.047943-2.047944-2.047944-0.683501-2.047944-2.047944-0.683501-2.047944-2.047944-2.047943-2.047944-0.683501-2.047943-2.047944-0.683501-2.047944-2.047944-2.047944-2.047944-0.683501-2.047944-2.047943-0.683501-2.047944-2.047943-2.047944-2.047944-0.683501-2.047944-2.047944-0.683501-2.047944-2.047944-2.047943-2.047944-0.683501-2.047943-2.047944-0.683501-2.047944-2.047944-2.047944-2.047944-0.683501-2.047944-2.047943-0.683501-2.047944-2.047944-2.047944c-1.126369 0-2.047944-0.460787-2.047943-1.023972 0-0.596464-3.412386-1.023972-8.191775-1.023972-4.505476 0-8.191775 0.407029-8.191775 0.903655m8.703761 362.841862c38.296547 21.910437 70.321266 40.249773 71.166043 40.756639 0.844777 0.509426 5.82128 3.358628 11.056336 6.333266a1966.348485 1966.348485 0 0 1 11.26369 6.433103c0.959974 0.563185 5.660004 3.222951 10.447073 5.913438 4.787068 2.687926 9.394942 5.301614 10.239718 5.80848 6.453583 3.862934 13.670024 8.020259 18.431493 10.610908 3.097515 1.686994 6.855491 3.919252 8.350491 4.958584 1.494999 1.039331 3.056556 1.891788 3.471264 1.891788 0.412149 0 3.105195 1.45148 5.985116 3.225511 6.315346 3.896213 10.293477 6.161751 19.056116 10.861781 3.660699 1.963466 7.382837 4.205964 8.271132 4.981623 0.890856 0.775659 1.907148 1.410521 2.257858 1.410522 0.35327 0 4.694911 2.367935 9.648375 5.263215 4.953464 2.89272 10.618588 6.133591 12.589734 7.195962 1.971146 1.064931 4.966263 2.780084 6.655817 3.809175 1.689554 1.029092 4.799868 2.859441 6.911809 4.065168 8.962314 5.119859 10.761944 6.161751 15.917643 9.218307 2.979758 1.768911 5.583206 3.215272 5.782881 3.215272 0.199675 0 3.28951 1.776591 6.865731 3.947411 3.578782 2.17338 7.480114 4.257163 8.673041 4.636032 8.181535 2.585529 6.845252 6.074713-4.874106 12.72797a862.069093 862.069093 0 0 0-11.117774 6.379345c-3.002797 1.840589-12.884126 7.469875-18.431493 10.503391-3.097515 1.692113-6.855491 3.929492-8.35049 4.968824-1.494999 1.039331-2.943919 1.891788-3.222952 1.891788-0.435188 0-11.601601 6.417744-16.073798 9.241345-0.844777 0.532465-3.148713 1.82011-5.119859 2.859442s-5.311854 2.887601-7.423796 4.108687c-2.111942 1.223646-5.421931 3.117994-7.357237 4.216204a258.936879 258.936879 0 0 0-7.423796 4.415878c-2.147781 1.333723-32.426628 18.754044-67.28519 38.711256-34.858561 19.957211-65.040131 37.318654-67.070155 38.580699-2.030024 1.264605-4.843387 2.854322-6.251349 3.535263-1.407961 0.680941-3.711898 1.994185-5.119859 2.920879-1.407961 0.929254-5.09426 3.061676-8.191775 4.74355-8.186655 4.441478-10.564829 5.81872-12.287662 7.114044-0.844777 0.634863-4.531075 2.782643-8.191774 4.771709-3.660699 1.986505-18.733565 10.567389-33.496679 19.066356-14.760554 8.501526-27.775236 15.454295-28.922085 15.454295h-2.081223l-0.261112-189.178798c-0.143356-104.048339 0.079358-189.944217 0.494066-190.878591 1.251806-2.823602 2.654647-2.088903 75.018737 39.310279"
    fill="#54B44C"
    p-id="11200"
  ></path>
</svg>