<svg
  t="1724695983043"
  class="icon"
  viewBox="0 0 1024 1024"
  version="1.1"
  xmlns="http://www.w3.org/2000/svg"
  p-id="2570"
  width="256"
  height="256"
>
  <path
    d="M32 554.24885v-2.55940031c4.12504031-10.50947719 11.23135969-18.72205781 19.1533125-26.64400969 59.97246094-59.97246094 120.10429781-119.79492 179.93613188-179.89863188 14.04388688-14.10951281 14.02513687-15.70327875 0.15937687-29.73779062-3.89066344-3.93753844-7.89382688-7.78132594-11.69073938-11.81261531-11.15635875-11.83136531-11.24073469-16.40641031-0.49687968-28.05964875 4.33129219-4.70629594 8.90633719-9.16884 13.43450531-13.68763407 70.29443625-70.14443531 140.43887156-140.43887156 210.63018281-210.68643187 7.92195281-7.92195281 16.1251575-15.02827219 26.63463469-19.1626875h5.11879969c12.80637469 4.80942187 22.35021844 13.59388312 30.16904531 24.553365 2.47502438 3.46878375 5.59692938 6.41256281 8.61570844 9.42196688 55.50054188 55.33179 110.80420687 110.86045781 166.23912375 166.24849875 14.33451469 14.31576469 15.83452969 14.23138875 30.684675-0.48750469 4.53754406-4.49066906 9.00946312-9.06571313 13.78138406-13.31263032 6.80631656-6.06568406 13.66888313-6.178185 20.55957562-0.16875187 4.50004406 3.92816344 8.64383438 8.22195562 12.85325063 12.44074687 71.57882437 71.77570125 143.40140062 143.30764969 215.07397594 214.98959907 7.92195281 7.92195281 15.00952125 16.1345325 19.14393656 26.62526062v5.11879969c-4.13441531 10.50947719-11.24073469 18.74080781-19.1720625 26.65338562-59.46620531 59.33495438-118.84803562 118.76365969-178.27674094 178.12673907-14.54076656 14.52201656-14.46576656 15.98453156 0.06562594 30.73155 21.43145906 21.73146188 21.478335 22.06896563-0.12187594 43.63167656-72.150705 71.98195313-144.08578219 144.17953313-216.16148625 216.23648625-7.93132781 7.93132781-16.1439075 15.03764719-26.65338562 19.1720625h-2.55939938c-10.50010219-4.12504031-18.71268281-11.22198469-26.62526062-19.1439375-59.00682656-59.07245156-117.95740219-118.19177906-177.08610375-177.14235469-16.05015656-15.99390656-16.81891406-16.01265656-32.48469282-0.45000468q-23.63460563 23.47522969-47.53171406-0.32812782C193.92658156 723.60987875 122.61026 652.14355625 51.14393656 580.83660969 43.22198469 572.92403281 36.12504031 564.72082719 32 554.21135z"
    fill="#ffffff"
    p-id="2571"
  ></path>
  <path
    d="M716.60668531 513.62657844c-30.93780187 17.78454844-60.35683969 34.69721344-89.77587656 51.60050344-71.26944563 40.94102437-142.52951719 81.88204969-213.80833781 122.79494999-11.66261344 6.69381563-11.79386531 6.61881469-11.79386532-7.07819437-0.01875-111.69484031 0.046875-223.38968156-0.12187593-335.08452281-0.009375-9.07508906-0.35625375-13.89388594 11.02510781-7.33132125 99.24471938 57.20680875 198.78006656 113.89798688 298.21228687 170.75791781 1.46251406 0.83438344 2.78440219 1.92189375 6.25318594 4.34066719z"
    fill="#52B44B"
    p-id="2572"
  ></path>
</svg>