<svg
  t="1724544638463"
  class="icon"
  viewBox="0 0 1177 1024"
  version="1.1"
  xmlns="http://www.w3.org/2000/svg"
  p-id="2073"
  width="256"
  height="256"
>
  <path
    d="M1103.48944 112.796547H529.541295L463.523185 11.978193A31.217866 31.217866 0 0 0 433.584739 0.463406H78.92931A76.765245 76.765245 0 0 0 0.116992 77.228651v204.707318a76.765245 76.765245 0 0 1 76.765245-76.765244h1026.607203A73.950519 73.950519 0 0 1 1177.184075 279.633012V195.703011a78.812318 78.812318 0 0 0-73.694635-82.906464z"
    fill="#FCD060"
    p-id="2074"
  ></path>
  <path
    d="M1103.48944 205.170725H76.882237a76.765245 76.765245 0 0 0-76.765245 76.765244v659.157567A78.812318 78.812318 0 0 0 73.811627 1024h1029.677813A78.812318 78.812318 0 0 0 1177.184075 941.093536V279.633012A73.950519 73.950519 0 0 0 1103.48944 205.170725z"
    fill="#FEBC13"
    p-id="2075"
  ></path>
</svg>