<svg
  t="1723747038641"
  class="icon"
  viewBox="0 0 1024 1024"
  version="1.1"
  xmlns="http://www.w3.org/2000/svg"
  p-id="2069"
  width="256"
  height="256"
>
  <path
    d="M898.63543088 14.8973037a110.46726541 110.46726541 0 0 1 110.46726542 110.46726542v773.27086176c0 60.75699579-49.71026963 110.46726541-110.46726542 110.46726542H125.36456912a110.46726541 110.46726541 0 0 1-110.46726542-110.46726542V125.36456912c0-60.75699579 49.71026963-110.46726541 110.46726542-110.46726542z"
    fill="#FFE500"
    p-id="2070"
  ></path>
  <path
    d="M898.63543088 125.36456912H125.36456912v773.27086176h773.27086176V125.36456912z m-386.63543088 470.03821702h-55.23363335V677.70089876H373.91591727v-82.85044937h-165.70089877V346.29910124H291.06546788v165.70089876h82.85044939V346.29910124H456.76636665v165.70089876h55.23363335v83.40278614zM854.44852368 677.70089876h-93.89717553l-110.46726542-165.70089876v165.70089876H567.23363335V346.29910124h82.85044938v165.70089876l110.46726542-165.70089876h93.89717553l-110.46726541 165.70089876 110.46726541 165.70089876z"
    fill="#010101"
    p-id="2071"
  ></path>
</svg>