<?xml version="1.0" standalone="no"?>
<!DOCTYPE
  svg
  PUBLIC "-//W3C//DTD SVG 1.1//EN" "http://www.w3.org/Graphics/SVG/1.1/DTD/svg11.dtd"
><svg
  t="1723585461933"
  class="icon"
  viewBox="0 0 1024 1024"
  version="1.1"
  xmlns="http://www.w3.org/2000/svg"
  p-id="5479"
  xmlns:xlink="http://www.w3.org/1999/xlink"
  width="256"
  height="256"
>
  <path
    d="M513.846727 406.186667m-275.110516 0a275.110517 275.110517 0 1 0 550.221033 0 275.110517 275.110517 0 1 0-550.221033 0Z"
    fill="#FDFDFD"
    p-id="5480"
  ></path>
  <path
    d="M965.309341 0H58.711408A58.711408 58.711408 0 0 0 0 58.711408v906.577184A58.711408 58.711408 0 0 0 58.711408 1024h906.597933a58.711408 58.711408 0 0 0 58.711409-58.711408V58.711408A58.711408 58.711408 0 0 0 965.309341 0zM513.846727 669.998946C368.152381 669.998946 250.034448 551.881013 250.034448 406.186667s118.117933-263.81228 263.812279-263.81228 263.81228 118.117933 263.81228 263.81228-118.117933 263.81228-263.81228 263.812279z"
    fill="#F9D615"
    p-id="5481"
  ></path>
  <path
    d="M635.30537 403.281702a15.873556 15.873556 0 0 0-3.288835-2.770091q-73.391854-45.338197-180.180426-110.098156a18.737021 18.737021 0 0 0-5.498682-2.552219q-6.588045-1.265735-8.424398 4.772442a15.002067 15.002067 0 0 0-0.653617 4.284823q-0.487619 109.662411-0.197122 219.335197a45.255198 45.255198 0 0 0 0.207497 5.789179 8.943141 8.943141 0 0 0 3.216211 5.125188 6.162675 6.162675 0 0 0 6.432421 1.037487 32.815724 32.815724 0 0 0 5.446809-2.697467q108.490051-65.091955 181.176413-109.32004 5.571307-3.392584 3.859453-9.285512a9.015765 9.015765 0 0 0-2.095724-3.620831z"
    fill="#F9D615"
    p-id="5482"
  ></path>
  <path
    d="M242.917285 735.931266h46.780304c31.57074 0 55.827194 10.976616 55.827193 44.611956 0 32.535603-24.453576 47.164174-55.059453 47.164174H271.406687v50.629382h-28.489402z m45.649442 69.304154c19.62926 0 29.049645-8.299899 29.049646-24.640324 0-16.599797-10.374873-22.13998-30.024884-22.139979h-16.184802v46.780303zM369.013495 848.166646V724.767903h28.105532v124.747477c0 6.349422 3.112462 8.465897 5.76843 8.465897a15.935805 15.935805 0 0 0 3.849078-0.383871l3.465208 20.988369a38.687903 38.687903 0 0 1-14.628572 2.500345c-19.62926 0-26.559676-12.895968-26.559676-32.919474zM424.259696 849.13151c0-23.104843 18.674772-35.274569 61.979493-39.849889-0.38387-10.592746-5.000689-18.674772-18.280526-18.674772-10.011753 0-19.639635 4.430071-29.651388 10.198501l-10.198501-18.674772c12.698845-7.895279 28.105532-14.244701 45.037325-14.244702 27.337791 0 41.395745 16.361175 41.395745 47.548045v62.944357h-23.104843l-2.074975-11.547234h-0.580993c-9.43076 8.082026-20.210253 14.244701-32.525228 14.244701-19.297264 0.010375-31.996109-13.663708-31.996109-31.944235z m61.979493-0.778116v-21.776859c-26.175805 3.465208-35.035947 10.582371-35.035947 20.210253 0 8.465897 5.965552 12.128227 14.244701 12.128227 8.092401 0.031125 14.057953-3.817953 20.791246-10.551246zM538.020182 919.587275l5.187437-21.787234a28.925147 28.925147 0 0 0 7.511408 1.348733c10.976616 0 17.128916-6.930415 20.210254-16.361175l1.929726-6.359798-41.955988-105.875582h28.489402l17.128916 50.058764c3.27846 9.617508 5.975927 20.013131 9.04689 30.408754h0.964863c2.500344-10.011753 5.187437-20.407376 7.698156-30.408754l14.825694-50.058764h27.140669L597.893576 881.656738c-9.43076 25.41844-20.988369 40.047011-45.0477 40.047011a45.649443 45.649443 0 0 1-14.825694-2.116474zM645.638744 824.677933c0-35.035947 24.443202-56.781682 50.235136-56.781682 29.651388 0 45.0477 21.787234 45.047701 51.583871a52.662857 52.662857 0 0 1-1.348734 12.895967h-66.399189c2.313597 17.709909 13.860831 26.974671 29.838135 26.974671 8.849767 0 16.599797-2.697467 24.256454-7.511408l9.627883 17.326038a68.028045 68.028045 0 0 1-37.733415 11.941479c-30.045633-0.02075-53.523972-21.009119-53.523971-56.428936z m71.026383-10.966241c0-14.638946-6.546545-23.862209-20.407376-23.862209-11.350111 0-21.361864 8.082026-23.478339 23.862209zM764.213171 770.552219h23.104843l1.919352 19.058642h0.819615c7.884904-14.047579 19.442513-21.787234 30.605876-21.787234a30.543627 30.543627 0 0 1 12.70922 2.303222l-5.011064 24.453577a33.749463 33.749463 0 0 0-11.163364-1.732604c-8.465897 0-18.674772 5.581682-24.837446 21.175116v64.324215H764.213171z"
    p-id="5483"
  ></path>
</svg>