<svg
  t="1725650090956"
  class="icon"
  viewBox="0 0 1024 1024"
  version="1.1"
  xmlns="http://www.w3.org/2000/svg"
  p-id="4158"
  width="256"
  height="256"
>
  <path
    d="M328.181744 0h367.604513c114.140433 0 155.51514 11.871629 197.209837 34.206931a232.63273 232.63273 0 0 1 96.764976 96.764976C1012.128371 172.666604 1023.968001 214.041311 1023.968001 328.181744v367.604513c0 114.140433-11.871629 155.51514-34.206931 197.209837a232.63273 232.63273 0 0 1-96.764976 96.764976C851.301397 1012.128371 809.92669 1023.968001 695.786257 1023.968001H328.181744c-114.140433 0-155.51514-11.871629-197.209837-34.206931a232.63273 232.63273 0 0 1-96.764976-96.764976C11.83963 851.301397 0 809.92669 0 695.786257V328.181744c0-114.140433 11.871629-155.51514 34.206931-197.209837a232.63273 232.63273 0 0 1 96.764976-96.764976C172.666604 11.83963 214.041311 0 328.181744 0z"
    fill="#FF6A07"
    p-id="4159"
  ></path>
  <path
    d="M511.984 223.993a287.991 287.991 0 1 1 0 575.982001 287.991 287.991 0 0 1 0-575.982001z m81.181464 187.898128a127.996 127.996 0 1 0-31.455017 204.121622l5.951814-3.295897 48.126496 48.094497 45.246586-45.278585-48.094497-48.094497a128.059998 128.059998 0 0 0-19.775382-155.515141z m-135.771758 45.278585a63.998 63.998 0 1 1 90.525172 90.493173 63.998 63.998 0 0 1-90.525172-90.493173z"
    fill="#FFFFFF"
    p-id="4160"
  ></path>
</svg>