<svg
  t="1725649315583"
  class="icon"
  viewBox="0 0 1024 1024"
  version="1.1"
  xmlns="http://www.w3.org/2000/svg"
  p-id="11636"
  width="256"
  height="256"
>
  <path
    d="M976.039906 783.648263c0 119.39898-104.670655 217.091591-232.601457 217.091591H280.561551c-127.930801 0-232.601456-97.692612-232.601457-217.091591s104.670655-217.091591 232.601457-217.091591h462.876898c127.930801 0 232.601456 97.692612 232.601457 217.091591z"
    fill="#FFFFFF"
    p-id="11637"
  ></path>
  <path
    d="M743.438449 23.260146H280.561551C152.63075 23.260146 47.960094 120.952757 47.960094 240.351737s104.670655 217.091591 232.601457 217.091591h462.876898c127.930801 0 232.601456-97.68796 232.601457-217.091591C976.039906 120.952757 871.36925 23.260146 743.438449 23.260146z"
    fill="#4E6070"
    p-id="11638"
  ></path>
  <path
    d="M266.810153 240.351737m-112.620974 0a112.620973 112.620973 0 1 0 225.241947 0 112.620973 112.620973 0 1 0-225.241947 0Z"
    fill="#00CCC6"
    p-id="11639"
  ></path>
  <path
    d="M743.438449 566.556672H280.561551c-127.930801 0-232.601456 97.692612-232.601457 217.091591s104.670655 217.091591 232.601457 217.091591h462.876898c127.930801 0 232.601456-97.692612 232.601457-217.091591s-104.670655-217.091591-232.601457-217.091591z"
    fill="#00CCC6"
    p-id="11640"
  ></path>
  <path
    d="M751.472504 778.66594m-116.979925 0a116.979924 116.979924 0 1 0 233.959849 0 116.979924 116.979924 0 1 0-233.959849 0Z"
    fill="#4E6070"
    p-id="11641"
  ></path>
</svg>