<svg
  t="1725047822496"
  class="icon"
  viewBox="0 0 1024 1024"
  version="1.1"
  xmlns="http://www.w3.org/2000/svg"
  p-id="8761"
  width="256"
  height="256"
>
  <path
    d="M512 512m-238.933333 0a238.933333 238.933333 0 1 0 477.866666 0 238.933333 238.933333 0 1 0-477.866666 0Z"
    fill="#22C55E"
    p-id="8762"
  ></path>
  <path
    d="M512 512m-102.4 0a102.4 102.4 0 1 0 204.8 0 102.4 102.4 0 1 0-204.8 0Z"
    fill="#2D515E"
    p-id="8763"
  ></path>
  <path
    d="M972.8 460.8h-20.138667a441.344 441.344 0 0 0-93.184-223.914667l14.677334-14.677333a51.2 51.2 0 0 0-72.362667-72.362667l-14.677333 14.677334a441.344 441.344 0 0 0-223.914667-93.184V51.2a51.2 51.2 0 0 0-102.4 0v20.138667a441.344 441.344 0 0 0-223.914667 93.184l-14.677333-14.677334a51.2 51.2 0 0 0-72.362667 72.362667l14.677334 14.677333a441.344 441.344 0 0 0-93.184 223.914667H51.2a51.2 51.2 0 0 0 0 102.4h20.138667a441.344 441.344 0 0 0 93.184 223.914667l-14.677334 14.677333a51.2 51.2 0 1 0 72.362667 72.362667l14.677333-14.677334a441.344 441.344 0 0 0 223.914667 93.184v20.138667a51.2 51.2 0 0 0 102.4 0v-20.138667a441.344 441.344 0 0 0 223.914667-93.184l14.677333 14.677334a51.2 51.2 0 1 0 72.362667-72.362667l-14.677334-14.677333a441.344 441.344 0 0 0 93.184-223.914667h20.138667a51.2 51.2 0 0 0 0-102.4zM512 853.333333a341.333333 341.333333 0 1 1 341.333333-341.333333 341.333333 341.333333 0 0 1-341.333333 341.333333z"
    fill="#2D515E"
    p-id="8764"
  ></path>
</svg>