<svg
  t="1723393022607"
  class="icon"
  viewBox="0 0 1024 1024"
  version="1.1"
  xmlns="http://www.w3.org/2000/svg"
  p-id="22807"
  data-spm-anchor-id="a313x.search_index.0.i9.52023a81WM8D8Y"
  width="256"
  height="256"
>
  <path
    d="M783.9744 925.0816H238.1824c-64.9216 0-117.76-52.8384-117.76-117.76V410.4192c0-21.504 17.6128-39.1168 39.1168-39.1168S198.656 388.9152 198.656 410.4192v396.9024c0 21.9136 17.8176 39.7312 39.7312 39.7312h545.792c21.9136 0 39.7312-17.8176 39.7312-39.7312V409.3952c0-21.504 17.6128-39.1168 39.1168-39.1168s39.1168 17.6128 39.1168 39.1168v397.9264c-0.4096 64.9216-53.248 117.76-118.1696 117.76z"
    fill="#3bca0f"
    p-id="22808"
  ></path>
  <path
    d="M940.8512 485.5808c-8.3968 0-16.7936-2.6624-23.7568-8.192L534.9376 182.272c-14.1312-10.8544-33.5872-10.8544-47.7184 0L105.2672 477.3888c-16.9984 13.312-41.5744 10.0352-54.6816-6.9632-13.312-16.9984-10.0352-41.5744 6.9632-54.6816L439.5008 120.4224c42.1888-32.5632 101.1712-32.5632 143.1552 0l382.1568 295.1168c16.9984 13.312 20.2752 37.6832 6.9632 54.6816-7.7824 10.0352-19.2512 15.36-30.9248 15.36z"
    fill="#3bca0f"
    p-id="22809"
  ></path>
  <path
    d="M512 632.2176c-21.504 0-39.1168-17.6128-39.1168-39.1168v-177.5616c0-21.504 17.6128-39.1168 39.1168-39.1168 21.504 0 39.1168 17.6128 39.1168 39.1168v177.5616c0 21.7088-17.6128 39.1168-39.1168 39.1168z"
    fill="#3bca0f"
    p-id="22810"
  ></path>
  <path
    d="M512.8192 719.2576m-38.5024 0a38.5024 38.5024 0 1 0 77.0048 0 38.5024 38.5024 0 1 0-77.0048 0Z"
    fill="#3bca0f"
    p-id="22811"
  ></path>
</svg>