<svg
  t="1723986978687"
  class="icon"
  viewBox="0 0 1177 1024"
  version="1.1"
  xmlns="http://www.w3.org/2000/svg"
  p-id="13254"
  width="256"
  height="256"
>
  <path
    d="M1100.8768 79.9488H442.88V64A64 64 0 0 0 378.88 0H64A64 64 0 0 0 0 64v883.2768A76.7232 76.7232 0 0 0 76.7488 1024h1024.128A76.7232 76.7232 0 0 0 1177.6 947.2768V156.672a76.7232 76.7232 0 0 0-76.7232-76.7232"
    fill="#CCA352"
    p-id="13255"
  ></path>
  <path
    d="M1081.6512 965.2224H95.9488A19.1488 19.1488 0 0 1 76.8 946.0736V193.8432c0-10.5472 8.5504-19.0976 19.0976-19.0976h985.7536c10.5728 0 19.1488 8.576 19.1488 19.1488v752.1792a19.1488 19.1488 0 0 1-19.1488 19.1488"
    fill="#F1F1F1"
    p-id="13256"
  ></path>
  <path
    d="M1107.2512 986.7264H70.3488A19.1488 19.1488 0 0 1 51.2 967.5776V223.0016c0-10.5472 8.5504-19.1232 19.0976-19.1232h1036.9536c10.5728 0 19.1488 8.576 19.1488 19.1488v744.4992a19.1488 19.1488 0 0 1-19.1488 19.1488"
    fill="#FFFFFF"
    p-id="13257"
  ></path>
  <path
    d="M1100.8768 1024H76.7232A76.7232 76.7232 0 0 1 0 947.2768V289.8432a25.6 25.6 0 0 1 25.6-25.6h1126.4a25.6 25.6 0 0 1 25.6 25.6v657.408A76.7232 76.7232 0 0 1 1100.8768 1024"
    fill="#FFCC66"
    p-id="13258"
  ></path>
</svg>